<?xml version="1.0" standalone="no"?>
<!DOCTYPE svg PUBLIC "-//W3C//DTD SVG 1.1//EN" "http://www.w3.org/Graphics/SVG/1.1/DTD/svg11.dtd" >
<svg xmlns="http://www.w3.org/2000/svg">
<metadata>
This is a custom SVG webfont generated by Font Squirrel.
Copyright   : 2009 Erik Spiekermann Christian Schwartz Kris Sowersby published by FSI FontShop International GmbH
Designer    : Erik Spiekermann Christian Schwartz Kris Sowersby
Foundry     : FSI
Foundry URL : httpwwwfontfontcom
</metadata>
<defs>
<font id="UnitSlabOTMediumItalic" horiz-adv-x="1116" >
<font-face units-per-em="2048" ascent="1624" descent="-424" />
<missing-glyph horiz-adv-x="466" />
<glyph unicode=" "  horiz-adv-x="466" />
<glyph unicode="&#x09;" horiz-adv-x="466" />
<glyph unicode="&#xa0;" horiz-adv-x="466" />
<glyph unicode="!" horiz-adv-x="593" d="M68 133.5q0 63.5 44 108.5t107.5 45t107.5 -44t44 -110q0 -63 -44 -107t-107.5 -44t-107.5 44t-44 107.5zM190 426l156 991h281l-283 -991h-154z" />
<glyph unicode="&#x22;" horiz-adv-x="884" d="M233 889l107 563h223l-135 -563h-195zM610 889l105 563h223l-135 -563h-193z" />
<glyph unicode="#" horiz-adv-x="1089" d="M63 360l35 168h178l72 273h-170l37 168h176l90 338h160l-88 -338h203l90 338h158l-89 -338h168l-34 -168h-179l-69 -273h168l-35 -168h-178l-94 -360h-160l94 360h-205l-94 -360h-160l94 360h-168zM436 528h205l72 273h-205z" />
<glyph unicode="$" horiz-adv-x="1042" d="M14 106l58 267h157l4 -189q66 -39 136 -53l94 444q-154 74 -217.5 158t-63.5 213q0 178 121 281.5t320 109.5l51 242h151l-53 -252q129 -18 260 -96l-57 -260h-154l-10 182q-23 10 -72 23l-86 -418q147 -80 213 -162t66 -219q0 -172 -113.5 -283.5t-331.5 -120.5 l-51 -243h-151l53 252q-193 24 -324 124zM422 991q0 -55 19.5 -89t74.5 -71l74 349q-168 -23 -168 -189zM520 131q164 35 164 199q0 106 -86 170z" />
<glyph unicode="%" horiz-adv-x="1710" d="M164 932q0 100 38 190t99 142q94 76 221 75q137 0 215 -82.5t78 -222.5q0 -98 -38 -188t-99 -141q-90 -76 -221 -76q-137 0 -215 82t-78 221zM317 0l961 1307h178l-960 -1307h-179zM360 874q0 -63 24 -91.5t77 -28.5q63 0 98 63q23 43 41 131t18 144q0 66 -22.5 94 t-75.5 28q-66 0 -100 -63q-23 -43 -41.5 -132.5t-18.5 -144.5zM963 279q0 98 37.5 188t99.5 141q90 76 221 76q137 0 215 -82t78 -221q0 -100 -38 -190.5t-99 -141.5q-94 -76 -222 -76q-137 0 -214.5 83.5t-77.5 222.5zM1159 221q0 -66 23.5 -94.5t77.5 -28.5q63 0 98 64 q23 45 41 133t18 143q0 63 -22.5 92t-75.5 29q-66 0 -100 -63q-23 -43 -41.5 -131.5t-18.5 -143.5z" />
<glyph unicode="&#x26;" horiz-adv-x="1331" d="M33 350q0 334 377 459q-80 125 -80 274q0 156 108.5 258.5t276.5 102.5q152 0 242 -81t90 -216q0 -137 -89.5 -224t-263.5 -149l207 -352q53 80 86 190l-104 27l30 123h392l-29 -133l-121 -23q-55 -164 -168 -323l80 -136l133 -18l-24 -129h-287l-72 123 q-156 -150 -373 -150q-193 0 -302 104.5t-109 272.5zM285 360q0 -227 194 -227q152 0 260 119l-260 436q-194 -84 -194 -328zM561 1100q0 -96 49 -182l19 -33q111 59 155.5 119.5t44.5 150.5q0 135 -114 135q-74 0 -114 -53t-40 -137z" />
<glyph unicode="'" horiz-adv-x="507" d="M233 889l105 563h223l-135 -563h-193z" />
<glyph unicode="(" horiz-adv-x="714" d="M109 322q0 182 49 403q86 385 237.5 586.5t409.5 283.5l43 -133q-115 -53 -190.5 -130t-144.5 -232.5t-124 -407.5q-53 -248 -53 -416q0 -326 172 -491l-98 -125q-301 211 -301 662z" />
<glyph unicode=")" horiz-adv-x="714" d="M-86 -209q115 53 191.5 130t145 232.5t124.5 407.5q53 248 53 416q0 324 -172 491l96 125q301 -213 301 -663q0 -188 -47 -402q-84 -385 -237.5 -586.5t-411.5 -283.5z" />
<glyph unicode="*" horiz-adv-x="991" d="M217 1178l74 120l241 -135l84 277l142 -33l-45 -285l274 13l10 -144l-276 -45l92 -278l-131 -54l-123 258l-223 -178l-94 105l202 211z" />
<glyph unicode="+" d="M123 520l39 180h323l78 367h195l-80 -367h321l-36 -180h-322l-80 -370h-192l80 370h-326z" />
<glyph unicode="," horiz-adv-x="571" d="M-8 -180q68 25 119 75t63 105q-43 8 -79 49t-36 96q0 63 45.5 108.5t110.5 45.5q68 0 113 -47t45 -133q0 -143 -103.5 -258t-275.5 -148z" />
<glyph unicode="-" horiz-adv-x="634" d="M78 457l47 213h432l-45 -213h-434z" />
<glyph unicode="." horiz-adv-x="571" d="M66 141q0 63 45 109.5t108 46.5q66 0 111 -45t45 -110.5t-45 -111.5t-111 -46q-63 0 -108 45.5t-45 111.5z" />
<glyph unicode="/" horiz-adv-x="778" d="M-137 -311l885 1876h194l-887 -1876h-192z" />
<glyph unicode="0" horiz-adv-x="1234" d="M109 475q0 137 35.5 284.5t93.5 254.5q164 319 497 319q211 0 329 -127t118 -366q0 -147 -40 -313.5t-104 -278.5q-156 -272 -471 -273q-217 0 -337.5 129t-120.5 371zM354 418q0 -285 221 -285q168 0 256 223q41 106 74 270.5t33 264.5q0 276 -211 276q-98 0 -160.5 -55 t-107.5 -174q-39 -104 -72 -262t-33 -258z" />
<glyph unicode="1" horiz-adv-x="909" d="M33 0l33 145l245 27l174 829l-264 -94l-53 113l465 297h155l-241 -1145l213 -27l-31 -145h-696z" />
<glyph unicode="2" horiz-adv-x="1009" d="M-31 0l39 188q397 303 557 467t160 310q0 82 -46 126t-134 44q-127 0 -285 -84l-72 139q178 143 412 143q174 0 275.5 -93t101.5 -255q0 -188 -173 -368.5t-538 -417.5h592l-41 -199h-848z" />
<glyph unicode="3" horiz-adv-x="1005" d="M-35 -41l39 158q168 -68 318 -68q182 0 245 119q53 94 54 213q0 88 -58.5 135t-165.5 47h-108l37 170h108q152 0 211 78q51 68 51 168q0 166 -176 166q-137 0 -276 -88l-64 141q164 135 395 135q166 0 266.5 -87t100.5 -236q0 -137 -74.5 -236.5t-208.5 -132.5 q98 -29 154.5 -109.5t56.5 -181.5q0 -184 -104 -315q-129 -170 -424 -170q-221 0 -377 94z" />
<glyph unicode="4" horiz-adv-x="1148" d="M20 193l41 190l564 924h235l-579 -940h385l116 542l246 41l-125 -583h146l-37 -174h-146l-63 -302h-238l64 302h-609z" />
<glyph unicode="5" horiz-adv-x="1038" d="M-14 -51l39 168q160 -68 301 -68q164 0 247 113q70 88 70 241q0 207 -246 207q-133 0 -243 -37l211 734h684l-41 -195h-506l-101 -350q47 14 113 14q176 0 281.5 -93t105.5 -271q0 -233 -127 -379q-150 -166 -428 -166q-196 0 -360 82z" />
<glyph unicode="6" horiz-adv-x="1136" d="M109 471q0 238 100 450t274 334q225 158 584 203v-162q-274 -57 -451 -194q-127 -100 -208 -295q125 88 284 88q162 0 263.5 -103.5t101.5 -281.5q0 -236 -143.5 -385.5t-366.5 -149.5q-207 0 -322.5 131.5t-115.5 364.5zM350 442q0 -162 49.5 -235.5t151.5 -73.5 q117 0 184.5 99.5t67.5 263.5q0 225 -203 225q-127 0 -225 -74q-25 -115 -25 -205z" />
<glyph unicode="7" horiz-adv-x="976" d="M106 -102q111 414 311.5 726t418.5 488h-494l-72 -141h-139l72 336h850l-43 -209q-197 -178 -381.5 -508t-274.5 -725z" />
<glyph unicode="8" horiz-adv-x="1150" d="M72 350q0 160 91 249t251 138q-154 106 -154 299q0 182 127 295t326 113q188 0 296.5 -100.5t108.5 -253.5q0 -240 -309 -340q102 -59 159.5 -151.5t57.5 -195.5q0 -190 -137 -310t-359 -120q-217 0 -337.5 107.5t-120.5 269.5zM305 358q0 -115 62.5 -175t173.5 -60 q113 0 175 71.5t62 180.5q0 139 -141 223l-117 66q-215 -101 -215 -306zM496 1063q0 -133 108 -197l84 -49q113 55 158 125t45 164q0 82 -49 135t-137 53q-96 0 -152.5 -59t-56.5 -172z" />
<glyph unicode="9" horiz-adv-x="1134" d="M98 8q225 43 379 134t244 255q39 78 47 99q-121 -82 -272 -82q-164 0 -266.5 106.5t-102.5 288.5q0 221 145.5 372.5t370.5 151.5q205 0 321.5 -123t116.5 -344q0 -131 -37.5 -277.5t-101.5 -262.5q-229 -414 -844 -480v162zM379 813q0 -229 201 -229q125 0 229 75 q29 127 29 236q0 281 -201 281q-121 0 -189.5 -104.5t-68.5 -258.5z" />
<glyph unicode=":" horiz-adv-x="614" d="M78 141q0 63 45 109.5t110.5 46.5t110.5 -46t45 -110q0 -66 -45 -111.5t-110.5 -45.5t-110.5 45.5t-45 111.5zM207 743.5q0 65.5 45 110.5t108 45q66 0 111 -46t45 -110q0 -66 -45 -111.5t-111 -45.5q-63 0 -108 46t-45 111.5z" />
<glyph unicode=";" horiz-adv-x="606" d="M-6 -184q72 29 124 80t62 104q-43 8 -77.5 49t-34.5 96q0 63 45 108.5t110 45.5q68 0 112 -47t44 -133q0 -141 -98.5 -253t-264.5 -151zM197 743q0 63 45 109.5t108 46.5q66 0 111 -45t45 -110.5t-45 -111.5t-111 -46q-63 0 -108 45.5t-45 111.5z" />
<glyph unicode="&#x3c;" horiz-adv-x="808" d="M121 586l26 110l560 377l84 -143l-453 -318l313 -356l-127 -123z" />
<glyph unicode="=" horiz-adv-x="1107" d="M92 297l41 180h828l-39 -180h-830zM184 735l41 180h828l-37 -180h-832z" />
<glyph unicode="&#x3e;" horiz-adv-x="808" d="M57 276l453 320l-313 356l125 121l403 -450l-25 -111l-561 -379z" />
<glyph unicode="?" horiz-adv-x="931" d="M184 133.5q0 63.5 44 108.5t107.5 45t107.5 -44t44 -110q0 -63 -43 -107t-108 -44q-63 0 -107.5 44t-44.5 107.5zM221 1108l55 258q147 78 318 78q168 0 260 -79t92 -226q0 -104 -43 -184.5t-101.5 -124.5t-158.5 -99q-68 -35 -104.5 -77t-49.5 -109l-22 -119h-176 l37 178q23 113 70.5 175.5t131.5 107.5q100 57 138.5 107t38.5 136q0 156 -142 156q-57 0 -119 -22l-90 -156h-135z" />
<glyph unicode="@" horiz-adv-x="1732" d="M90 328q0 422 231.5 698.5t620.5 276.5q340 0 523.5 -178.5t183.5 -481.5q0 -315 -122 -482t-308 -167q-113 0 -175.5 48t-76.5 124q-121 -147 -277 -148q-109 0 -171 71t-62 204q0 143 42 283.5t124 234.5q94 106 241 107q129 0 213 -113l58 90h165l-129 -588 q-12 -57 -12 -96q0 -70 76 -70q98 0 162.5 122t64.5 380q0 256 -126 385t-398 129q-307 0 -484.5 -238.5t-177.5 -592.5q0 -293 133.5 -417t389.5 -124q164 0 321 55l45 -127q-170 -72 -377 -71q-332 0 -515 169t-183 517zM678 285q0 -113 90 -113q80 0 180 86l94 436 q-61 72 -145 72q-82 0 -123 -80q-39 -76 -67.5 -198.5t-28.5 -202.5z" />
<glyph unicode="A" horiz-adv-x="1216" d="M-123 0l27 127l131 20l647 1270h231l129 -1270l119 -20l-26 -127h-514l26 127l146 20l-23 261h-412l-127 -261l146 -20l-27 -127h-473zM430 557h326l-23 270q-14 138 -13 255q0 58 3 112h-2q-41 -121 -158 -369z" />
<glyph unicode="B" horiz-adv-x="1191" d="M-29 0l27 127l145 23l236 1110l-135 24l28 133h555q188 0 278.5 -78.5t90.5 -216.5q0 -162 -82 -257t-219 -124q98 -20 163.5 -98t65.5 -194q0 -252 -202 -373q-129 -76 -326 -76h-625zM389 152h195q125 0 188 57q94 88 94 280q0 86 -47 127t-157 41h-166zM528 807h140 q133 0 194 65q78 84 78 248q0 143 -170 144h-143z" />
<glyph unicode="C" horiz-adv-x="1091" d="M104 426q0 217 79 465t204 377q176 176 428 176q229 0 348 -96l-57 -293h-152l-4 207q-53 27 -145 26q-180 0 -279 -188q-63 -119 -118.5 -351.5t-55.5 -381.5q0 -127 52.5 -182.5t164.5 -55.5q104 0 179 33l88 198h151l-65 -307q-147 -80 -379 -80q-211 0 -325 115 t-114 338z" />
<glyph unicode="D" horiz-adv-x="1304" d="M-29 0l27 127l145 23l236 1110l-135 24l28 133h535q223 0 345 -111.5t122 -342.5q0 -139 -37 -316.5t-90 -300.5q-84 -195 -231.5 -270.5t-360.5 -75.5h-584zM389 152h160q139 0 226 57t134 192q41 117 77 288t36 286q0 147 -60.5 218t-185.5 71h-151z" />
<glyph unicode="E" horiz-adv-x="1073" d="M-29 0l27 127l145 23l236 1110l-135 24l28 133h897l-75 -340h-148l4 187h-325l-95 -455h228l57 119h117l-82 -391h-119l-6 120h-227l-111 -503h350l80 194h152l-72 -348h-926z" />
<glyph unicode="F" horiz-adv-x="1032" d="M-29 0l27 127l145 23l236 1110l-135 24l28 133h897l-75 -344h-148l4 191h-325l-99 -463h230l59 127h117l-88 -408h-117l-4 127h-229l-105 -495l193 -23l-29 -129h-582z" />
<glyph unicode="G" horiz-adv-x="1177" d="M104 426q0 217 79 465t204 377q176 176 428 176q229 0 348 -96l-55 -281h-154l-4 195q-59 27 -145 26q-92 0 -157.5 -44t-121.5 -144q-63 -119 -117.5 -349.5t-54.5 -375.5q0 -129 48.5 -183.5t154.5 -54.5q131 0 223 90l68 318l-166 22l29 135h399l-149 -702h-142 l-24 102q-113 -129 -299 -129q-193 0 -292.5 114t-99.5 339z" />
<glyph unicode="H" horiz-adv-x="1409" d="M-29 0l27 127l145 23l236 1110l-135 24l28 133h529l-29 -133l-147 -24l-95 -445h488l94 445l-135 24l29 133h526l-27 -133l-147 -24l-238 -1110l137 -23l-26 -127h-526l26 127l146 23l106 505h-487l-107 -505l135 -23l-26 -127h-527z" />
<glyph unicode="I" horiz-adv-x="677" d="M-29 0l27 127l145 23l236 1110l-135 24l28 133h529l-29 -133l-147 -24l-236 -1110l135 -23l-26 -127h-527z" />
<glyph unicode="J" horiz-adv-x="651" d="M-141 -211q115 59 176 135t94 223l238 1113l-136 24l29 133h526l-28 -133l-148 -24l-227 -1070q-47 -221 -163 -337.5t-324 -186.5z" />
<glyph unicode="K" horiz-adv-x="1267" d="M-29 0l27 127l145 23l236 1110l-135 24l28 133h529l-29 -133l-147 -24l-236 -1110l135 -23l-26 -127h-527zM535 729l514 535l-129 20l26 133h465l-29 -133l-125 -22l-483 -490l264 -627l146 -18l-27 -127h-326z" />
<glyph unicode="L" horiz-adv-x="1042" d="M-29 0l27 127l145 23l236 1110l-135 24l28 133h529l-29 -133l-147 -24l-236 -1106h356l82 217h154l-78 -371h-932z" />
<glyph unicode="M" horiz-adv-x="1603" d="M-29 0l27 127l145 23l236 1110l-135 24l28 133h430l89 -612q15 -108 15 -209q0 -46 -3 -90h4q35 127 125 299l328 612h466l-26 -133l-148 -24l-237 -1110l137 -23l-27 -127h-524l25 127l145 23l135 634q51 248 105 443h-4q-72 -195 -197 -420l-305 -553h-160l-84 528 q-25 160 -24 445h-5q-25 -211 -73 -445l-135 -632l137 -23l-27 -127h-463z" />
<glyph unicode="N" horiz-adv-x="1343" d="M-29 0l27 127l145 23l236 1110l-135 24l28 133h359l243 -733q68 -203 84 -358h5q25 236 61 407l109 527l-136 24l29 133h461l-27 -133l-147 -24l-269 -1260h-180l-262 760q-68 193 -90 366h-4q-12 -168 -64 -405l-120 -571l137 -23l-27 -127h-463z" />
<glyph unicode="O" horiz-adv-x="1271" d="M104 428q0 221 72 458.5t195 373.5q170 184 432 184q215 0 326.5 -115t111.5 -332q0 -221 -71.5 -461.5t-192.5 -377.5q-166 -184 -432 -185q-441 0 -441 455zM348 371q0 -238 209 -238q162 0 258 172q63 117 121.5 357.5t58.5 384.5q0 236 -204 235q-166 0 -261 -170 q-63 -115 -122.5 -356.5t-59.5 -384.5z" />
<glyph unicode="P" horiz-adv-x="1142" d="M-29 0l27 127l145 23l236 1110l-135 24l28 133h543q406 0 406 -330q0 -145 -55.5 -265t-155.5 -183q-113 -90 -340 -90h-197l-84 -399l193 -23l-29 -127h-582zM506 700h145q139 0 205 62q111 106 111 342q0 86 -45 123t-142 37h-155z" />
<glyph unicode="Q" horiz-adv-x="1271" d="M104 428q0 221 72 458.5t195 373.5q170 184 432 184q215 0 326.5 -115t111.5 -332q0 -141 -31 -288q-55 -274 -173.5 -456.5t-291.5 -234.5l359 -65l-92 -215l-619 254q-145 59 -217 163.5t-72 272.5zM348 371q0 -238 209 -238q162 0 258 172q63 117 121.5 357.5 t58.5 384.5q0 236 -204 235q-166 0 -261 -170q-63 -115 -122.5 -356.5t-59.5 -384.5z" />
<glyph unicode="R" horiz-adv-x="1257" d="M-29 0l27 127l145 23l236 1110l-135 24l28 133h539q403 0 403 -319q0 -186 -105 -302t-271 -141v-4q135 -33 161 -221l39 -283l123 -18l-24 -129h-322l-57 414q-14 106 -52 149t-120 43h-101l-96 -456l135 -23l-26 -127h-527zM518 754h156q123 0 186 57q45 43 74 127 t29 162q0 164 -189 164h-149z" />
<glyph unicode="S" horiz-adv-x="1013" d="M12 109l60 284h155l4 -207q80 -57 207 -57q113 0 178.5 56.5t65.5 166.5q0 100 -46 159.5t-167 121.5q-150 76 -210 164t-60 223q0 201 128 312.5t328 111.5q227 0 379 -107l-57 -274h-152l-10 194q-57 29 -160 29q-104 0 -164.5 -54t-60.5 -165q0 -80 38 -127t165 -113 q150 -78 219.5 -167t69.5 -242q0 -190 -116 -317.5t-349 -127.5q-285 1 -445 136z" />
<glyph unicode="T" horiz-adv-x="1134" d="M170 1022l84 395h1028l-84 -395h-147l12 244h-203l-237 -1116l157 -25l-26 -125h-568l25 125l168 25l235 1116h-204l-91 -244h-149z" />
<glyph unicode="U" horiz-adv-x="1294" d="M139 270q0 74 19 166l174 824l-135 24l28 133h381l-211 -995q-14 -72 -14 -119q0 -76 35 -110.5t110 -34.5q152 0 289 102l213 1000l-135 24l29 133h381l-271 -1267l133 -23l-26 -127h-303l-15 123q-166 -150 -368 -150q-147 0 -230.5 72.5t-83.5 224.5z" />
<glyph unicode="V" horiz-adv-x="1210" d="M180 1284l29 133h493l-28 -133l-142 -20l43 -674q7 -122 7.5 -213.5t-7.5 -153.5h5q82 236 141 361l323 680l-139 20l29 133h463l-29 -133l-119 -20l-633 -1264h-219l-110 1264z" />
<glyph unicode="W" horiz-adv-x="1720" d="M184 1284l29 133h494l-29 -133l-141 -20l-13 -674q-2 -164 -28 -354h2q49 176 125 354l360 827h199l12 -817v-46q0 -162 -12 -318h2q55 219 106 348l266 680l-139 20l29 133h459l-29 -133l-121 -20l-536 -1264h-234l-10 748v37q0 203 20 348h-4q-57 -236 -123 -383 l-336 -750h-231l-10 1264z" />
<glyph unicode="X" horiz-adv-x="1245" d="M-61 0l26 127l117 16l473 605l-176 516l-123 20l31 133h495l-28 -133l-121 -16l115 -385l276 383l-129 18l31 133h442l-29 -133l-120 -18l-404 -527l193 -594l122 -18l-24 -127h-502l27 125l131 18l-137 447l-344 -447l141 -18l-27 -125h-456z" />
<glyph unicode="Y" horiz-adv-x="1138" d="M182 1284l29 133h496l-29 -133l-143 -18l81 -326q27 -109 27 -238h6q35 90 119 224l221 342l-127 16l29 133h434l-29 -133l-110 -18l-473 -688l-90 -428l137 -23l-27 -127h-528l26 127l148 23l90 428l-184 688z" />
<glyph unicode="Z" horiz-adv-x="999" d="M-55 0l28 156l852 1112h-383l-82 -213h-159l80 362h856l-33 -160l-858 -1107h426l88 221h160l-82 -371h-893z" />
<glyph unicode="[" horiz-adv-x="663" d="M-10 -322l401 1889h404l-29 -135l-186 -15l-340 -1589l182 -16l-29 -134h-403z" />
<glyph unicode="\" horiz-adv-x="784" d="M248 1565h184l225 -1876h-184z" />
<glyph unicode="]" horiz-adv-x="663" d="M-70 -317l29 135l186 14l338 1589l-180 17l29 133h403l-401 -1888h-404z" />
<glyph unicode="^" horiz-adv-x="1046" d="M195 874l419 576h207l176 -576h-221l-102 334l-240 -334h-239z" />
<glyph unicode="_" horiz-adv-x="716" d="M-164 -299l41 186h688l-39 -186h-690z" />
<glyph unicode="`" d="M340 1366l135 184l352 -276l-82 -111z" />
<glyph unicode="a" horiz-adv-x="1112" d="M80 297q0 188 61.5 386t175.5 296q98 84 236 84q154 0 252 -123l53 96h186l-159 -755q-18 -82 -19 -99q0 -35 41 -35h99v-110q-119 -63 -215 -64q-76 0 -110 45t-36 113q-154 -158 -311 -158q-117 0 -185.5 80t-68.5 244zM317 299q0 -154 113 -154q82 0 217 111l119 555 q-74 90 -178 90q-109 0 -164 -125q-39 -86 -73 -232.5t-34 -244.5z" />
<glyph unicode="b" d="M59 0l281 1315l-119 37l31 139h352l-123 -567q55 61 137 100t162 39q256 0 256 -311q0 -188 -58 -384t-173 -300q-100 -94 -256 -95q-170 0 -254 125l-57 -98h-179zM330 211q72 -84 178 -84q100 0 156 84q53 80 95 261t42 288q0 129 -121 129q-100 0 -229 -113z" />
<glyph unicode="c" horiz-adv-x="878" d="M80 367q0 135 45 286.5t113 243.5q121 166 378 166q180 0 289 -78l-45 -233h-155v159q-37 14 -89 15q-143 0 -208 -156q-37 -86 -64 -213t-27 -215q0 -203 179 -203q127 0 237 74l47 -121q-121 -119 -340 -119q-174 0 -267 102t-93 292z" />
<glyph unicode="d" horiz-adv-x="1120" d="M80 297q0 188 61.5 386t175.5 296q98 84 236 84q141 0 242 -117l77 373l-114 29l30 143h353l-256 -1210q-18 -82 -19 -99q0 -35 41 -35h99v-110q-119 -63 -215 -64q-76 0 -110 45t-36 113q-154 -158 -311 -158q-117 0 -185.5 80t-68.5 244zM317 299q0 -154 113 -154 q82 0 217 111l117 555q-74 90 -176 90q-109 0 -164 -125q-39 -86 -73 -232.5t-34 -244.5z" />
<glyph unicode="e" horiz-adv-x="942" d="M80 373q0 137 46 278.5t116 231.5q135 180 370 180q150 0 232 -72.5t82 -195.5q0 -90 -38 -155t-91.5 -98.5t-141.5 -53t-160.5 -24.5t-177.5 -5q-8 -41 -8 -94q0 -106 51.5 -167t153.5 -61q119 0 252 90l51 -123q-123 -131 -364 -131q-178 0 -275.5 105t-97.5 295z M338 586q82 2 128 6t99 17.5t80 35t45.5 59t18.5 93.5q0 59 -29 91t-76 32q-111 0 -190 -142q-49 -86 -76 -192z" />
<glyph unicode="f" horiz-adv-x="606" d="M-115 -307q43 35 70 62.5t56.5 89t45.5 145.5l170 889h-106l35 157h108l31 148q68 322 364 321q106 0 185 -41l-47 -143q-53 25 -111 25q-70 0 -108.5 -37t-57.5 -121l-35 -152h185l-35 -157h-182l-183 -922q-27 -135 -102.5 -219t-214.5 -150z" />
<glyph unicode="g" horiz-adv-x="1069" d="M23 -315l57 145q172 -84 313 -84q80 0 123 38t62 118l49 219q-145 -137 -289 -137q-117 0 -185.5 78.5t-68.5 242.5q0 188 60.5 382t174.5 292q98 84 236 84q154 0 252 -123l53 96h187l-244 -1145q-35 -164 -129 -239.5t-254 -75.5q-217 0 -397 109zM322 307 q0 -82 27.5 -117.5t84.5 -35.5q82 0 217 110l117 547q-74 90 -178 90q-106 0 -166 -127q-39 -86 -70.5 -228.5t-31.5 -238.5z" />
<glyph unicode="h" horiz-adv-x="1095" d="M59 0l281 1315l-119 37l31 139h352l-125 -576q137 147 297 148q205 0 205 -225q0 -57 -10 -101l-99 -456q-14 -72 -14 -97q0 -37 45 -37h92v-110q-104 -61 -209 -62q-164 0 -163 144q0 45 14 108l104 496q8 45 9 63q0 86 -91 86q-86 0 -208 -102l-164 -770h-228z" />
<glyph unicode="i" horiz-adv-x="587" d="M94 115q0 37 10 88l140 659l-119 35l31 139h352l-162 -755q-18 -82 -18 -99q0 -35 41 -35h98v-110q-119 -63 -215 -64q-158 1 -158 142zM295 1339q0 63 42 106.5t103.5 43.5t104.5 -43t43 -107q0 -61 -43 -104t-104.5 -43t-103.5 43t-42 104z" />
<glyph unicode="j" horiz-adv-x="542" d="M-166 -299q104 53 150.5 106.5t72.5 176.5l185 878l-119 35l31 139h352l-232 -1073q-35 -164 -128 -247t-269 -132zM293 1339q0 63 42 106.5t103.5 43.5t104.5 -43t43 -107q0 -61 -43 -104t-107 -43q-59 0 -101 43t-42 104z" />
<glyph unicode="k" horiz-adv-x="1044" d="M59 0l281 1315l-119 37l31 139h350l-317 -1491h-226zM436 563l406 473h231l-416 -467l140 -376q14 -45 71 -46h82v-108q-109 -66 -186 -66q-63 0 -103 35t-65 107z" />
<glyph unicode="l" horiz-adv-x="573" d="M76 115q0 37 10 88l242 1112l-117 37l29 139h352l-264 -1210q-16 -72 -17 -99q0 -35 39 -35h99v-110q-119 -63 -216 -64q-157 1 -157 142z" />
<glyph unicode="m" horiz-adv-x="1576" d="M70 0l184 862l-119 35l31 139h289v-147q141 174 309 174q166 0 188 -174q143 174 314 174q94 0 146 -57.5t54 -165.5q0 -41 -12 -103l-98 -456q-18 -82 -19 -99q0 -35 41 -35h99v-110q-119 -63 -215 -64q-160 0 -160 142q0 27 12 88l111 520q8 49 8 68q0 80 -78 79 q-47 0 -88 -22.5t-106 -75.5l-164 -772h-228l156 723q8 49 8 68q0 80 -78 79q-49 0 -90 -22.5t-104 -75.5l-164 -772h-227z" />
<glyph unicode="n" horiz-adv-x="1105" d="M70 0l184 862l-119 35l31 139h289v-147q63 78 153 126t178 48q205 0 205 -225q0 -43 -10 -101l-98 -456q-14 -72 -15 -97q0 -37 45 -37h93v-110q-104 -61 -209 -62q-164 0 -164 144q0 29 14 108l105 496q8 45 8 63q0 86 -90 86q-86 0 -209 -102l-164 -770h-227z" />
<glyph unicode="o" horiz-adv-x="1044" d="M80 369q0 137 42 285.5t105 234.5q127 174 361 174q178 0 277.5 -101.5t99.5 -293.5q0 -135 -43 -285t-107 -233q-127 -176 -358 -177q-180 0 -278.5 101.5t-98.5 294.5zM309 307q0 -98 36 -142t112 -44q72 0 116.5 47t94.5 188q68 193 67 373q0 98 -35.5 142t-111.5 44 q-74 0 -118 -47t-93 -188q-68 -195 -68 -373z" />
<glyph unicode="p" horiz-adv-x="1128" d="M-137 -403l26 122l127 19l238 1124l-119 35l31 139h289v-149q63 80 158.5 128t177.5 48q258 0 258 -311q0 -188 -57.5 -384t-172.5 -300q-102 -94 -258 -95q-168 0 -242 117l-75 -352l121 -19l-27 -122h-475zM346 211q76 -84 176.5 -84t153.5 84q53 80 95 261t42 288 q0 68 -28.5 98.5t-92.5 30.5q-98 0 -223 -113z" />
<glyph unicode="q" horiz-adv-x="1077" d="M80 297q0 188 61.5 386t175.5 296q98 84 236 84q154 0 252 -123l53 96h186l-276 -1298l119 -19l-27 -122h-469l25 122l129 19l80 371q-152 -135 -291 -136q-117 0 -185.5 80t-68.5 244zM317 299q0 -154 113 -154q84 0 219 111l117 555q-74 90 -178 90q-109 0 -164 -125 q-39 -86 -73 -232.5t-34 -244.5z" />
<glyph unicode="r" horiz-adv-x="751" d="M70 0l184 862l-119 35l31 139h289v-186q80 111 154.5 161t176.5 50l-26 -238q-21 2 -42 2q-45 0 -87 -9q-61 -13 -96 -30.5t-80 -48.5l-158 -737h-227z" />
<glyph unicode="s" horiz-adv-x="868" d="M12 76l43 227h158v-162q55 -31 137 -30q184 0 185 159q0 61 -32 98.5t-120 71.5q-123 49 -179.5 115t-56.5 172q0 158 96.5 247t278.5 89q166 0 299 -80l-47 -238h-153v156q-49 23 -109 23q-70 0 -113 -36t-43 -104q0 -51 30 -86.5t108 -64.5q139 -55 200.5 -125 t61.5 -176q0 -182 -109.5 -270.5t-300.5 -88.5q-217 1 -334 103z" />
<glyph unicode="t" horiz-adv-x="643" d="M94 154q0 51 12 104l132 621h-111l35 157h110l58 260l231 45l-63 -305h202l-34 -157h-201l-131 -613q-8 -49 -8 -59q0 -66 98 -66q41 0 96 11v-123q-131 -55 -229 -56q-86 0 -141.5 45.5t-55.5 135.5z" />
<glyph unicode="u" horiz-adv-x="1101" d="M94 182q0 53 12 111l121 571l-114 29l28 143h353l-152 -725q-10 -45 -10 -75q0 -86 82 -86q84 0 213 94l168 792h231l-160 -755q-18 -82 -18 -99q0 -35 41 -35h98v-110q-119 -63 -217 -64q-141 0 -145 150q-164 -150 -314 -150q-100 0 -158.5 54.5t-58.5 154.5z" />
<glyph unicode="v" horiz-adv-x="929" d="M37 897l29 139h301l39 -501q8 -89 8 -171t-8 -157h2q43 162 116 305l262 524h211l-551 -1036h-202l-84 862z" />
<glyph unicode="w" horiz-adv-x="1382" d="M37 897l29 139h301l16 -491q1 -46 1 -88q0 -126 -9 -213h2q29 129 92 268l227 524h222l16 -520q1 -32 1 -63q0 -109 -11 -205h2q31 121 94 268l227 520h205l-485 -1036h-205l-19 487q-2 53 -1 106q0 122 10 241h-2q-35 -156 -107 -326l-221 -508h-223l-45 862z" />
<glyph unicode="x" horiz-adv-x="978" d="M-37 0l430 559l-110 303l-119 35l29 139h274l100 -338h4l248 338h219l-403 -520l113 -323q14 -45 71 -46h78v-108q-102 -66 -184 -66q-66 0 -102 34t-60 108l-86 266h-4l-281 -381h-217z" />
<glyph unicode="y" horiz-adv-x="937" d="M-88 -242q150 23 237 73t156 169h-65l-72 862l-123 35l31 139h301l31 -520q5 -97 4 -174q0 -93 -6 -158h2q43 143 110 283l279 569h211l-551 -1065q-100 -193 -202.5 -276.5t-266.5 -116.5z" />
<glyph unicode="z" horiz-adv-x="899" d="M-6 0l29 154l600 739h-289l-62 -141h-147l49 284h725l-27 -155l-600 -738h334l60 144h147l-55 -287h-764z" />
<glyph unicode="{" horiz-adv-x="724" d="M78 553l28 139q92 0 132.5 31t60.5 121l100 461q31 143 106 202.5t193 59.5h164l-31 -137h-100q-53 0 -76.5 -33t-40.5 -113l-100 -457q-23 -102 -74 -146t-137 -56v-4q129 -29 129 -146q0 -31 -10 -82l-92 -444q-8 -35 -8 -66q0 -37 17 -52t60 -15h88l-28 -140h-115 q-106 0 -172 50.5t-66 156.5q0 43 9 86l90 426q8 31 8 62q0 53 -28.5 74.5t-106.5 21.5z" />
<glyph unicode="|" horiz-adv-x="542" d="M20 -311l398 1876h172l-400 -1876h-170z" />
<glyph unicode="}" horiz-adv-x="724" d="M-82 -324l29 138h102q51 0 76 33.5t41 111.5l98 459q23 100 75 144t138 56v5q-129 31 -129 147q0 29 10 80l93 446q8 49 8 66q0 68 -78 68h-88l29 137h114q106 0 172 -50.5t66 -154.5q0 -45 -8 -86l-93 -426q-6 -37 -6 -62q0 -53 29 -74.5t106 -21.5l-28 -141 q-92 0 -133 -31t-62 -119l-98 -462q-31 -143 -105.5 -203t-195.5 -60h-162z" />
<glyph unicode="~" horiz-adv-x="1050" d="M98 582q129 240 297 239q72 0 156 -43t123 -43q55 0 129 103l139 -84q-131 -238 -297 -238q-72 0 -155.5 43t-122.5 43q-33 0 -60.5 -24.5t-70.5 -79.5z" />
<glyph unicode="&#xa1;" horiz-adv-x="579" d="M-37 -373l283 989h153l-155 -989h-281zM219 909.5q0 65.5 44 109.5t107.5 44t107.5 -45t44 -108.5t-44 -108.5t-107.5 -45t-107.5 44t-44 109.5z" />
<glyph unicode="&#xa2;" horiz-adv-x="946" d="M94 367q0 135 45 286.5t111 243.5q106 150 332 164l53 246h145l-53 -252q125 -23 207 -78l-45 -234h-156v160q-10 6 -35 15l-166 -779q115 6 232 78l47 -121q-109 -106 -313 -121l-52 -245h-145l53 254q-260 53 -260 383zM332 342q0 -125 61 -172l158 739 q-84 -33 -129 -139q-37 -86 -63.5 -213t-26.5 -215z" />
<glyph unicode="&#xa3;" horiz-adv-x="1071" d="M2 0l43 199q250 115 250 333q0 27 -2 41h-170l35 168h110q-12 90 -12 140q0 223 130 337.5t341 114.5q219 0 371 -112l-58 -269h-153l-15 189q-57 33 -147 33q-109 0 -164 -73t-55 -200q0 -66 14 -160h326l-35 -168h-276q-2 -246 -248 -374h458l72 135h152l-72 -334h-895 z" />
<glyph unicode="&#xa4;" horiz-adv-x="1200" d="M35 264l186 164q-16 51 -16 135q0 184 86 328l-125 156l176 147l109 -139q106 66 245 65q127 0 224 -73l161 143l131 -154l-182 -162q16 -53 17 -124q0 -186 -91 -340l125 -156l-174 -148q-14 16 -43.5 53.5t-48.5 61.5l-20 25q-106 -66 -244 -62q-129 0 -219 72 l-166 -145zM432 516q0 -170 139 -170q92 0 147.5 70.5t84.5 230.5q14 90 14 139q0 168 -139 172q-92 0 -147.5 -69.5t-84.5 -231.5q-14 -92 -14 -141z" />
<glyph unicode="&#xa5;" horiz-adv-x="1224" d="M78 332l31 147h354l8 37l-33 115h-299l33 147h223l-110 381l-105 19l27 133h506l-27 -133l-139 -19l69 -280q29 -119 33 -230h6q43 102 121 217l195 293l-131 19l28 133h447l-29 -133l-115 -19l-268 -381h240l-33 -147h-309l-82 -117l-8 -35h368l-32 -147h-367l-37 -182 l141 -23l-26 -127h-537l25 127l147 23l39 182h-354z" />
<glyph unicode="&#xa6;" horiz-adv-x="542" d="M20 -311l170 800h170l-170 -800h-170zM248 762l170 803h172l-170 -803h-172z" />
<glyph unicode="&#xa7;" horiz-adv-x="1114" d="M35 -238l43 234h155v-164q74 -43 162 -43q80 0 131.5 44t51.5 116q0 41 -13.5 70.5t-51.5 57t-63.5 42t-91.5 47.5q-139 70 -209.5 145.5t-70.5 198.5q0 246 274 309q-63 78 -63 176q0 154 104.5 246t282.5 92q180 0 330 -96l-48 -238h-155l2 160q-53 35 -131 35 q-82 0 -123 -45t-41 -113q0 -61 45 -96t154 -86q147 -72 225 -147.5t78 -204.5q0 -254 -281 -316q74 -80 74 -182q0 -170 -116 -262t-296 -92q-104 0 -203.5 33.5t-154.5 78.5zM301 555q0 -63 44 -104t157 -103l106 -57q176 29 176 166q0 59 -46 102t-140 92l-129 66 q-168 -29 -168 -162z" />
<glyph unicode="&#xa8;" d="M272 1298.5q0 57.5 40 98.5t94 41q55 0 96 -41t41 -99q0 -55 -41 -96t-94 -41q-55 0 -95.5 40t-40.5 97.5zM684 1298.5q0 57.5 40 98.5t93 41q55 0 96 -41t41 -98.5t-41 -97.5t-94 -40t-94 40t-41 97.5z" />
<glyph unicode="&#xa9;" horiz-adv-x="1492" d="M135 575q0 184 62.5 368.5t167.5 307.5q205 240 516 240q274 0 426.5 -166t152.5 -442q0 -184 -63.5 -368.5t-167.5 -307.5q-205 -240 -516 -240q-272 0 -425 166t-153 442zM258 578q0 -231 123 -371.5t342 -140.5q252 0 420 215q86 109 139 275.5t53 324.5 q0 231 -121.5 370.5t-341.5 139.5q-254 0 -421 -211q-86 -109 -139.5 -276.5t-53.5 -325.5zM436 580q0 135 45 271t109 208q109 129 293 129q164 0 260 -78l-49 -215h-125v141q-41 23 -88 23q-90 0 -144 -113q-94 -215 -94 -385q0 -166 113 -166q53 0 92 17l63 141h133 l-51 -217q-100 -68 -254 -68q-143 0 -223 78t-80 234z" />
<glyph unicode="&#xaa;" horiz-adv-x="1032" d="M117 643q0 111 23.5 224.5t70.5 222t134 176t200 67.5q125 0 213 -110l51 86h170l-143 -668q-14 -72 -15 -90q0 -33 35 -33h88v-110q-113 -57 -196 -58q-129 0 -134 148q-131 -147 -268 -148q-104 0 -166.5 71.5t-62.5 221.5zM334 649q0 -137 102 -137q20 0 41 6 t42.5 19.5t33.5 22.5t35.5 27.5t29.5 24.5l107 490q-72 82 -150 82q-72 0 -116.5 -63.5t-83.5 -213.5q-41 -154 -41 -258z" />
<glyph unicode="&#xab;" horiz-adv-x="1089" d="M96 524l414 463l100 -106l-270 -373l119 -393l-131 -74zM516 524l412 463l102 -106l-270 -373l119 -393l-131 -74z" />
<glyph unicode="&#xac;" horiz-adv-x="1005" d="M154 584l41 180h704l-100 -475h-193l62 295h-514z" />
<glyph unicode="&#xad;" horiz-adv-x="634" d="M78 457l47 213h432l-45 -213h-434z" />
<glyph unicode="&#xae;" horiz-adv-x="1085" d="M143 819q0 156 62.5 300.5t163.5 230.5q137 117 309 116q193 0 307.5 -123.5t114.5 -328.5q0 -156 -62.5 -300.5t-163.5 -230.5q-137 -115 -309 -114q-195 0 -308.5 122.5t-113.5 327.5zM256 805q0 -160 79 -252t234 -92q143 0 254 106q74 74 118 202t44 259 q0 160 -79 252t-232 92q-150 0 -252 -108q-76 -72 -121 -199t-45 -260zM330 643l16 76l47 10l88 401l-41 11l17 78h237q172 0 172 -140q0 -86 -47 -130t-119 -48v-6q53 -10 72 -90l19 -78l43 -8l-17 -76h-151l-31 145q-8 31 -12.5 43.5t-14.5 21.5t-28 9h-25l-29 -133 l39 -10l-16 -76h-219zM573 946h52q43 0 69 25q35 39 35 98q0 63 -57 64h-56z" />
<glyph unicode="&#xaf;" d="M330 1257l37 175h530l-37 -175h-530z" />
<glyph unicode="&#xb0;" horiz-adv-x="813" d="M164 1030q0 182 110 303q96 100 250 101q137 0 214 -81t79 -216q0 -172 -90 -281q-102 -125 -270 -125q-135 0 -214 81t-79 218zM342 1008q0 -141 121 -142q84 0 123 74q51 78 51 213q0 143 -119 143q-72 0 -106 -45q-29 -35 -49.5 -107.5t-20.5 -135.5z" />
<glyph unicode="&#xb1;" horiz-adv-x="1118" d="M23 47l38 178h840l-37 -178h-841zM147 625l39 176h324l63 301h193l-66 -301h324l-37 -176h-323l-62 -285h-192l63 285h-326z" />
<glyph unicode="&#xb2;" horiz-adv-x="782" d="M57 516l35 160q283 186 378 284.5t95 194.5q0 51 -28.5 83t-83.5 32q-78 0 -187 -60l-55 115q139 106 297 107q127 0 202.5 -70t75.5 -182q0 -137 -117.5 -251t-383.5 -255h436l-33 -158h-631z" />
<glyph unicode="&#xb3;" horiz-adv-x="729" d="M49 569l31 127q117 -49 227 -49q186 0 187 172q0 57 -36 82t-114 25h-76l31 127h70q90 0 132 30.5t42 98.5q0 96 -133 96q-90 0 -170 -43l-54 117q123 80 281 80q123 0 205 -58.5t82 -161.5q0 -86 -52.5 -144t-144.5 -75q68 -23 109 -74t41 -112q0 -143 -99.5 -223 t-275.5 -80q-152 -1 -283 65z" />
<glyph unicode="&#xb4;" d="M326 1278l413 281l103 -199l-453 -199z" />
<glyph unicode="&#xb5;" horiz-adv-x="1101" d="M-43 -403l270 1267l-114 29l28 143h353l-152 -725q-10 -45 -10 -75q0 -86 82 -86q84 0 213 94l168 792h231l-160 -755q-18 -82 -18 -99q0 -35 41 -35h98v-110q-119 -63 -217 -64q-141 0 -145 150q-78 -74 -144.5 -112t-150.5 -38q-29 0 -66 9l-76 -385h-231z" />
<glyph unicode="&#xb6;" horiz-adv-x="1302" d="M207 1010q0 203 128 305t341 102h688l-29 -133l-147 -24l-305 -1438h-193l305 1438h-155l-305 -1438h-193l186 885h-6q-145 0 -230 84t-85 219z" />
<glyph unicode="&#xb7;" horiz-adv-x="563" d="M145 671.5q0 65.5 46.5 111.5t112 46t111.5 -46t46 -111.5t-46 -112.5t-111.5 -47t-112 47t-46.5 112.5z" />
<glyph unicode="&#xb8;" d="M238 -391l51 90q55 -33 110 -33q82 0 82 80q0 61 -78 61q-37 0 -69 -8l135 230h117l-86 -140q131 -23 131 -147q0 -80 -53.5 -134t-167.5 -54q-92 0 -172 55z" />
<glyph unicode="&#xb9;" horiz-adv-x="688" d="M94 516l25 119l174 27l106 497l-180 -51l-33 100l324 209h141l-162 -755l158 -27l-24 -119h-529z" />
<glyph unicode="&#xba;" horiz-adv-x="970" d="M117 711q0 123 38 256t95 209q115 158 325 157q162 0 252.5 -93t90.5 -263q0 -121 -38 -255t-96 -210q-119 -160 -325 -160q-162 0 -252 94.5t-90 264.5zM328 668q0 -90 31.5 -129t101.5 -39q55 0 91 23.5t66 88.5q29 63 60 196.5t31 213.5q0 90 -33 128t-103 38 q-55 0 -91 -23.5t-64 -87.5q-31 -61 -60.5 -195t-29.5 -214z" />
<glyph unicode="&#xbb;" horiz-adv-x="1089" d="M49 145l270 375l-118 393l131 74l231 -483l-413 -463zM469 145l270 375l-118 393l131 74l231 -483l-414 -463z" />
<glyph unicode="&#xbc;" horiz-adv-x="1886" d="M94 516l25 119l174 27l106 497l-180 -51l-33 100l324 209h141l-162 -755l158 -27l-24 -119h-529zM354 -68l1055 1479h184l-1054 -1479h-185zM993 84l31 141l401 568h189l-395 -568h251l68 316l201 32l-74 -348h107l-31 -141h-107l-41 -193h-192l39 193h-447z" />
<glyph unicode="&#xbd;" horiz-adv-x="1925" d="M94 516l25 119l174 27l106 497l-180 -51l-33 100l324 209h141l-162 -755l158 -27l-24 -119h-529zM354 -68l1055 1479h184l-1054 -1479h-185zM1087 -109l33 160q283 186 379 284.5t96 194.5q0 51 -28.5 83t-83.5 32q-78 0 -187 -59l-55 114q135 106 295 107 q129 0 204 -69.5t75 -182.5q0 -137 -118 -251t-384 -255h436l-33 -158h-629z" />
<glyph unicode="&#xbe;" horiz-adv-x="1878" d="M49 569l31 127q117 -49 227 -49q186 0 187 172q0 57 -36 82t-114 25h-76l31 127h70q90 0 132 30.5t42 98.5q0 96 -133 96q-90 0 -170 -43l-54 117q123 80 281 80q123 0 205 -58.5t82 -161.5q0 -86 -52.5 -144t-144.5 -75q68 -23 109 -74t41 -112q0 -143 -99.5 -223 t-275.5 -80q-152 -1 -283 65zM348 -68l1057 1479h184l-1057 -1479h-184zM985 84l31 141l401 568h189l-394 -568h250l68 316l201 32l-74 -348h106l-28 -141h-109l-39 -193h-194l39 193h-447z" />
<glyph unicode="&#xbf;" horiz-adv-x="917" d="M27 -94.5q0 149.5 74.5 236.5t230.5 171q66 35 101.5 76t49.5 111l25 116h176l-37 -176q-25 -115 -73 -176t-132 -108q-100 -57 -138 -106.5t-38 -135.5q0 -158 142 -158q59 0 118 25l92 153h136l-58 -258q-143 -76 -321 -75q-166 0 -257 77.5t-91 227zM485 909.5 q0 65.5 44 109.5t107.5 44t107.5 -45t44 -108.5t-44 -108.5t-107.5 -45t-107.5 44t-44 109.5z" />
<glyph unicode="&#xc0;" horiz-adv-x="1216" d="M-123 0l27 127l131 20l647 1270h231l129 -1270l119 -20l-26 -127h-514l26 127l146 20l-23 261h-412l-127 -261l146 -20l-27 -127h-473zM430 557h326l-23 270q-20 207 -10 367h-2q-41 -121 -158 -369zM551 1694l137 186l352 -278l-82 -111z" />
<glyph unicode="&#xc1;" horiz-adv-x="1216" d="M-123 0l27 127l131 20l647 1270h231l129 -1270l119 -20l-26 -127h-514l26 127l146 20l-23 261h-412l-127 -261l146 -20l-27 -127h-473zM430 557h326l-23 270q-20 207 -10 367h-2q-41 -121 -158 -369zM571 1620l414 283l102 -199l-452 -201z" />
<glyph unicode="&#xc2;" horiz-adv-x="1216" d="M-123 0l27 127l131 20l647 1270h231l129 -1270l119 -20l-26 -127h-514l26 127l146 20l-23 261h-412l-127 -261l146 -20l-27 -127h-473zM430 557h326l-23 270q-20 207 -10 367h-2q-41 -121 -158 -369zM528 1585l293 275h133l197 -275l-86 -88l-201 164l-274 -164z" />
<glyph unicode="&#xc3;" horiz-adv-x="1216" d="M-123 0l27 127l131 20l647 1270h231l129 -1270l119 -20l-26 -127h-514l26 127l146 20l-23 261h-412l-127 -261l146 -20l-27 -127h-473zM430 557h326l-23 270q-20 207 -10 367h-2q-41 -121 -158 -369zM489 1595q102 197 240 197q61 0 129 -38t103 -38q53 0 120 82l99 -78 q-102 -197 -238 -196q-61 0 -130 37.5t-101 37.5q-51 0 -121 -83z" />
<glyph unicode="&#xc4;" horiz-adv-x="1216" d="M-123 0l27 127l131 20l647 1270h231l129 -1270l119 -20l-26 -127h-514l26 127l146 20l-23 261h-412l-127 -261l146 -20l-27 -127h-473zM430 557h326l-23 270q-20 207 -10 367h-2q-41 -121 -158 -369zM487 1654.5q0 57.5 40 97.5t94 40q55 0 96 -41t41 -96q0 -57 -41 -98 t-94 -41q-55 0 -95.5 40.5t-40.5 98zM899 1654.5q0 57.5 40 97.5t93 40q55 0 96 -40t41 -97.5t-39.5 -98t-95 -40.5t-95.5 40.5t-40 98z" />
<glyph unicode="&#xc5;" horiz-adv-x="1216" d="M-123 0l27 127l131 20l647 1270h231l129 -1270l119 -20l-26 -127h-514l26 127l146 20l-23 261h-412l-127 -261l146 -20l-27 -127h-473zM430 557h326l-23 270q-20 207 -10 367h-2q-41 -121 -158 -369zM627 1671q0 33 8 72q16 80 77.5 130t149.5 50q92 0 146.5 -54 t54.5 -136q0 -35 -8 -74q-16 -80 -76.5 -130t-149.5 -50q-94 0 -148 55t-54 137zM760 1665q0 -80 71 -80q76 0 95 101q4 41 4 49q0 82 -72 82q-76 0 -92 -101q-6 -28 -6 -51z" />
<glyph unicode="&#xc6;" horiz-adv-x="1689" d="M-123 0l27 127l131 20l770 1113l-135 24l28 133h1088l-74 -340h-149l6 187h-328l-94 -455h227l60 119h116l-84 -391h-116l-7 120h-229l-108 -503h348l82 194h151l-71 -348h-926l26 127l144 23l57 272h-397l-189 -275l146 -20l-27 -127h-473zM524 573h326l88 410 q31 141 70 281h-4z" />
<glyph unicode="&#xc7;" horiz-adv-x="1091" d="M104 426q0 217 79 465t204 377q176 176 428 176q229 0 348 -96l-57 -293h-152l-4 207q-53 27 -145 26q-180 0 -279 -188q-63 -119 -118.5 -351.5t-55.5 -381.5q0 -127 52.5 -182.5t164.5 -55.5q104 0 179 33l88 198h151l-65 -307q-133 -72 -349 -80l-51 -84 q131 -23 131 -147q0 -80 -53 -134t-168 -54q-92 0 -172 55l51 90q55 -33 111 -33q82 0 82 80q0 61 -78 61q-37 0 -70 -8l105 178q-172 20 -264.5 134t-92.5 315z" />
<glyph unicode="&#xc8;" horiz-adv-x="1073" d="M-29 0l27 127l145 23l236 1110l-135 24l28 133h897l-75 -340h-148l4 187h-325l-95 -455h228l57 119h117l-82 -391h-119l-6 120h-227l-111 -503h350l80 194h152l-72 -348h-926zM518 1694l137 186l353 -278l-82 -111z" />
<glyph unicode="&#xc9;" horiz-adv-x="1073" d="M-29 0l27 127l145 23l236 1110l-135 24l28 133h897l-75 -340h-148l4 187h-325l-95 -455h228l57 119h117l-82 -391h-119l-6 120h-227l-111 -503h350l80 194h152l-72 -348h-926zM549 1620l414 283l102 -199l-453 -201z" />
<glyph unicode="&#xca;" horiz-adv-x="1073" d="M-29 0l27 127l145 23l236 1110l-135 24l28 133h897l-75 -340h-148l4 187h-325l-95 -455h228l57 119h117l-82 -391h-119l-6 120h-227l-111 -503h350l80 194h152l-72 -348h-926zM451 1585l292 275h134l196 -275l-86 -88l-201 164l-274 -164z" />
<glyph unicode="&#xcb;" horiz-adv-x="1073" d="M-29 0l27 127l145 23l236 1110l-135 24l28 133h897l-75 -340h-148l4 187h-325l-95 -455h228l57 119h117l-82 -391h-119l-6 120h-227l-111 -503h350l80 194h152l-72 -348h-926zM438 1663q0 57 40 97t93 40q55 0 96.5 -41t41.5 -96q0 -57 -41 -98t-95 -41q-55 0 -95 41 t-40 98zM850 1663q0 57 40 97t93 40q55 0 96 -40t41 -97t-40 -98t-95 -41t-95 41t-40 98z" />
<glyph unicode="&#xcc;" horiz-adv-x="677" d="M-29 0l27 127l145 23l236 1110l-135 24l28 133h529l-29 -133l-147 -24l-236 -1110l135 -23l-26 -127h-527zM330 1694l137 186l352 -278l-82 -111z" />
<glyph unicode="&#xcd;" horiz-adv-x="677" d="M-29 0l27 127l145 23l236 1110l-135 24l28 133h529l-29 -133l-147 -24l-236 -1110l135 -23l-26 -127h-527zM338 1620l414 283l102 -199l-453 -201z" />
<glyph unicode="&#xce;" horiz-adv-x="677" d="M-29 0l27 127l145 23l236 1110l-135 24l28 133h529l-29 -133l-147 -24l-236 -1110l135 -23l-26 -127h-527zM260 1585l293 275h133l197 -275l-86 -88l-201 164l-274 -164z" />
<glyph unicode="&#xcf;" horiz-adv-x="677" d="M-29 0l27 127l145 23l236 1110l-135 24l28 133h529l-29 -133l-147 -24l-236 -1110l135 -23l-26 -127h-527zM240 1654.5q0 57.5 39.5 97.5t93.5 40q55 0 96 -41t41 -96q0 -57 -41 -98t-94 -41q-55 0 -95 40.5t-40 98zM651 1654.5q0 57.5 40 97.5t93 40q55 0 96.5 -40 t41.5 -97.5t-40 -98t-95.5 -40.5t-95.5 40.5t-40 98z" />
<glyph unicode="&#xd0;" horiz-adv-x="1304" d="M-29 0l27 127l145 23l109 509h-137l30 152h138l96 449l-135 24l28 133h535q223 0 345 -111.5t122 -342.5q0 -139 -37 -316.5t-90 -300.5q-84 -195 -231.5 -270.5t-360.5 -75.5h-584zM389 152h160q139 0 226 57t134 192q41 117 77 288t36 286q0 147 -60.5 218t-185.5 71 h-151l-97 -453h228l-33 -152h-227z" />
<glyph unicode="&#xd1;" horiz-adv-x="1343" d="M-29 0l27 127l145 23l236 1110l-135 24l28 133h359l243 -733q68 -203 84 -358h5q25 236 61 407l109 527l-136 24l29 133h461l-27 -133l-147 -24l-269 -1260h-180l-262 760q-68 193 -90 366h-4q-12 -168 -64 -405l-120 -571l137 -23l-27 -127h-463zM586 1595 q102 197 239 197q61 0 129 -38t103 -38q53 0 121 82l98 -78q-102 -197 -238 -196q-61 0 -129.5 37.5t-101.5 37.5q-51 0 -121 -83z" />
<glyph unicode="&#xd2;" horiz-adv-x="1271" d="M104 428q0 221 72 458.5t195 373.5q170 184 432 184q215 0 326.5 -115t111.5 -332q0 -221 -71.5 -461.5t-192.5 -377.5q-166 -184 -432 -185q-441 0 -441 455zM348 371q0 -238 209 -238q162 0 258 172q63 117 121.5 357.5t58.5 384.5q0 236 -204 235q-166 0 -261 -170 q-63 -115 -122.5 -356.5t-59.5 -384.5zM614 1694l138 186l352 -278l-82 -111z" />
<glyph unicode="&#xd3;" horiz-adv-x="1271" d="M104 428q0 221 72 458.5t195 373.5q170 184 432 184q215 0 326.5 -115t111.5 -332q0 -221 -71.5 -461.5t-192.5 -377.5q-166 -184 -432 -185q-441 0 -441 455zM348 371q0 -238 209 -238q162 0 258 172q63 117 121.5 357.5t58.5 384.5q0 236 -204 235q-166 0 -261 -170 q-63 -115 -122.5 -356.5t-59.5 -384.5zM616 1620l414 283l103 -199l-453 -201z" />
<glyph unicode="&#xd4;" horiz-adv-x="1271" d="M104 428q0 221 72 458.5t195 373.5q170 184 432 184q215 0 326.5 -115t111.5 -332q0 -221 -71.5 -461.5t-192.5 -377.5q-166 -184 -432 -185q-441 0 -441 455zM348 371q0 -238 209 -238q162 0 258 172q63 117 121.5 357.5t58.5 384.5q0 236 -204 235q-166 0 -261 -170 q-63 -115 -122.5 -356.5t-59.5 -384.5zM545 1585l293 275h133l196 -275l-86 -88l-200 164l-275 -164z" />
<glyph unicode="&#xd5;" horiz-adv-x="1271" d="M104 428q0 221 72 458.5t195 373.5q170 184 432 184q215 0 326.5 -115t111.5 -332q0 -221 -71.5 -461.5t-192.5 -377.5q-166 -184 -432 -185q-441 0 -441 455zM348 371q0 -238 209 -238q162 0 258 172q63 117 121.5 357.5t58.5 384.5q0 236 -204 235q-166 0 -261 -170 q-63 -115 -122.5 -356.5t-59.5 -384.5zM520 1595q102 197 240 197q61 0 128.5 -38t102.5 -38q53 0 121 82l98 -78q-102 -197 -237 -196q-61 0 -130 37.5t-102 37.5q-51 0 -120 -83z" />
<glyph unicode="&#xd6;" horiz-adv-x="1271" d="M104 428q0 221 72 458.5t195 373.5q170 184 432 184q215 0 326.5 -115t111.5 -332q0 -221 -71.5 -461.5t-192.5 -377.5q-166 -184 -432 -185q-441 0 -441 455zM348 371q0 -238 209 -238q162 0 258 172q63 117 121.5 357.5t58.5 384.5q0 236 -204 235q-166 0 -261 -170 q-63 -115 -122.5 -356.5t-59.5 -384.5zM526 1654.5q0 57.5 40 97.5t93 40q55 0 96.5 -41t41.5 -96q0 -57 -41 -98t-94 -41q-55 0 -95.5 40.5t-40.5 98zM938 1654.5q0 57.5 40 97.5t93 40q55 0 96 -40t41 -97.5t-40 -98t-95 -40.5t-95 40.5t-40 98z" />
<glyph unicode="&#xd7;" horiz-adv-x="1093" d="M96 326l334 288l-235 283l141 121l233 -283l322 287l110 -137l-323 -283l231 -283l-137 -122l-237 284l-328 -288z" />
<glyph unicode="&#xd8;" horiz-adv-x="1271" d="M-6 -84l174 231q-63 106 -64 281q0 221 72 458.5t195 373.5q170 184 432 184q174 0 282 -78l154 205l115 -90l-170 -226q57 -109 57 -258q0 -221 -71.5 -461.5t-192.5 -377.5q-166 -184 -432 -185q-172 0 -275 70l-161 -215zM346 383l617 821q-53 78 -172 78 q-168 0 -263 -170q-66 -121 -123 -348t-59 -381zM389 203q51 -70 168 -70q164 0 262 172q63 115 118.5 332t61.5 375z" />
<glyph unicode="&#xd9;" horiz-adv-x="1294" d="M139 270q0 74 19 166l174 824l-135 24l28 133h381l-211 -995q-14 -72 -14 -119q0 -76 35 -110.5t110 -34.5q152 0 289 102l213 1000l-135 24l29 133h381l-271 -1267l133 -23l-26 -127h-303l-15 123q-166 -150 -368 -150q-147 0 -230.5 72.5t-83.5 224.5zM567 1694 l138 186l352 -278l-82 -111z" />
<glyph unicode="&#xda;" horiz-adv-x="1294" d="M139 270q0 74 19 166l174 824l-135 24l28 133h381l-211 -995q-14 -72 -14 -119q0 -76 35 -110.5t110 -34.5q152 0 289 102l213 1000l-135 24l29 133h381l-271 -1267l133 -23l-26 -127h-303l-15 123q-166 -150 -368 -150q-147 0 -230.5 72.5t-83.5 224.5zM582 1620 l413 283l103 -199l-453 -201z" />
<glyph unicode="&#xdb;" horiz-adv-x="1294" d="M139 270q0 74 19 166l174 824l-135 24l28 133h381l-211 -995q-14 -72 -14 -119q0 -76 35 -110.5t110 -34.5q152 0 289 102l213 1000l-135 24l29 133h381l-271 -1267l133 -23l-26 -127h-303l-15 123q-166 -150 -368 -150q-147 0 -230.5 72.5t-83.5 224.5zM539 1585 l292 275h134l196 -275l-86 -88l-201 164l-274 -164z" />
<glyph unicode="&#xdc;" horiz-adv-x="1294" d="M139 270q0 74 19 166l174 824l-135 24l28 133h381l-211 -995q-14 -72 -14 -119q0 -76 35 -110.5t110 -34.5q152 0 289 102l213 1000l-135 24l29 133h381l-271 -1267l133 -23l-26 -127h-303l-15 123q-166 -150 -368 -150q-147 0 -230.5 72.5t-83.5 224.5zM485 1654.5 q0 57.5 40 97.5t93 40q55 0 96.5 -41t41.5 -96q0 -57 -41 -98t-94 -41q-55 0 -95.5 40.5t-40.5 98zM897 1654.5q0 57.5 40 97.5t93 40q55 0 96 -40t41 -97.5t-40 -98t-95 -40.5t-95 40.5t-40 98z" />
<glyph unicode="&#xdd;" horiz-adv-x="1138" d="M182 1284l29 133h496l-29 -133l-143 -18l81 -326q27 -109 27 -238h6q35 90 119 224l221 342l-127 16l29 133h434l-29 -133l-110 -18l-473 -688l-90 -428l137 -23l-27 -127h-528l26 127l148 23l90 428l-184 688zM580 1620l413 283l103 -199l-453 -201z" />
<glyph unicode="&#xde;" horiz-adv-x="1142" d="M-29 0l27 127l145 23l236 1110l-135 24l28 133h529l-29 -133l-147 -24l-31 -125h162q401 0 405 -330q0 -289 -205 -424q-115 -90 -342 -90h-196l-29 -141l193 -23l-29 -127h-582zM451 442h147q139 0 205 64q104 104 104 311q0 86 -46 125t-140 39h-156z" />
<glyph unicode="&#xdf;" horiz-adv-x="1097" d="M-115 -307q43 35 70 62.5t56.5 89t45.5 145.5l166 872l-98 35l31 139h108l25 117q74 352 407 352q162 0 251 -85t89 -218q0 -82 -40 -146.5t-87 -98t-87 -73.5t-40 -79q0 -37 68 -109q72 -80 111.5 -152.5t39.5 -170.5q0 -193 -107.5 -296.5t-279.5 -103.5q-74 0 -136 25 t-91 57l41 117q84 -35 147 -35q94 0 146.5 60.5t52.5 167.5q0 102 -125 235q-80 90 -80 172q0 55 26 100.5t63.5 77t74.5 64.5t62.5 82t25.5 112q0 156 -129 156q-78 0 -121 -55.5t-69 -186.5l-232 -1165q-27 -135 -102.5 -219t-214.5 -150z" />
<glyph unicode="&#xe0;" horiz-adv-x="1112" d="M80 297q0 188 61.5 386t175.5 296q98 84 236 84q154 0 252 -123l53 96h186l-159 -755q-18 -82 -19 -99q0 -35 41 -35h99v-110q-119 -63 -215 -64q-76 0 -110 45t-36 113q-154 -158 -311 -158q-117 0 -185.5 80t-68.5 244zM317 299q0 -154 113 -154q82 0 217 111l119 555 q-74 90 -178 90q-109 0 -164 -125q-39 -86 -73 -232.5t-34 -244.5zM477 1366l135 184l353 -276l-82 -111z" />
<glyph unicode="&#xe1;" horiz-adv-x="1112" d="M80 297q0 188 61.5 386t175.5 296q98 84 236 84q154 0 252 -123l53 96h186l-159 -755q-18 -82 -19 -99q0 -35 41 -35h99v-110q-119 -63 -215 -64q-76 0 -110 45t-36 113q-154 -158 -311 -158q-117 0 -185.5 80t-68.5 244zM317 299q0 -154 113 -154q82 0 217 111l119 555 q-74 90 -178 90q-109 0 -164 -125q-39 -86 -73 -232.5t-34 -244.5zM465 1278l414 281l102 -199l-453 -199z" />
<glyph unicode="&#xe2;" horiz-adv-x="1112" d="M80 297q0 188 61.5 386t175.5 296q98 84 236 84q154 0 252 -123l53 96h186l-159 -755q-18 -82 -19 -99q0 -35 41 -35h99v-110q-119 -63 -215 -64q-76 0 -110 45t-36 113q-154 -158 -311 -158q-117 0 -185.5 80t-68.5 244zM317 299q0 -154 113 -154q82 0 217 111l119 555 q-74 90 -178 90q-109 0 -164 -125q-39 -86 -73 -232.5t-34 -244.5zM387 1255l293 275h133l199 -275l-86 -88l-203 164l-272 -164z" />
<glyph unicode="&#xe3;" horiz-adv-x="1112" d="M80 297q0 188 61.5 386t175.5 296q98 84 236 84q154 0 252 -123l53 96h186l-159 -755q-18 -82 -19 -99q0 -35 41 -35h99v-110q-119 -63 -215 -64q-76 0 -110 45t-36 113q-154 -158 -311 -158q-117 0 -185.5 80t-68.5 244zM317 299q0 -154 113 -154q82 0 217 111l119 555 q-74 90 -178 90q-109 0 -164 -125q-39 -86 -73 -232.5t-34 -244.5zM369 1257q104 195 237 195q61 0 130 -38t102 -38q51 0 120 84l101 -78q-102 -197 -240 -196q-61 0 -129.5 38t-101.5 38q-51 0 -121 -84z" />
<glyph unicode="&#xe4;" horiz-adv-x="1112" d="M80 297q0 188 61.5 386t175.5 296q98 84 236 84q154 0 252 -123l53 96h186l-159 -755q-18 -82 -19 -99q0 -35 41 -35h99v-110q-119 -63 -215 -64q-76 0 -110 45t-36 113q-154 -158 -311 -158q-117 0 -185.5 80t-68.5 244zM317 299q0 -154 113 -154q82 0 217 111l119 555 q-74 90 -178 90q-109 0 -164 -125q-39 -86 -73 -232.5t-34 -244.5zM369 1298.5q0 57.5 40 98.5t93 41q55 0 96 -41t41 -99q0 -55 -41 -96t-94 -41q-55 0 -95 40t-40 97.5zM780 1298.5q0 57.5 40 98.5t93 41q55 0 96.5 -41t41.5 -98.5t-40 -97.5t-95.5 -40t-95.5 40t-40 97.5 z" />
<glyph unicode="&#xe5;" horiz-adv-x="1112" d="M80 297q0 188 61.5 386t175.5 296q98 84 236 84q154 0 252 -123l53 96h186l-159 -755q-18 -82 -19 -99q0 -35 41 -35h99v-110q-119 -63 -215 -64q-76 0 -110 45t-36 113q-154 -158 -311 -158q-117 0 -185.5 80t-68.5 244zM317 299q0 -154 113 -154q82 0 217 111l119 555 q-74 90 -178 90q-109 0 -164 -125q-39 -86 -73 -232.5t-34 -244.5zM483 1348q0 37 9 71q16 80 77.5 131.5t149.5 51.5q92 0 146.5 -55.5t54.5 -137.5q0 -37 -9 -72q-16 -80 -77.5 -131t-147.5 -51q-94 0 -148.5 55.5t-54.5 137.5zM616 1343q0 -82 72 -81q76 0 92 100 q6 31 6 51q0 82 -71 82q-76 0 -92 -102q-7 -30 -7 -50z" />
<glyph unicode="&#xe6;" horiz-adv-x="1427" d="M25 250q0 182 129 263t393 81h61l21 96q10 45 10 76q0 57 -35 92t-102 35q-127 0 -271 -82l-65 127q174 125 381 125q186 0 250 -125q121 125 305 125q147 0 228 -72.5t81 -195.5q0 -90 -38 -152.5t-91 -96.5t-143 -52.5t-160 -23.5t-176 -5q-8 -61 -8 -96 q0 -109 52 -170.5t154 -61.5q121 0 250 90l52 -123q-123 -131 -365 -131q-238 0 -320 181q-135 -180 -329 -181q-123 0 -193.5 77t-70.5 200zM248 258q0 -121 102 -121q86 0 178 88l52 240h-27q-168 0 -236.5 -51.5t-68.5 -155.5zM823 592q84 2 130 6t99.5 16.5t79 33t44 58 t18.5 91.5q0 59 -28.5 91t-75.5 32q-111 0 -191 -142q-51 -90 -76 -186z" />
<glyph unicode="&#xe7;" horiz-adv-x="878" d="M80 367q0 135 45 286.5t113 243.5q121 166 378 166q180 0 289 -78l-45 -233h-155v159q-37 14 -89 15q-143 0 -208 -156q-37 -86 -64 -213t-27 -215q0 -203 179 -203q127 0 237 74l47 -121q-113 -111 -309 -117l-51 -86q131 -23 131 -147q0 -80 -53.5 -134t-167.5 -54 q-92 0 -172 55l51 90q55 -33 110 -33q82 0 82 80q0 61 -77 61q-37 0 -70 -8l106 181q-280 45 -280 387z" />
<glyph unicode="&#xe8;" horiz-adv-x="942" d="M80 373q0 137 46 278.5t116 231.5q135 180 370 180q150 0 232 -72.5t82 -195.5q0 -90 -38 -155t-91.5 -98.5t-141.5 -53t-160.5 -24.5t-177.5 -5q-8 -41 -8 -94q0 -106 51.5 -167t153.5 -61q119 0 252 90l51 -123q-123 -131 -364 -131q-178 0 -275.5 105t-97.5 295z M338 586q82 2 128 6t99 17.5t80 35t45.5 59t18.5 93.5q0 59 -29 91t-76 32q-111 0 -190 -142q-49 -86 -76 -192zM424 1366l135 184l352 -276l-82 -111z" />
<glyph unicode="&#xe9;" horiz-adv-x="942" d="M80 373q0 137 46 278.5t116 231.5q135 180 370 180q150 0 232 -72.5t82 -195.5q0 -90 -38 -155t-91.5 -98.5t-141.5 -53t-160.5 -24.5t-177.5 -5q-8 -41 -8 -94q0 -106 51.5 -167t153.5 -61q119 0 252 90l51 -123q-123 -131 -364 -131q-178 0 -275.5 105t-97.5 295z M338 586q82 2 128 6t99 17.5t80 35t45.5 59t18.5 93.5q0 59 -29 91t-76 32q-111 0 -190 -142q-49 -86 -76 -192zM410 1278l413 281l103 -199l-453 -199z" />
<glyph unicode="&#xea;" horiz-adv-x="942" d="M80 373q0 137 46 278.5t116 231.5q135 180 370 180q150 0 232 -72.5t82 -195.5q0 -90 -38 -155t-91.5 -98.5t-141.5 -53t-160.5 -24.5t-177.5 -5q-8 -41 -8 -94q0 -106 51.5 -167t153.5 -61q119 0 252 90l51 -123q-123 -131 -364 -131q-178 0 -275.5 105t-97.5 295z M338 586q82 2 128 6t99 17.5t80 35t45.5 59t18.5 93.5q0 59 -29 91t-76 32q-111 0 -190 -142q-49 -86 -76 -192zM338 1255l293 275h133l199 -275l-86 -88l-203 164l-273 -164z" />
<glyph unicode="&#xeb;" horiz-adv-x="942" d="M80 373q0 137 46 278.5t116 231.5q135 180 370 180q150 0 232 -72.5t82 -195.5q0 -90 -38 -155t-91.5 -98.5t-141.5 -53t-160.5 -24.5t-177.5 -5q-8 -41 -8 -94q0 -106 51.5 -167t153.5 -61q119 0 252 90l51 -123q-123 -131 -364 -131q-178 0 -275.5 105t-97.5 295z M313 1298.5q0 57.5 40 98.5t93 41q55 0 96.5 -41t41.5 -99q0 -55 -41 -96t-94 -41q-55 0 -95.5 40t-40.5 97.5zM338 586q82 2 128 6t99 17.5t80 35t45.5 59t18.5 93.5q0 59 -29 91t-76 32q-111 0 -190 -142q-49 -86 -76 -192zM725 1298.5q0 57.5 40 98.5t93 41q55 0 96 -41 t41 -98.5t-41 -97.5t-94 -40t-94 40t-41 97.5z" />
<glyph unicode="&#xec;" horiz-adv-x="587" d="M94 115q0 37 10 88l140 659l-119 35l31 139h352l-162 -755q-18 -82 -18 -99q0 -35 41 -35h98v-110q-119 -63 -215 -64q-158 1 -158 142zM164 1366l135 184l352 -276l-82 -111z" />
<glyph unicode="&#xed;" horiz-adv-x="587" d="M94 115q0 37 10 88l140 659l-119 35l31 139h352l-162 -755q-18 -82 -18 -99q0 -35 41 -35h98v-110q-119 -63 -215 -64q-158 1 -158 142zM215 1278l414 281l102 -199l-452 -199z" />
<glyph unicode="&#xee;" horiz-adv-x="587" d="M94 115q0 37 10 88l140 659l-119 35l31 139h352l-162 -755q-18 -82 -18 -99q0 -35 41 -35h98v-110q-119 -63 -215 -64q-158 1 -158 142zM106 1255l293 275h133l199 -275l-86 -88l-203 164l-272 -164z" />
<glyph unicode="&#xef;" horiz-adv-x="587" d="M68 1298.5q0 57.5 39.5 98.5t93.5 41q55 0 96 -41t41 -99q0 -55 -41 -96t-94 -41q-55 0 -95 40t-40 97.5zM94 115q0 37 10 88l140 659l-119 35l31 139h352l-162 -755q-18 -82 -18 -99q0 -35 41 -35h98v-110q-119 -63 -215 -64q-158 1 -158 142zM479 1298.5 q0 57.5 40 98.5t93 41q55 0 96.5 -41t41.5 -98.5t-41 -97.5t-94.5 -40t-94.5 40t-41 97.5z" />
<glyph unicode="&#xf0;" horiz-adv-x="1042" d="M80 371q0 133 40 266t101 217q125 170 320 170q113 0 180 -72q-6 119 -78 226l-260 -107l-41 105l227 92q-70 70 -166 137l68 111q164 -76 270 -179l226 93l41 -105l-187 -76q143 -193 144 -469q0 -414 -156 -635q-121 -172 -358 -172q-176 0 -273.5 105t-97.5 293z M307 315q0 -102 36 -148t112 -46q68 0 108.5 29.5t73.5 107.5q33 76 61.5 207t28.5 221q0 193 -149 193q-68 0 -110 -34t-77 -118q-33 -82 -58.5 -202t-25.5 -210z" />
<glyph unicode="&#xf1;" horiz-adv-x="1105" d="M70 0l184 862l-119 35l31 139h289v-147q63 78 153 126t178 48q205 0 205 -225q0 -43 -10 -101l-98 -456q-14 -72 -15 -97q0 -37 45 -37h93v-110q-104 -61 -209 -62q-164 0 -164 144q0 29 14 108l105 496q8 45 8 63q0 86 -90 86q-86 0 -209 -102l-164 -770h-227zM328 1257 q104 195 237 195q61 0 130 -38t102 -38q51 0 121 84l100 -78q-102 -197 -240 -196q-61 0 -129.5 38t-101.5 38q-51 0 -121 -84z" />
<glyph unicode="&#xf2;" horiz-adv-x="1044" d="M80 369q0 137 42 285.5t105 234.5q127 174 361 174q178 0 277.5 -101.5t99.5 -293.5q0 -135 -43 -285t-107 -233q-127 -176 -358 -177q-180 0 -278.5 101.5t-98.5 294.5zM309 307q0 -98 36 -142t112 -44q72 0 116.5 47t94.5 188q68 193 67 373q0 98 -35.5 142t-111.5 44 q-74 0 -118 -47t-93 -188q-68 -195 -68 -373zM416 1366l135 184l352 -276l-82 -111z" />
<glyph unicode="&#xf3;" horiz-adv-x="1044" d="M80 369q0 137 42 285.5t105 234.5q127 174 361 174q178 0 277.5 -101.5t99.5 -293.5q0 -135 -43 -285t-107 -233q-127 -176 -358 -177q-180 0 -278.5 101.5t-98.5 294.5zM309 307q0 -98 36 -142t112 -44q72 0 116.5 47t94.5 188q68 193 67 373q0 98 -35.5 142t-111.5 44 q-74 0 -118 -47t-93 -188q-68 -195 -68 -373zM428 1278l414 281l102 -199l-452 -199z" />
<glyph unicode="&#xf4;" horiz-adv-x="1044" d="M80 369q0 137 42 285.5t105 234.5q127 174 361 174q178 0 277.5 -101.5t99.5 -293.5q0 -135 -43 -285t-107 -233q-127 -176 -358 -177q-180 0 -278.5 101.5t-98.5 294.5zM309 307q0 -98 36 -142t112 -44q72 0 116.5 47t94.5 188q68 193 67 373q0 98 -35.5 142t-111.5 44 q-74 0 -118 -47t-93 -188q-68 -195 -68 -373zM344 1255l293 275h133l199 -275l-86 -88l-203 164l-272 -164z" />
<glyph unicode="&#xf5;" horiz-adv-x="1044" d="M80 369q0 137 42 285.5t105 234.5q127 174 361 174q178 0 277.5 -101.5t99.5 -293.5q0 -135 -43 -285t-107 -233q-127 -176 -358 -177q-180 0 -278.5 101.5t-98.5 294.5zM307 1257q104 195 238 195q61 0 129.5 -38t101.5 -38q51 0 121 84l100 -78q-102 -197 -239 -196 q-61 0 -130 38t-102 38q-51 0 -120 -84zM309 307q0 -98 36 -142t112 -44q72 0 116.5 47t94.5 188q68 193 67 373q0 98 -35.5 142t-111.5 44q-74 0 -118 -47t-93 -188q-68 -195 -68 -373z" />
<glyph unicode="&#xf6;" horiz-adv-x="1044" d="M80 369q0 137 42 285.5t105 234.5q127 174 361 174q178 0 277.5 -101.5t99.5 -293.5q0 -135 -43 -285t-107 -233q-127 -176 -358 -177q-180 0 -278.5 101.5t-98.5 294.5zM309 307q0 -98 36 -142t112 -44q72 0 116.5 47t94.5 188q68 193 67 373q0 98 -35.5 142t-111.5 44 q-74 0 -118 -47t-93 -188q-68 -195 -68 -373zM313 1298.5q0 57.5 40 98.5t93 41q55 0 96.5 -41t41.5 -99q0 -55 -41 -96t-94 -41q-55 0 -95.5 40t-40.5 97.5zM725 1298.5q0 57.5 40 98.5t93 41q55 0 96 -41t41 -98.5t-41 -97.5t-94 -40t-94 40t-41 97.5z" />
<glyph unicode="&#xf7;" d="M123 520l39 180h837l-36 -180h-840zM340 213q0 57 41 99t100.5 42t100.5 -42t41 -99q0 -61 -41 -102t-100.5 -41t-100.5 41t-41 102zM502 1007.5q0 59.5 41 101.5t98 42q59 0 101 -42t42 -101.5t-42 -100.5t-101 -41t-99 41t-40 100.5z" />
<glyph unicode="&#xf8;" horiz-adv-x="1044" d="M-20 -88l159 211q-59 96 -59 246q0 137 42 285.5t105 234.5q127 174 361 174q131 0 223 -57l141 186l101 -78l-152 -199q63 -98 64 -247q0 -135 -43 -285t-107 -233q-127 -176 -358 -177q-139 0 -230 60l-149 -195zM305 342l387 508q-20 23 -65 37q-109 35 -189 -82 q-94 -113 -131 -426q-2 -14 -2 -37zM346 190q29 -33 70 -40q111 -37 186 81q92 104 133 426v41z" />
<glyph unicode="&#xf9;" horiz-adv-x="1101" d="M94 182q0 53 12 111l121 571l-114 29l28 143h353l-152 -725q-10 -45 -10 -75q0 -86 82 -86q84 0 213 94l168 792h231l-160 -755q-18 -82 -18 -99q0 -35 41 -35h98v-110q-119 -63 -217 -64q-141 0 -145 150q-164 -150 -314 -150q-100 0 -158.5 54.5t-58.5 154.5zM432 1366 l135 184l353 -276l-82 -111z" />
<glyph unicode="&#xfa;" horiz-adv-x="1101" d="M94 182q0 53 12 111l121 571l-114 29l28 143h353l-152 -725q-10 -45 -10 -75q0 -86 82 -86q84 0 213 94l168 792h231l-160 -755q-18 -82 -18 -99q0 -35 41 -35h98v-110q-119 -63 -217 -64q-141 0 -145 150q-164 -150 -314 -150q-100 0 -158.5 54.5t-58.5 154.5zM459 1278 l413 281l103 -199l-453 -199z" />
<glyph unicode="&#xfb;" horiz-adv-x="1101" d="M94 182q0 53 12 111l121 571l-114 29l28 143h353l-152 -725q-10 -45 -10 -75q0 -86 82 -86q84 0 213 94l168 792h231l-160 -755q-18 -82 -18 -99q0 -35 41 -35h98v-110q-119 -63 -217 -64q-141 0 -145 150q-164 -150 -314 -150q-100 0 -158.5 54.5t-58.5 154.5zM362 1255 l293 275h133l199 -275l-86 -88l-203 164l-272 -164z" />
<glyph unicode="&#xfc;" horiz-adv-x="1101" d="M94 182q0 53 12 111l121 571l-114 29l28 143h353l-152 -725q-10 -45 -10 -75q0 -86 82 -86q84 0 213 94l168 792h231l-160 -755q-18 -82 -18 -99q0 -35 41 -35h98v-110q-119 -63 -217 -64q-141 0 -145 150q-164 -150 -314 -150q-100 0 -158.5 54.5t-58.5 154.5z M338 1298.5q0 57.5 40 98.5t93 41q55 0 96 -41t41 -99q0 -55 -41 -96t-94 -41q-55 0 -95 40t-40 97.5zM750 1298.5q0 57.5 39.5 98.5t93.5 41q55 0 96 -41t41 -98.5t-41 -97.5t-94.5 -40t-94 40t-40.5 97.5z" />
<glyph unicode="&#xfd;" horiz-adv-x="937" d="M-88 -242q150 23 237 73t156 169h-65l-72 862l-123 35l31 139h301l31 -520q10 -213 -2 -332h2q43 143 110 283l279 569h211l-551 -1065q-100 -193 -202.5 -276.5t-266.5 -116.5zM397 1278l414 281l102 -199l-452 -199z" />
<glyph unicode="&#xfe;" d="M-150 -403l27 122l127 19l336 1577l-119 37l31 139h356l-123 -567q55 61 138.5 100t160.5 39q252 0 252 -311q0 -188 -57 -384t-172 -300q-102 -94 -258 -95q-168 0 -242 117l-76 -352l121 -19l-26 -122h-476zM334 211q76 -84 176 -84t154 84q53 80 95 261t42 288 q0 68 -26.5 98.5t-90.5 30.5q-102 0 -227 -113z" />
<glyph unicode="&#xff;" horiz-adv-x="937" d="M-88 -242q150 23 237 73t156 169h-65l-72 862l-123 35l31 139h301l31 -520q10 -213 -2 -332h2q43 143 110 283l279 569h211l-551 -1065q-100 -193 -202.5 -276.5t-266.5 -116.5zM303 1298.5q0 57.5 40 98.5t93 41q55 0 96 -41t41 -99q0 -55 -40.5 -96t-94.5 -41 q-55 0 -95 40t-40 97.5zM715 1298.5q0 57.5 40 98.5t93 41q55 0 96 -41t41 -98.5t-40 -97.5t-95 -40t-95 40t-40 97.5z" />
<glyph unicode="&#x152;" horiz-adv-x="1681" d="M104 455q0 137 37 314t90 302q45 102 105.5 172t137.5 106.5t159 52t184 15.5h961l-74 -340h-150l7 187h-328l-94 -455h227l59 119h117l-84 -391h-117l-6 120h-229l-109 -503h349l81 194h152l-72 -348h-936q-467 0 -467 455zM356 442q0 -289 246 -288h152l235 1112h-160 q-139 0 -225 -57.5t-135 -194.5q-41 -115 -77 -286t-36 -286z" />
<glyph unicode="&#x153;" horiz-adv-x="1554" d="M80 369q0 137 42 285.5t105 234.5q127 174 361 174q217 0 301 -154q141 154 338 154q150 0 231.5 -72.5t81.5 -195.5q0 -76 -23.5 -133.5t-71.5 -92t-100.5 -58.5t-129 -34t-138 -14t-147.5 -4q-6 -45 -6 -94q0 -106 51 -167t153 -61q119 0 252 90l52 -123 q-125 -131 -365 -131q-207 0 -293 144q-125 -143 -317 -144q-180 0 -278.5 101.5t-98.5 294.5zM309 307q0 -98 36 -142t112 -44q74 0 117.5 47t89.5 188q72 193 71 373q0 98 -35.5 142t-111.5 44q-74 0 -119 -47t-88 -188q-72 -183 -72 -373zM950 586q82 2 129 6t100.5 17.5 t80 35t44 59t17.5 93.5q0 123 -102 123q-111 0 -193 -142q-43 -77 -76 -192z" />
<glyph unicode="&#x178;" horiz-adv-x="1138" d="M182 1284l29 133h496l-29 -133l-143 -18l81 -326q27 -109 27 -238h6q35 90 119 224l221 342l-127 16l29 133h434l-29 -133l-110 -18l-473 -688l-90 -428l137 -23l-27 -127h-528l26 127l148 23l90 428l-184 688zM481 1654.5q0 57.5 40 97.5t93 40q55 0 96.5 -41t41.5 -96 q0 -57 -41 -98t-95 -41q-55 0 -95 40.5t-40 98zM893 1654.5q0 57.5 40 97.5t93 40q55 0 96 -40t41 -97.5t-40 -98t-95 -40.5t-95 40.5t-40 98z" />
<glyph unicode="&#x2c6;" d="M293 1255l293 275h133l199 -275l-87 -88l-202 164l-273 -164z" />
<glyph unicode="&#x2dc;" d="M283 1257q104 195 237 195q61 0 130 -38t102 -38q51 0 120 84l101 -78q-102 -197 -240 -196q-61 0 -129.5 38t-101.5 38q-51 0 -121 -84z" />
<glyph unicode="&#x2000;" horiz-adv-x="960" />
<glyph unicode="&#x2001;" horiz-adv-x="1923" />
<glyph unicode="&#x2002;" horiz-adv-x="960" />
<glyph unicode="&#x2003;" horiz-adv-x="1923" />
<glyph unicode="&#x2004;" horiz-adv-x="641" />
<glyph unicode="&#x2005;" horiz-adv-x="479" />
<glyph unicode="&#x2006;" horiz-adv-x="319" />
<glyph unicode="&#x2007;" horiz-adv-x="319" />
<glyph unicode="&#x2008;" horiz-adv-x="239" />
<glyph unicode="&#x2009;" horiz-adv-x="382" />
<glyph unicode="&#x200a;" horiz-adv-x="106" />
<glyph unicode="&#x2010;" horiz-adv-x="634" d="M78 457l47 213h432l-45 -213h-434z" />
<glyph unicode="&#x2011;" horiz-adv-x="634" d="M78 457l47 213h432l-45 -213h-434z" />
<glyph unicode="&#x2012;" horiz-adv-x="634" d="M78 457l47 213h432l-45 -213h-434z" />
<glyph unicode="&#x2013;" horiz-adv-x="1130" d="M78 477l41 182h934l-41 -182h-934z" />
<glyph unicode="&#x2014;" horiz-adv-x="1531" d="M78 477l43 182h1333l-41 -182h-1335z" />
<glyph unicode="&#x2018;" horiz-adv-x="530" d="M221 1063q0 139 98.5 247.5t266.5 139.5l4 -104q-150 -61 -176 -164q45 -8 79.5 -49t34.5 -97q0 -63 -44 -107t-107 -44q-68 0 -112 47t-44 131z" />
<glyph unicode="&#x2019;" horiz-adv-x="530" d="M211 989q152 63 174 164q-45 10 -80 50t-35 95q0 63 45 107.5t109 44.5q68 0 112 -46t44 -132q0 -139 -99.5 -246.5t-267.5 -138.5z" />
<glyph unicode="&#x201a;" horiz-adv-x="530" d="M-33 -166q150 61 176 164q-45 10 -79.5 50t-34.5 95q0 63 44 107.5t107 44.5q68 0 112 -46t44 -132q0 -139 -98.5 -247t-266.5 -138z" />
<glyph unicode="&#x201c;" horiz-adv-x="962" d="M221 1065q0 139 98.5 246.5t266.5 138.5l4 -102q-150 -61 -176 -164q45 -10 79.5 -50t34.5 -96q0 -63 -44 -107t-107 -44q-68 0 -112 46t-44 132zM653 1065q0 139 99.5 246.5t267.5 138.5l2 -102q-152 -63 -174 -164q45 -10 79 -50t34 -96q0 -63 -44.5 -107t-107.5 -44 q-68 0 -112 46t-44 132z" />
<glyph unicode="&#x201d;" horiz-adv-x="962" d="M211 989q152 63 174 164q-45 10 -80 50t-35 95q0 63 45 107.5t109 44.5q68 0 112 -46t44 -132q0 -139 -99.5 -246.5t-267.5 -138.5zM643 989q152 63 174 164q-45 10 -78.5 50t-33.5 95q0 63 44 107.5t107 44.5q68 0 112 -46t44 -132q0 -139 -99.5 -246.5t-267.5 -138.5z " />
<glyph unicode="&#x201e;" horiz-adv-x="962" d="M-33 -166q150 61 176 164q-45 10 -79.5 50t-34.5 95q0 63 44 107.5t107 44.5q68 0 112 -46t44 -132q0 -139 -98.5 -247t-266.5 -138zM401 -166q147 61 174 164q-45 10 -79.5 50t-34.5 95q0 63 44 107.5t107 44.5q70 0 113 -46t43 -132q0 -139 -98.5 -247t-266.5 -138z " />
<glyph unicode="&#x2022;" horiz-adv-x="776" d="M135 686q0 119 78 202t193 83q117 0 194.5 -83t77.5 -202t-78 -203t-194 -84q-115 0 -193 84t-78 203z" />
<glyph unicode="&#x2026;" horiz-adv-x="1579" d="M47 141q0 63 46 109.5t109.5 46.5t109.5 -46t46 -110q0 -66 -45 -111.5t-110.5 -45.5t-110.5 45.5t-45 111.5zM553 141q0 63 45 109.5t110.5 46.5t110.5 -46t45 -110q0 -66 -45 -111.5t-110.5 -45.5t-110.5 45.5t-45 111.5zM1059 141q0 63 45 109.5t108 46.5 q66 0 111 -45t45 -110.5t-45 -111.5t-111 -46q-63 0 -108 45.5t-45 111.5z" />
<glyph unicode="&#x202f;" horiz-adv-x="382" />
<glyph unicode="&#x2039;" horiz-adv-x="669" d="M96 524l414 463l100 -106l-270 -373l119 -393l-131 -74z" />
<glyph unicode="&#x203a;" horiz-adv-x="669" d="M49 145l270 375l-118 393l131 74l231 -483l-413 -463z" />
<glyph unicode="&#x205f;" horiz-adv-x="479" />
<glyph unicode="&#x20ac;" horiz-adv-x="1165" d="M66 432l28 135h158q6 68 22 152h-149l29 137h157q51 164 125 260q162 217 434 217q211 0 328 -98l-53 -277h-158l-4 193q-53 20 -127 20q-152 0 -238 -167q-33 -68 -61 -148h404l-29 -137h-410q-14 -76 -24 -152h403l-29 -135h-380v-4q0 -283 221 -283q145 0 291 91 l53 -142q-174 -121 -377 -121q-436 0 -436 459h-178z" />
<glyph unicode="&#x2122;" horiz-adv-x="1849" d="M213 1180l49 237h668l-49 -237h-105l2 129h-114l-127 -592l88 -12l-21 -95h-360l20 95l92 12l129 592h-114l-52 -129h-106zM842 610l20 97l84 12l127 592l-80 12l23 94h307l35 -305q10 -82 10 -166h6q20 78 72 166l168 305h315l-20 -94l-88 -12l-127 -592l82 -12l-21 -97 h-346l21 97l83 12l70 317q14 66 33.5 149t21.5 89h-6q-25 -74 -108 -227l-158 -285h-123l-35 270q0 4 -16 242h-6q-23 -152 -43 -242l-68 -313l80 -12l-18 -97h-295z" />
<glyph unicode="&#xe000;" horiz-adv-x="1035" d="M0 1035h1035v-1035h-1035v1035z" />
<glyph unicode="&#xfb01;" horiz-adv-x="1110" d="M-113 -307q43 35 69 62.5t55.5 89t45.5 145.5l172 889h-108l35 157h108l31 142q70 328 405 327q158 0 267 -67l-45 -148q-113 49 -203 49q-84 0 -133 -37.5t-68 -127.5l-31 -138h541l-162 -755q-16 -72 -16 -99q0 -35 39 -35h98v-110q-119 -63 -215 -64q-158 0 -158 142 q0 37 11 88l143 676h-313l-185 -922q-27 -135 -102.5 -219t-214.5 -150z" />
<glyph unicode="&#xfb02;" horiz-adv-x="1110" d="M-113 -307q43 35 69 62.5t55.5 89t45.5 145.5l172 889h-108l35 157h108l31 148q70 322 379 321q147 0 252 -73l73 59h129l-264 -1210q-18 -82 -18 -99q0 -35 41 -35h98v-110q-119 -63 -215 -64q-160 0 -160 142q0 27 13 88l241 1108q-70 35 -157 35q-152 0 -187 -158 l-33 -152h166l-35 -157h-163l-185 -922q-27 -135 -102.5 -219t-214.5 -150z" />
<glyph unicode="&#xfb03;" horiz-adv-x="1646" d="M-113 -307q43 35 69 62.5t55.5 89t45.5 145.5l172 889h-108l35 157h108l27 125q63 322 366 322q123 0 207 -49l-49 -138q-72 27 -129 27q-72 0 -111.5 -38t-58.5 -120l-29 -129h316l28 142q72 328 408 327q154 0 266 -67l-47 -148q-113 49 -201 49q-84 0 -134 -37.5 t-68 -127.5l-31 -138h541l-162 -755q-16 -72 -17 -99q0 -35 39 -35h99v-110q-115 -63 -215 -64q-158 0 -158 142q0 37 10 88l144 676h-314l-180 -908q-27 -135 -102.5 -219t-214.5 -149l-68 104q43 35 69.5 62.5t56.5 89t46 145.5l168 875h-311l-185 -922 q-27 -135 -102.5 -219t-214.5 -150z" />
<glyph unicode="&#xfb04;" horiz-adv-x="1646" d="M-113 -307q43 35 69 62.5t55.5 89t45.5 145.5l172 889h-108l35 157h108l27 125q63 322 366 322q123 0 207 -49l-49 -138q-72 27 -129 27q-72 0 -111.5 -38t-58.5 -120l-29 -129h316l28 142q72 328 379 327q152 0 252 -73l76 59h127l-264 -1210q-16 -72 -17 -99 q0 -35 39 -35h99v-110q-119 -63 -215 -64q-158 0 -158 142q0 37 10 88l242 1108q-70 35 -158 35q-150 0 -184 -158l-35 -152h166l-35 -157h-164l-180 -908q-27 -135 -102.5 -219t-214.5 -149l-68 104q43 35 69.5 62.5t56.5 89t46 145.5l168 875h-311l-185 -922 q-27 -135 -102.5 -219t-214.5 -150z" />
</font>
</defs>
</svg>
