<?xml version="1.0" standalone="no"?>
<!DOCTYPE svg PUBLIC "-//W3C//DTD SVG 1.1//EN" "http://www.w3.org/Graphics/SVG/1.1/DTD/svg11.dtd" >
<svg xmlns="http://www.w3.org/2000/svg">
<metadata>
This is a custom SVG webfont generated by Font Squirrel.
Copyright   : 2009 Erik Spiekermann Christian Schwartz Kris Sowersby published by FSI FontShop International GmbH
Designer    : Erik Spiekermann Christian Schwartz Kris Sowersby
Foundry     : FSI
Foundry URL : httpwwwfontfontcom
</metadata>
<defs>
<font id="UnitSlabOTLightItalic" horiz-adv-x="1236" >
<font-face units-per-em="2048" ascent="1624" descent="-424" />
<missing-glyph horiz-adv-x="413" />
<glyph unicode=" "  horiz-adv-x="413" />
<glyph unicode="&#x09;" horiz-adv-x="413" />
<glyph unicode="&#xa0;" horiz-adv-x="413" />
<glyph unicode="!" horiz-adv-x="534" d="M76 96q0 47 31.5 78t76.5 31t76 -32t31 -77q0 -47 -31 -78.5t-76 -31.5q-47 0 -77.5 31.5t-30.5 78.5zM186 391l197 1016h162l-266 -1016h-93z" />
<glyph unicode="&#x22;" horiz-adv-x="739" d="M268 954l105 498h121l-109 -498h-117zM547 954l104 498h121l-108 -498h-117z" />
<glyph unicode="#" horiz-adv-x="1087" d="M68 377l22 112h197l90 342h-191l25 113h197l94 359h108l-94 -359h262l96 359h107l-94 -359h190l-24 -113h-197l-90 -342h192l-24 -112h-199l-98 -377h-107l99 377h-264l-99 -377h-108l100 377h-190zM395 489h264l91 342h-265z" />
<glyph unicode="$" horiz-adv-x="974" d="M16 113l52 237h88l-4 -203q80 -59 186 -73l119 563q-131 63 -190.5 142t-59.5 194q0 162 108.5 255t284.5 97l49 225h99l-50 -231q147 -23 248 -102l-49 -228h-84l-4 197q-53 29 -129 41l-107 -506q131 -72 193.5 -152t62.5 -202q0 -162 -102 -273.5t-311 -113.5 l-47 -228h-99l49 234q-182 21 -303 127zM336 987q0 -70 32.5 -118t114.5 -99l99 463q-111 -4 -178.5 -67.5t-67.5 -178.5zM436 72q123 10 192.5 81.5t69.5 190.5q0 78 -36.5 135.5t-116.5 108.5z" />
<glyph unicode="%" horiz-adv-x="1619" d="M178 909q0 100 40 195.5t106 152.5q82 70 196 70q125 0 194.5 -78t69.5 -211q0 -102 -38.5 -197.5t-106.5 -150.5q-78 -72 -195 -72q-125 0 -195.5 79t-70.5 212zM289 0l993 1303h111l-992 -1303h-112zM301 872q0 -172 145 -172q78 0 125 60q39 47 65 143t26 172 q0 172 -146 172q-76 0 -125 -59q-37 -47 -63.5 -144.5t-26.5 -171.5zM901 266q0 102 40 197.5t106 152.5q82 70 196 70q125 0 194.5 -78t69.5 -211q0 -102 -38.5 -198.5t-106.5 -151.5q-80 -70 -195 -70q-125 0 -195.5 79t-70.5 210zM1024 231q0 -174 145 -174q80 0 125 62 q39 47 64.5 143t25.5 172q0 172 -145 172q-76 0 -123 -59q-39 -47 -65.5 -144.5t-26.5 -171.5z" />
<glyph unicode="&#x26;" horiz-adv-x="1296" d="M61 334q0 332 392 477q-94 154 -95 293q0 137 93.5 230t238.5 93q127 0 206 -72.5t79 -195.5q0 -133 -90 -219t-269 -154l256 -426q80 121 127 291l-131 15l17 79h375l-17 -79l-137 -15q-68 -217 -180 -379l106 -180l148 -12l-15 -80h-227l-100 170q-160 -190 -389 -190 q-190 0 -289 100t-99 254zM205 336q0 -119 60.5 -190.5t189.5 -71.5q188 0 331 178l-290 485q-291 -122 -291 -401zM489 1110q0 -102 70 -223l16 -29q143 66 205 135.5t62 173.5q0 78 -40 123t-112 45q-92 0 -146.5 -62.5t-54.5 -162.5z" />
<glyph unicode="'" horiz-adv-x="460" d="M268 954l103 498h123l-109 -498h-117z" />
<glyph unicode="(" horiz-adv-x="661" d="M123 285q0 188 55 428q88 389 227.5 585.5t370.5 280.5l29 -82q-190 -90 -298 -264t-194 -545q-57 -250 -57 -422q0 -332 178 -510l-61 -73q-248 196 -250 602z" />
<glyph unicode=")" horiz-adv-x="661" d="M-90 -238q190 92 297.5 266.5t193.5 544.5q57 248 58 420q0 338 -178 512l61 74q250 -199 250 -602q0 -197 -53 -428q-90 -391 -229.5 -586.5t-370.5 -279.5z" />
<glyph unicode="*" horiz-adv-x="876" d="M225 1219l45 67l238 -149l90 280l80 -20l-60 -287l283 12l4 -82l-282 -34l90 -283l-76 -29l-113 269l-231 -179l-53 58l215 207z" />
<glyph unicode="+" horiz-adv-x="1054" d="M141 541l23 104h321l78 367h117l-78 -367h320l-23 -104h-319l-78 -369h-117l78 369h-322z" />
<glyph unicode="," horiz-adv-x="485" d="M16 -170q61 23 102.5 67t49.5 95q-35 4 -62.5 33.5t-27.5 70.5q0 47 31.5 78t76.5 31q47 0 78 -34t31 -95q0 -102 -70.5 -193.5t-208.5 -120.5v68z" />
<glyph unicode="-" horiz-adv-x="591" d="M96 492l25 118h368l-24 -118h-369z" />
<glyph unicode="." horiz-adv-x="485" d="M78 98q0 45 31.5 78t76.5 33t77 -32t32 -79t-32 -78.5t-77 -31.5t-76.5 32.5t-31.5 77.5z" />
<glyph unicode="/" horiz-adv-x="688" d="M-131 -301l858 1855h119l-858 -1855h-119z" />
<glyph unicode="0" horiz-adv-x="1202" d="M127 449q0 131 37 283.5t94 268.5q158 319 465 320q199 0 303 -121t104 -342q0 -147 -40.5 -312t-106.5 -286q-152 -281 -440 -280q-203 0 -309.5 122t-106.5 347zM266 426q4 -350 281 -350q203 0 323 256q53 113 88 270.5t35 276.5q-4 344 -272 344q-113 0 -192.5 -64.5 t-141.5 -197.5q-51 -111 -86 -263.5t-35 -271.5z" />
<glyph unicode="1" horiz-adv-x="860" d="M31 0l18 76l262 22l219 1035l-284 -125l-35 63l401 242h90l-258 -1215l240 -22l-16 -76h-637z" />
<glyph unicode="2" horiz-adv-x="956" d="M-25 0l21 102q434 352 600 546t166 349q0 102 -56.5 156.5t-156.5 54.5q-133 0 -291 -86l-45 74q168 127 356 127q150 0 240 -85t90 -237q0 -180 -171 -376.5t-578 -507.5h616l-25 -117h-766z" />
<glyph unicode="3" horiz-adv-x="993" d="M-35 -27l33 86q170 -88 342 -88q178 0 264 115q82 113 82 274q0 115 -69.5 175.5t-188.5 60.5h-104l22 100h96q176 0 252 92q68 88 68 216q0 211 -219 210q-139 0 -289 -94l-45 76q166 127 350 127q158 0 248 -86t90 -229.5t-79 -244.5t-212 -124q102 -23 160.5 -104.5 t58.5 -192.5q0 -207 -123 -340q-123 -137 -362 -137q-221 -1 -375 108z" />
<glyph unicode="4" horiz-adv-x="1099" d="M31 213l26 117l625 973h135l-639 -990h498l125 592l141 27l-131 -619h156l-25 -100h-151l-70 -326h-135l67 326h-622z" />
<glyph unicode="5" horiz-adv-x="1009" d="M-14 -33l30 88q164 -86 312 -86q162 0 272 125q49 57 75.5 146.5t26.5 173.5q0 127 -67.5 195.5t-204.5 68.5q-129 0 -246 -43l191 668h624l-26 -115h-522l-125 -432q61 16 139 16q182 0 280.5 -97t98.5 -265q0 -115 -41 -227.5t-117 -184.5q-139 -129 -354 -129 q-190 0 -346 98z" />
<glyph unicode="6" horiz-adv-x="1103" d="M127 446q0 231 109.5 455.5t275.5 341.5q209 147 526 182v-92q-276 -43 -460 -186q-166 -129 -263 -395q147 117 316 116q158 0 258 -98t100 -274q0 -231 -131 -373.5t-334 -142.5q-178 0 -287.5 124.5t-109.5 341.5zM264 432q0 -358 268 -358q145 0 229.5 119.5 t84.5 298.5q0 135 -64.5 203.5t-187.5 68.5q-152 0 -301 -111q-29 -125 -29 -221z" />
<glyph unicode="7" horiz-adv-x="962" d="M152 1016l59 287h823l-26 -127q-498 -475 -717 -1303l-135 16q127 444 325.5 771t427.5 528h-610l-68 -172h-79z" />
<glyph unicode="8" horiz-adv-x="1103" d="M86 334q0 172 97.5 266t273.5 152q-172 115 -172 305q0 164 114.5 267t292.5 103q164 0 260.5 -93t96.5 -228q0 -260 -332 -371q240 -129 239 -348q0 -180 -123.5 -293.5t-326.5 -113.5q-193 0 -306.5 99t-113.5 255zM219 334q0 -123 80 -194.5t215 -71.5q143 0 225 88 t82 221q0 164 -170 260l-125 70q-307 -117 -307 -373zM420 1065q0 -154 145 -240l80 -45q152 63 210 146.5t58 193.5q0 96 -60 157.5t-169 61.5q-121 0 -192.5 -74.5t-71.5 -199.5z" />
<glyph unicode="9" horiz-adv-x="1107" d="M102 -35q260 45 424 151.5t260 315.5q20 43 43 100q-141 -104 -303 -104q-160 0 -260 102.5t-100 280.5q0 217 135 364.5t336 147.5q178 0 286.5 -114.5t108.5 -325.5q0 -256 -117 -496q-115 -240 -312 -359.5t-501 -154.5v92zM305 807q0 -137 65.5 -207t186.5 -70 q158 0 301 107q37 141 37 258q0 332 -266 332q-152 0 -238 -126t-86 -294z" />
<glyph unicode=":" horiz-adv-x="507" d="M74 98q0 45 31.5 77t76.5 32q47 0 78 -32t31 -77q0 -47 -32 -78.5t-77 -31.5t-76.5 32.5t-31.5 77.5zM199 692q0 45 31.5 77t76.5 32t77 -32t32 -77t-32 -76.5t-77 -31.5t-76.5 31.5t-31.5 76.5z" />
<glyph unicode=";" horiz-adv-x="503" d="M0 -172q63 25 106.5 70t51.5 94q-35 4 -62.5 33.5t-27.5 70.5q0 47 31.5 78t74.5 31q49 0 80 -34t31 -95q0 -102 -67.5 -189.5t-201.5 -122.5zM193 692q0 45 31.5 77t76.5 32q47 0 78 -32t31 -77t-31 -76.5t-78 -31.5q-45 0 -76.5 31.5t-31.5 76.5z" />
<glyph unicode="&#x3c;" horiz-adv-x="696" d="M119 592l14 55l500 375l53 -84l-438 -338l289 -371l-82 -65z" />
<glyph unicode="=" horiz-adv-x="1071" d="M115 356l24 105h768l-20 -105h-772zM193 725l24 104h768l-20 -104h-772z" />
<glyph unicode="&#x3e;" horiz-adv-x="696" d="M49 248l438 338l-288 370l82 66l333 -428l-12 -55l-500 -375z" />
<glyph unicode="?" horiz-adv-x="882" d="M205 96q0 45 31.5 77t76.5 32q47 0 78 -31t31 -78t-31 -78.5t-78 -31.5q-45 0 -76.5 31.5t-31.5 78.5zM250 1135l47 221q129 72 289 71q143 0 226 -71.5t83 -202.5q0 -66 -17.5 -120t-38 -88t-67.5 -72.5t-71.5 -54t-84.5 -52.5q-78 -47 -114.5 -89t-52.5 -122l-35 -164 h-107l43 195q25 115 74 173t137 109q72 41 105.5 67t63.5 82t30 136q0 84 -45 134t-137 50q-82 0 -166 -32l-78 -170h-84z" />
<glyph unicode="@" horiz-adv-x="1640" d="M111 326q0 408 207.5 675t570.5 267q334 0 493.5 -177.5t159.5 -474.5q0 -285 -102.5 -450.5t-276.5 -165.5q-193 0 -207 170q-137 -145 -286 -145q-104 0 -167 72.5t-63 205.5q0 283 144 477q100 141 264 142q125 0 223 -123l55 104h91l-132 -600q-12 -53 -12 -104 q0 -109 101 -109q117 0 184 136t67 390q0 272 -125.5 417t-410.5 145q-315 0 -488.5 -246t-173.5 -608q0 -279 127 -414t396 -135q178 0 309 45l26 -82q-166 -55 -335 -55q-639 0 -639 643zM569 293q0 -86 35 -131t96 -45q49 0 100.5 24.5t77 45t70.5 61.5l105 477 q-96 106 -195 106q-113 0 -178 -114q-49 -86 -80 -208t-31 -216z" />
<glyph unicode="A" horiz-adv-x="1163" d="M-123 0l14 78l146 18l682 1311h129l131 -1311l129 -18l-14 -78h-416l16 78l148 18l-35 365h-463l-184 -363l137 -20l-14 -78h-406zM389 553h410l-41 428q-12 124 -12 229q0 39 2 76h-5q-41 -119 -133 -305z" />
<glyph unicode="B" horiz-adv-x="1124" d="M-20 0l16 80l149 12l258 1221l-141 14l17 80h481q174 0 260 -80t86 -209q0 -147 -78 -247.5t-213 -131.5q96 -23 159.5 -97.5t63.5 -188.5q0 -248 -192 -369q-119 -84 -332 -84h-534zM281 90h256q164 0 254 86q104 96 104 293q0 217 -258 217h-231zM426 778h211 q158 0 237 80q84 90 84 256q0 201 -229 201h-192z" />
<glyph unicode="C" horiz-adv-x="1069" d="M123 416q0 213 78 462.5t213 385.5q166 164 391 163q211 0 315 -90l-45 -250h-84l-2 211q-74 37 -194 37q-213 0 -342 -209q-80 -127 -135.5 -343t-55.5 -392q0 -317 291 -317q131 0 229 49l84 201h84l-55 -256q-152 -88 -356.5 -88t-310 113.5t-105.5 322.5z" />
<glyph unicode="D" horiz-adv-x="1226" d="M-20 0l16 80l149 12l258 1221l-141 14l17 80h446q467 0 467 -444q0 -182 -55.5 -392.5t-143.5 -324.5q-80 -137 -207 -191.5t-309 -54.5h-497zM281 92h206q279 0 387 201q72 104 124.5 310t52.5 362q0 350 -328 350h-184z" />
<glyph unicode="E" horiz-adv-x="1026" d="M-20 0l16 80l149 12l258 1221l-141 14l17 80h829l-51 -281h-84l4 189h-438l-111 -531h322l57 138h72l-80 -367h-72l4 137h-323l-129 -600h473l67 193h86l-59 -285h-866z" />
<glyph unicode="F" horiz-adv-x="1001" d="M-20 0l16 80l149 12l258 1221l-141 14l17 80h839l-51 -283h-84l4 191h-448l-111 -531h322l57 144h74l-84 -377h-72l4 141h-321l-127 -598l194 -14l-16 -80h-479z" />
<glyph unicode="G" horiz-adv-x="1153" d="M123 416q0 213 78 463.5t215 384.5q164 164 391 163q213 0 315 -90l-43 -245h-84l-4 206q-74 37 -194 37q-213 0 -342 -209q-80 -129 -136.5 -345t-56.5 -390q0 -162 65.5 -239.5t204.5 -77.5q154 0 287 116l80 375l-219 19l16 78h357l-142 -662h-82l-14 100 q-131 -121 -305 -120q-190 0 -288.5 113.5t-98.5 322.5z" />
<glyph unicode="H" horiz-adv-x="1327" d="M-20 0l16 80l149 12l258 1221l-141 14l17 80h426l-17 -80l-149 -14l-111 -518h608l111 518l-141 14l16 80h426l-16 -80l-148 -14l-260 -1221l141 -12l-14 -80h-426l14 80l150 12l129 606h-608l-129 -606l141 -12l-14 -80h-428z" />
<glyph unicode="I" horiz-adv-x="583" d="M-20 0l16 80l149 12l258 1221l-141 14l17 80h426l-17 -80l-149 -14l-258 -1221l141 -12l-14 -80h-428z" />
<glyph unicode="J" horiz-adv-x="544" d="M-137 -211q121 59 181 129t91 217l250 1178l-141 14l16 80h426l-16 -80l-150 -14l-241 -1143q-43 -201 -127 -293t-267 -160z" />
<glyph unicode="K" horiz-adv-x="1146" d="M-20 0l16 80l149 12l258 1221l-141 14l17 80h426l-17 -80l-149 -14l-258 -1221l141 -12l-14 -80h-428zM455 748l569 563l-141 16l16 80h408l-19 -80l-125 -14l-569 -555l311 -666l158 -12l-16 -80h-246z" />
<glyph unicode="L" horiz-adv-x="995" d="M-20 0l16 80l149 12l258 1221l-141 14l17 80h426l-17 -80l-149 -14l-258 -1221h475l73 215h84l-63 -307h-870z" />
<glyph unicode="M" horiz-adv-x="1492" d="M-20 0l16 80l149 12l258 1221l-141 14l17 80h311l121 -772q20 -123 19 -212q0 -22 -1 -42h4q37 121 113 254l440 772h328l-17 -80l-147 -14l-260 -1221l143 -12l-16 -80h-426l16 80l148 12l178 838q18 90 36.5 167t33 130t18.5 73h-4q-66 -158 -174 -348l-398 -682h-100 l-113 670q-18 106 -32 360h-2q-4 -29 -15.5 -95t-22.5 -136t-28 -141l-178 -836l141 -12l-14 -80h-401z" />
<glyph unicode="N" horiz-adv-x="1277" d="M-20 0l16 80l149 12l258 1221l-141 14l17 80h272l295 -934q59 -197 74 -319h2q33 258 57 368l166 791l-141 14l16 80h397l-18 -80l-148 -14l-278 -1313h-111l-295 922q-59 188 -78 342h-2q-20 -160 -69 -392l-164 -780l141 -12l-14 -80h-401z" />
<glyph unicode="O" d="M123 399q0 209 70.5 451t193.5 383q166 195 416 194q197 0 297 -108.5t100 -312.5q0 -207 -70.5 -448t-191.5 -384q-164 -195 -414 -194q-197 0 -299 107t-102 312zM262 383q0 -305 275 -305q207 0 335 209q78 129 133.5 350t55.5 385q0 307 -273 307q-209 0 -335 -207 q-80 -131 -135.5 -354t-55.5 -385z" />
<glyph unicode="P" horiz-adv-x="1044" d="M-20 0l16 80l149 12l258 1221l-141 14l17 80h485q358 0 358 -311q0 -143 -56 -263t-157 -184q-115 -76 -291 -76h-235l-102 -481l194 -14l-16 -78h-479zM403 666h209q145 0 236 77q129 109 129 359q0 213 -238 213h-198z" />
<glyph unicode="Q" d="M123 399q0 209 70.5 451t193.5 383q166 195 416 194q197 0 297 -108.5t100 -312.5q0 -213 -68.5 -454t-193.5 -378q-135 -147 -320 -180l390 -105l-52 -127l-569 234q-264 108 -264 403zM262 383q0 -305 275 -305q207 0 335 209q78 129 133.5 350t55.5 385 q0 307 -273 307q-209 0 -335 -207q-80 -131 -135.5 -354t-55.5 -385z" />
<glyph unicode="R" horiz-adv-x="1167" d="M-20 0l16 80l149 12l258 1221l-141 14l17 80h479q174 0 268 -80t94 -229q0 -182 -102.5 -301t-269.5 -140v-4q127 -35 157 -213l56 -348l137 -12l-17 -80h-239l-68 412q-20 123 -68.5 169t-146.5 46h-166l-112 -535l141 -12l-14 -80h-428zM414 719h219q154 0 231 76 q115 104 115 303q0 104 -60.5 160.5t-181.5 56.5h-198z" />
<glyph unicode="S" horiz-adv-x="960" d="M16 109l41 235h86l4 -197q104 -74 263 -73q145 0 225 76.5t80 207.5q0 115 -55.5 186.5t-184.5 141.5q-135 72 -196.5 156t-61.5 209q0 176 111.5 276t294.5 100q213 0 344 -100l-45 -235h-82l-9 198q-88 43 -217 43q-121 0 -193.5 -68.5t-72.5 -193.5q0 -94 44 -150.5 t167 -125.5q150 -84 218.5 -172t68.5 -228q0 -180 -105.5 -297.5t-324.5 -117.5q-257 0 -400 129z" />
<glyph unicode="T" horiz-adv-x="1103" d="M201 1061l73 346h959l-74 -346h-84l27 254h-301l-258 -1223l162 -14l-17 -78h-467l17 78l168 14l260 1223h-299l-82 -254h-84z" />
<glyph unicode="U" horiz-adv-x="1224" d="M154 264q0 72 16 144l190 905l-143 14l19 80h280l-211 -989q-16 -82 -16 -139q0 -100 49 -145.5t149 -45.5q180 0 357 148l229 1077l-141 14l16 80h281l-279 -1315l142 -12l-17 -80h-244l3 137q-190 -158 -385 -157q-137 0 -216 69.5t-79 214.5z" />
<glyph unicode="V" horiz-adv-x="1179" d="M195 1327l16 80h401l-16 -80l-147 -14l69 -887q8 -107 8 -187q0 -69 -6 -118h4q82 217 121 299l451 891l-144 16l17 80h399l-16 -80l-129 -14l-676 -1313h-119l-117 1313z" />
<glyph unicode="W" horiz-adv-x="1681" d="M195 1327l16 80h401l-16 -80l-147 -14l-9 -891q-2 -143 -20 -316h2q57 178 117 312l442 989h133l16 -981q0 -20 1 -42q0 -127 -11 -278h4q43 160 103 306l372 899l-145 16l16 80h400l-17 -80l-129 -14l-563 -1313h-149l-17 938v67q0 161 9 255h-3q-59 -207 -112 -320 l-428 -940h-150v1313z" />
<glyph unicode="X" horiz-adv-x="1214" d="M-70 0l17 78l135 14l524 668l-186 553l-129 14l16 80h404l-17 -80l-135 -14l143 -459l342 459l-139 14l17 80h389l-17 -80l-123 -14l-423 -557l217 -664l139 -14l-14 -78h-414l16 78l137 14l-178 565l-442 -565l147 -14l-16 -78h-410z" />
<glyph unicode="Y" horiz-adv-x="1107" d="M195 1327l16 80h403l-16 -80l-147 -14l116 -471q27 -106 31 -207h4q27 76 109 196l317 482l-139 14l16 80h391l-16 -80l-127 -14l-514 -758l-98 -463l143 -12l-16 -80h-426l16 80l148 12l100 465l-195 756z" />
<glyph unicode="Z" horiz-adv-x="958" d="M-23 0l17 94l909 1223h-495l-78 -203h-88l63 293h768l-18 -94l-910 -1223h533l74 211h90l-62 -301h-803z" />
<glyph unicode="[" horiz-adv-x="618" d="M4 -319l395 1855h338l-16 -78l-211 -14l-354 -1669l202 -17l-16 -77h-338z" />
<glyph unicode="\" horiz-adv-x="759" d="M240 1554h112l299 -1855h-114z" />
<glyph unicode="]" horiz-adv-x="618" d="M-55 -317l16 79l211 15l356 1669l-204 16l16 78h338l-395 -1857h-338z" />
<glyph unicode="^" horiz-adv-x="940" d="M211 920l395 530h117l176 -530h-123l-133 399l-297 -399h-135z" />
<glyph unicode="_" horiz-adv-x="618" d="M-145 -262l24 112h602l-24 -112h-602z" />
<glyph unicode="`" horiz-adv-x="1116" d="M383 1321l88 113l303 -246l-45 -62z" />
<glyph unicode="a" horiz-adv-x="1030" d="M88 289q0 162 51 332t146 266q102 121 256 121q145 0 254 -129l57 108h98l-172 -799q-14 -61 -14 -79q0 -25 29 -25h118v-53q-106 -51 -176 -51q-51 0 -75 24q-23 24 -22 58q0 29 5 77q-164 -160 -311 -159q-109 0 -176.5 77.5t-67.5 231.5zM221 287q0 -211 150 -211 q104 0 286 151l119 568q-104 123 -227 123q-135 0 -213 -154q-47 -92 -81 -230t-34 -247z" />
<glyph unicode="b" horiz-adv-x="1048" d="M84 0l291 1364l-129 27l16 77h262l-133 -618q61 68 150.5 113t175.5 45q244 0 244 -297q0 -162 -49.5 -334t-141.5 -277q-106 -121 -270 -120q-166 0 -264 129l-60 -109h-92zM252 190q100 -121 235 -120q125 0 199 110q61 88 101 255t40 288q0 184 -153 184 q-133 0 -303 -149z" />
<glyph unicode="c" horiz-adv-x="841" d="M88 338q0 115 33 239.5t84 210.5q127 219 381 220q160 0 256 -74l-35 -193h-88v154q-57 29 -133 29q-184 0 -281 -207q-35 -78 -58.5 -191.5t-23.5 -203.5q0 -250 219 -250q129 0 254 88l35 -62q-119 -119 -330 -118q-147 0 -230 89t-83 269z" />
<glyph unicode="d" horiz-adv-x="1046" d="M88 287q0 160 52.5 332t146.5 268q102 121 256 121q150 0 260 -127l100 485l-127 20l17 82h264l-273 -1280q-2 -12 -6 -31.5t-6 -30.5t-2 -17q0 -25 27 -25h121v-53q-106 -51 -177 -51q-72 0 -87 40q-9 25 -9 63q0 25 4 56q-156 -160 -315 -159q-113 0 -179.5 75.5 t-66.5 231.5zM221 285q0 -207 152 -207q51 0 112.5 28.5t93 52t85.5 68.5l118 568q-104 123 -231 123q-131 0 -213 -154q-49 -94 -83 -232t-34 -247z" />
<glyph unicode="e" horiz-adv-x="878" d="M88 334q0 115 35 241.5t90 215.5q133 217 360 217q135 0 203 -67t68 -171q0 -100 -54.5 -167.5t-152.5 -97.5t-191.5 -41t-214.5 -11q-12 -68 -12 -134q0 -121 58.5 -184t166.5 -63q125 0 256 92l35 -64q-127 -121 -332 -120q-147 0 -231 91t-84 263zM246 528 q244 4 355.5 57.5t111.5 188.5q0 72 -37 112t-105 40q-150 0 -252 -187q-44 -88 -73 -211z" />
<glyph unicode="f" horiz-adv-x="524" d="M-117 -371q70 49 114 124t75 229l174 915h-117l21 90h118l45 232q27 137 107 200.5t186 63.5q92 0 160 -43l-27 -80q-57 29 -125 29q-141 0 -176 -177l-45 -225h193l-21 -90h-192l-183 -942q-29 -147 -90 -233.5t-180 -151.5z" />
<glyph unicode="g" horiz-adv-x="997" d="M14 -322l37 80q170 -92 318 -92q178 0 217 191l61 278q-164 -156 -313 -155q-113 0 -179.5 75.5t-66.5 231.5q0 160 52.5 332t146.5 268q102 121 255.5 121t260.5 -129l55 108h98l-241 -1134q-33 -154 -118 -220.5t-224 -66.5q-183 -1 -359 112zM221 285q0 -207 152 -207 q51 0 112.5 28.5t93 52t85.5 68.5l118 568q-104 123 -231 123q-131 0 -213 -154q-49 -94 -83 -232t-34 -247z" />
<glyph unicode="h" horiz-adv-x="1034" d="M84 0l291 1364l-129 27l16 77h262l-135 -630q72 76 160 123t170 47q92 0 143 -52.5t51 -150.5q0 -33 -10 -88l-112 -527q-14 -59 -15 -79q0 -27 31 -27h115v-53q-94 -49 -170 -49q-109 0 -109 92q0 18 10 73l119 560q10 51 10 77q0 111 -112 111q-119 0 -299 -145 l-160 -750h-127z" />
<glyph unicode="i" horiz-adv-x="514" d="M104 72q0 16 9 57l161 754l-131 26l19 78h262l-170 -799q-14 -61 -14 -79q0 -25 26 -25h121v-53q-109 -51 -178 -51q-101 0 -105 92zM305 1307q0 43 27.5 71.5t70.5 28.5t72 -27.5t29 -72.5q0 -43 -27.5 -72t-73.5 -29q-43 0 -70.5 29t-27.5 72z" />
<glyph unicode="j" horiz-adv-x="475" d="M-162 -356q106 53 154.5 106t75.5 174l202 959l-129 26l17 78h262l-232 -1079q-29 -137 -107.5 -211t-207.5 -119zM303 1307q0 43 27.5 71.5t70.5 28.5t71 -27.5t28 -72.5q0 -43 -28 -72t-73 -29q-41 0 -68.5 29t-27.5 72z" />
<glyph unicode="k" horiz-adv-x="937" d="M84 0l291 1364l-129 27l16 77h260l-311 -1468h-127zM373 549l436 438h141l-446 -438l196 -424q12 -23 24.5 -32t41.5 -9h88v-53q-92 -51 -152 -51q-41 0 -64.5 23.5t-43.5 70.5z" />
<glyph unicode="l" horiz-adv-x="509" d="M94 72q0 16 8 57l267 1235l-129 27l16 77h262l-276 -1280q-14 -61 -15 -79q0 -25 27 -25h121v-53q-106 -51 -176 -51q-105 0 -105 92z" />
<glyph unicode="m" horiz-adv-x="1521" d="M92 0l189 883l-129 26l16 78h223l-8 -153q166 174 324 174q170 0 182 -177q166 176 325 177q186 0 187 -199q0 -37 -10 -92l-115 -529q-14 -61 -14 -79q0 -25 26 -25h121v-53q-109 -51 -178 -51q-102 0 -103 92q0 16 9 57l123 578q12 49 12 86q0 102 -101 102 q-66 0 -128 -34t-154 -105l-162 -756h-127l152 707q12 49 12 86q0 102 -100 102q-68 0 -130.5 -34t-152.5 -107l-162 -754h-127z" />
<glyph unicode="n" horiz-adv-x="1044" d="M92 0l189 883l-129 26l16 78h223l-8 -160q72 80 165 130.5t179 50.5q92 0 143.5 -52.5t51.5 -150.5q0 -33 -11 -88l-112 -527q-14 -59 -15 -79q0 -27 33 -27h115v-53q-98 -49 -172 -49q-109 0 -109 92q0 8 13 73l116 560q10 51 11 77q0 111 -113 111q-119 0 -299 -145 l-160 -750h-127z" />
<glyph unicode="o" horiz-adv-x="978" d="M88 346q0 117 32 242t83 211q125 209 354 209q156 0 245 -92.5t89 -268.5q0 -119 -32 -242.5t-81 -209.5q-121 -215 -354 -215q-158 0 -247 93t-89 273zM217 326q0 -260 209 -260q86 0 145.5 44t104.5 148q35 76 59.5 194.5t24.5 215.5q0 254 -207 254q-88 0 -145.5 -42 t-104.5 -145q-37 -78 -61.5 -196.5t-24.5 -212.5z" />
<glyph unicode="p" horiz-adv-x="1058" d="M-123 -414l17 74l131 18l256 1205l-129 26l16 78h223l-4 -151q68 76 160 124t176 48q248 0 248 -297q0 -162 -49.5 -334t-141.5 -277q-106 -121 -272 -120q-164 0 -262 129l-92 -431l129 -18l-17 -74h-389zM264 190q100 -121 232 -120q127 0 200 110q61 88 101.5 255 t40.5 288q0 184 -156 184q-127 0 -297 -149z" />
<glyph unicode="q" horiz-adv-x="1007" d="M88 287q0 160 52.5 332t146.5 268q102 121 255.5 121t260.5 -129l55 108h98l-280 -1309l129 -18l-19 -74h-385l17 74l131 18l98 457q-164 -156 -313 -155q-113 0 -179.5 75.5t-66.5 231.5zM221 285q0 -207 152 -207q51 0 112.5 28.5t93 52t85.5 68.5l118 568 q-104 123 -231 123q-131 0 -213 -154q-49 -94 -83 -232t-34 -247z" />
<glyph unicode="r" horiz-adv-x="686" d="M92 0l191 883l-129 26l16 78h223l-10 -180q88 104 164 152.5t174 48.5l-12 -136q-10 0 -20 1q-83 0 -151 -32q-77 -36 -161 -108l-158 -733h-127z" />
<glyph unicode="s" horiz-adv-x="802" d="M27 80l34 188h86v-157q70 -47 179 -48q106 0 162.5 51.5t56.5 141.5q0 74 -38 119t-140 96q-96 47 -147.5 104.5t-51.5 151.5q0 129 85 205t234 76q143 0 250 -74l-37 -195h-88v154q-55 31 -135 31q-86 0 -137 -44t-51 -126q0 -61 31.5 -100.5t117.5 -80.5 q123 -59 177.5 -124.5t54.5 -163.5q0 -152 -97.5 -228.5t-255.5 -76.5q-186 0 -290 100z" />
<glyph unicode="t" horiz-adv-x="602" d="M113 100q0 37 10 78l153 719h-118l20 90h117l57 260l129 31l-61 -291h205l-19 -90h-203l-151 -711q-8 -41 -8 -55q0 -57 82 -57q43 0 110 20l6 -63q-94 -51 -184 -51q-61 0 -103 29.5t-42 90.5z" />
<glyph unicode="u" horiz-adv-x="1038" d="M109 166q0 47 10 100l131 619l-125 22l16 80h262l-149 -706q-12 -61 -12 -88q0 -113 108 -113q113 0 303 141l162 766h131l-168 -799q-14 -61 -14 -79q0 -25 27 -25h120v-53q-109 -51 -178 -51q-51 0 -74.5 21.5t-23.5 57t6 80.5q-184 -160 -332 -159q-94 0 -147 48 t-53 138z" />
<glyph unicode="v" horiz-adv-x="868" d="M51 909l17 78h225l57 -581q14 -144 14 -234q0 -30 -2 -53h3q35 119 108 264l313 604h123l-524 -987h-113l-96 883z" />
<glyph unicode="w" horiz-adv-x="1304" d="M51 909l17 78h223l24 -618q2 -79 2 -137t-2 -95h2q18 68 82 209l287 641h143l27 -633q2 -57 2 -103q0 -69 -4 -112h2q18 70 82 211l289 637h119l-465 -987h-121l-31 641q-3 66 -3 122q0 75 5 132h-2q-29 -106 -88 -244l-295 -651h-129l-45 883z" />
<glyph unicode="x" horiz-adv-x="872" d="M-33 0l424 537l-127 346l-123 26l17 78h202l123 -366h2l283 366h129l-375 -471l144 -391q10 -25 21 -33t40 -8h86v-53q-90 -51 -149 -51q-43 0 -66 22.5t-41 71.5l-123 356h-2l-340 -430h-125z" />
<glyph unicode="y" horiz-adv-x="876" d="M-94 -319q147 35 232 103.5t169 215.5h-49l-76 883l-125 26l19 78h223l45 -600q11 -166 11 -252q0 -25 -1 -43h2q33 84 119 258l322 637h123l-535 -1032q-92 -180 -188.5 -259t-259.5 -120z" />
<glyph unicode="z" horiz-adv-x="841" d="M0 0l18 98l662 801h-375l-57 -143h-86l39 231h637l-19 -104l-661 -795h428l57 154h84l-47 -242h-680z" />
<glyph unicode="{" horiz-adv-x="735" d="M94 565l17 86q100 0 151 41t72 142l102 475q25 123 89.5 175t168.5 52h160l-16 -82h-131q-63 0 -96 -40t-52 -130l-100 -473q-20 -100 -72.5 -143t-130.5 -58v-4q119 -41 119 -145q0 -39 -10 -86l-95 -457q-8 -35 -8 -65q0 -90 94 -91h119l-16 -84h-117 q-94 0 -149.5 48.5t-55.5 138.5q0 37 8 69l95 445q8 39 8 70q0 61 -34 88.5t-120 27.5z" />
<glyph unicode="|" horiz-adv-x="495" d="M39 -301l393 1855h109l-394 -1855h-108z" />
<glyph unicode="}" horiz-adv-x="735" d="M-53 -322l16 82h129q63 0 95 40t53 130l102 476q20 100 71.5 143t129.5 57v4q-117 37 -117 146q0 47 8 86l96 456q8 33 9 64q0 92 -97 92h-118l18 82h117q92 0 148.5 -47t56.5 -137q0 -37 -9 -70l-94 -446q-8 -39 -8 -68q0 -61 34 -90t120 -29l-19 -84q-100 0 -150.5 -40 t-72.5 -142l-103 -475q-47 -229 -256 -230h-159z" />
<glyph unicode="~" horiz-adv-x="980" d="M127 598q102 184 238 184q61 0 144 -50t122 -50q41 0 70.5 27.5t70.5 87.5l78 -49q-106 -186 -240 -187q-61 0 -144 50.5t-122 50.5q-41 0 -70.5 -27t-70.5 -86z" />
<glyph unicode="&#xa1;" horiz-adv-x="534" d="M-18 -414l264 1018h94l-197 -1018h-161zM236 899q0 47 30.5 78t75.5 31t77 -32t32 -77t-32 -76.5t-77 -31.5t-75.5 30.5t-30.5 77.5z" />
<glyph unicode="&#xa2;" horiz-adv-x="886" d="M98 338q0 115 33 239.5t84 210.5q119 203 346 218l49 227h92l-49 -229q127 -12 213 -78l-37 -193h-86v154q-37 25 -106 35l-180 -850q135 0 264 92l37 -62q-113 -113 -322 -120l-47 -230h-92l49 234q-248 37 -248 352zM233 322q0 -197 134 -240l178 836 q-152 -27 -228 -201q-35 -78 -59.5 -192.5t-24.5 -202.5z" />
<glyph unicode="&#xa3;" horiz-adv-x="1034" d="M33 0l24 121q139 66 203 155t64 218q0 49 -11 114h-178l21 97h141q-16 111 -16 174q0 217 119.5 329.5t304.5 112.5q186 0 323 -98l-49 -232h-84l-4 191q-76 45 -193 45q-129 0 -205.5 -94.5t-76.5 -249.5q0 -78 14 -178h383l-20 -97h-349q6 -51 7 -106q0 -248 -242 -385 h530l76 182h84l-63 -299h-803z" />
<glyph unicode="&#xa4;" horiz-adv-x="1081" d="M37 225q51 51 119.5 116t68.5 62q-27 72 -26 164q0 201 104 355l-123 170l94 73l109 -155q104 82 246 82q133 0 223 -91l172 164l74 -80q-25 -23 -74 -69.5t-82 -77.5l-31 -29q27 -66 27 -155q0 -207 -107 -365l123 -170l-94 -74q-106 156 -110 156q-102 -80 -246 -80 q-129 0 -219 90l-174 -168zM330 537q0 -217 184 -218q113 0 181.5 76t99.5 250q12 74 12 131q0 217 -189 217q-111 0 -178 -74.5t-98 -250.5q-12 -74 -12 -131z" />
<glyph unicode="&#xa5;" horiz-adv-x="1153" d="M86 360l20 97h367l14 63l-32 125h-310l21 94h266l-119 471l-118 15l16 78h399l-18 -78l-139 -15l100 -415q20 -86 25 -199h4q29 72 104 186l283 428l-138 15l17 78h383l-19 -78l-120 -15l-322 -471h279l-21 -94h-323l-87 -127l-12 -61h381l-20 -97h-381l-56 -268l144 -14 l-17 -78h-426l17 78l149 14l56 268h-367z" />
<glyph unicode="&#xa6;" horiz-adv-x="497" d="M39 -301l170 809h108l-170 -809h-108zM260 745l172 809h109l-172 -809h-109z" />
<glyph unicode="&#xa7;" horiz-adv-x="1091" d="M53 -207l37 201h88l-4 -170q96 -66 227 -66q98 0 161 57.5t63 143.5t-54.5 138.5t-181.5 117.5q-133 68 -200.5 137.5t-67.5 184.5q0 119 75.5 196.5t219.5 102.5q-78 74 -78 192q0 129 88 212t243.5 83t288.5 -96l-38 -201h-89l3 162q-68 49 -166 49 q-102 0 -153.5 -57.5t-51.5 -143.5q0 -68 49 -110.5t168 -100.5q68 -33 107.5 -57.5t86 -63t68 -89t21.5 -111.5q0 -266 -304 -309q98 -86 99 -209q0 -143 -101.5 -227.5t-259.5 -84.5q-102 0 -197.5 36t-146.5 83zM250 549q0 -76 48 -124t161 -108l112 -59q260 31 260 234 q0 74 -50 120.5t-146 96.5l-135 67q-250 -32 -250 -227z" />
<glyph unicode="&#xa8;" horiz-adv-x="1116" d="M350 1235q0 41 28 68.5t68.5 27.5t68.5 -27.5t28 -68.5q0 -43 -28 -70.5t-68.5 -27.5t-68.5 27.5t-28 70.5zM711 1235q0 41 27.5 68.5t68.5 27.5t68.5 -27.5t27.5 -68.5q0 -43 -27.5 -70.5t-68.5 -27.5t-68.5 27.5t-27.5 70.5z" />
<glyph unicode="&#xa9;" horiz-adv-x="1458" d="M147 561q0 172 59.5 351.5t158.5 301.5q195 242 499 242q250 0 393.5 -159.5t143.5 -428.5q0 -174 -59.5 -353t-157.5 -300q-195 -242 -498 -242q-252 0 -395.5 160t-143.5 428zM236 559q0 -233 121.5 -372.5t334.5 -139.5q264 0 436 227q82 109 133.5 278t51.5 316 q0 233 -122 373.5t-335 140.5q-264 0 -434 -227q-84 -111 -135 -278.5t-51 -317.5zM444 555q0 117 38 241t96 208q109 164 284 163q141 0 228 -67l-41 -195h-70l4 152q-51 33 -123 33q-63 0 -108 -32t-84 -110q-102 -205 -103 -401q0 -209 158 -209q80 0 133 27l66 155h71 l-43 -192q-88 -66 -233 -66q-133 0 -203 76t-70 217z" />
<glyph unicode="&#xaa;" horiz-adv-x="968" d="M133 666q0 174 55 327q51 145 140.5 236.5t218.5 91.5t223 -115l53 97h90l-153 -717q-12 -53 -12 -76t24 -23h113v-57q-100 -47 -166 -47t-81 40t-5 107q-45 -45 -78 -71.5t-87 -51t-112 -24.5q-100 0 -161.5 71t-61.5 212zM256 664q0 -188 135 -189q25 0 52.5 7t45 14.5 t46 28t37 26.5t38.5 33l33 26l111 516q-94 109 -201 109q-82 0 -141.5 -64.5t-104.5 -205.5q-51 -160 -51 -301z" />
<glyph unicode="&#xab;" horiz-adv-x="962" d="M135 514l363 420l63 -57l-278 -373l125 -383l-78 -43zM481 514l363 420l63 -57l-278 -373l125 -383l-78 -43z" />
<glyph unicode="&#xac;" horiz-adv-x="929" d="M168 612l25 105h614l-84 -395h-115l62 290h-502z" />
<glyph unicode="&#xad;" horiz-adv-x="591" d="M96 492l25 118h368l-24 -118h-369z" />
<glyph unicode="&#xae;" horiz-adv-x="1083" d="M174 821q0 162 63.5 307.5t170.5 227.5q119 94 274 94q180 0 285.5 -109.5t105.5 -306.5q0 -164 -63.5 -308t-167.5 -226q-119 -94 -277 -94q-178 0 -284.5 109t-106.5 306zM262 813q0 -160 79 -248t226 -88q141 0 242 92q82 72 130 203t48 270q0 160 -79 248t-226 88 q-141 0 -244 -90q-80 -72 -128 -204t-48 -271zM352 655l10 45l54 7l102 467l-49 6l8 47h209q160 0 160 -129q0 -82 -47 -128t-125 -52v-7q57 -12 71 -92l21 -112l57 -7l-10 -45h-125l-31 150q-10 49 -25.5 68.5t-49.5 19.5h-39l-41 -186l51 -7l-12 -45h-189zM555 948h59 q59 0 93 27q47 39 47 121q0 78 -78 78h-70z" />
<glyph unicode="&#xaf;" horiz-adv-x="1116" d="M354 1227l23 104h467l-23 -104h-467z" />
<glyph unicode="&#xb0;" horiz-adv-x="757" d="M158 1034q0 152 88 264q90 121 250 121q123 0 192.5 -73.5t71.5 -198.5q0 -141 -72 -250q-94 -139 -266 -139q-121 0 -192.5 73.5t-71.5 202.5zM272 1018q0 -172 154 -172q113 0 170 102q49 88 49 211q0 172 -153 172q-98 0 -156 -78q-29 -39 -46.5 -108.5t-17.5 -126.5z " />
<glyph unicode="&#xb1;" horiz-adv-x="1056" d="M39 63l22 103h760l-20 -103h-762zM152 584l22 104h322l69 324h117l-72 -324h322l-21 -104h-321l-64 -293h-116l63 293h-321z" />
<glyph unicode="&#xb2;" horiz-adv-x="735" d="M70 516l22 107q299 188 404.5 315t105.5 240q0 63 -36 104t-101 41q-88 0 -193 -55l-41 67q131 86 252 86q113 0 180.5 -66.5t67.5 -172.5q0 -268 -518 -564h438l-24 -102h-557z" />
<glyph unicode="&#xb3;" horiz-adv-x="716" d="M61 569l25 78q119 -55 240 -55q106 0 160.5 58.5t54.5 152.5q0 145 -179 145h-65l20 86h66q111 0 158 42t47 126q0 57 -40 91t-116 34q-94 0 -184 -45l-35 70q113 70 246 69q113 0 183.5 -56t70.5 -155q0 -88 -51.5 -146t-143.5 -75q68 -20 110 -70.5t42 -117.5 q0 -135 -89 -217t-251 -82q-134 -1 -269 67z" />
<glyph unicode="&#xb4;" horiz-adv-x="1116" d="M369 1190l360 248l62 -123l-388 -189z" />
<glyph unicode="&#xb5;" horiz-adv-x="1069" d="M-10 -414l274 1299l-127 22l19 80h262l-152 -708q-10 -51 -10 -89q0 -111 109 -110q115 0 301 141l163 766h132l-168 -799q-14 -61 -15 -79q0 -25 27 -25h119v-53q-106 -51 -176 -51q-74 0 -89.5 39.5t-3.5 119.5q-188 -160 -331 -159q-72 0 -113 36l-92 -430h-129z" />
<glyph unicode="&#xb6;" horiz-adv-x="1130" d="M229 1024q0 180 111 281.5t295 101.5h573l-18 -80l-148 -14l-317 -1491h-119l316 1491h-166l-316 -1491h-118l194 923h-12q-127 0 -201 77t-74 202z" />
<glyph unicode="&#xb7;" horiz-adv-x="479" d="M156 639q0 47 31.5 79t76.5 32q47 0 78 -32t31 -79q0 -45 -31 -77t-78 -32q-45 0 -76.5 32t-31.5 77z" />
<glyph unicode="&#xb8;" horiz-adv-x="1116" d="M287 -367l37 64q55 -41 110 -41q86 0 86 92q0 72 -80 72q-25 0 -69 -8l123 215h77l-84 -140q133 -16 134 -141q0 -74 -46.5 -121t-140.5 -47q-79 0 -147 55z" />
<glyph unicode="&#xb9;" horiz-adv-x="638" d="M90 516l16 74l189 22l133 631l-188 -72l-23 64l287 172h80l-168 -795l180 -22l-14 -74h-492z" />
<glyph unicode="&#xba;" horiz-adv-x="927" d="M137 719q0 231 105 409q113 193 327 193q141 0 224.5 -87t83.5 -249q0 -104 -29 -218t-76 -192q-115 -193 -328 -192q-141 0 -224 87t-83 249zM260 702q0 -231 193 -231q74 0 127 37t94 127q35 72 58.5 178.5t23.5 187.5q0 231 -193 232q-76 0 -128 -36t-93 -126 q-35 -74 -58.5 -180.5t-23.5 -188.5z" />
<glyph unicode="&#xbb;" horiz-adv-x="962" d="M70 135l278 373l-125 383l80 43l195 -436l-363 -420zM416 135l278 373l-125 383l80 43l193 -436l-363 -420z" />
<glyph unicode="&#xbc;" horiz-adv-x="1740" d="M86 516l16 74l189 22l133 631l-191 -72l-22 64l289 172h80l-168 -795l180 -22l-17 -74h-489zM319 -68l1074 1479h114l-1073 -1479h-115zM922 100l20 93l428 591h117l-424 -594h328l79 381l127 23l-86 -404h105l-21 -90h-102l-43 -209h-123l43 209h-448z" />
<glyph unicode="&#xbd;" horiz-adv-x="1796" d="M86 516l16 74l189 22l133 631l-191 -72l-22 64l289 172h80l-168 -795l180 -22l-17 -74h-489zM319 -68l1074 1479h114l-1073 -1479h-115zM1024 -109l23 107q299 188 404 315t105 240q0 63 -35.5 104t-101.5 41q-88 0 -192 -55l-41 68q131 86 252 86q113 0 180.5 -66.5 t67.5 -173.5q0 -268 -519 -563h437l-23 -103h-557z" />
<glyph unicode="&#xbe;" horiz-adv-x="1759" d="M61 569l25 78q119 -55 240 -55q106 0 160.5 58.5t54.5 152.5q0 145 -179 145h-65l20 86h66q111 0 158 42t47 126q0 57 -40 91t-116 34q-94 0 -184 -45l-35 70q113 70 246 69q113 0 183.5 -56t70.5 -155q0 -88 -51.5 -146t-143.5 -75q68 -20 110 -70.5t42 -117.5 q0 -135 -89 -217t-251 -82q-134 -1 -269 67zM342 -68l1073 1479h115l-1075 -1479h-113zM942 100l19 93l428 589h118l-426 -592h330l80 379l127 25l-86 -404h102l-18 -90h-105l-43 -209h-120l43 209h-449z" />
<glyph unicode="&#xbf;" horiz-adv-x="882" d="M41 -158q0 80 20.5 140.5t70.5 108.5t83 70.5t107 65.5q76 47 111.5 90t53.5 121l35 166h107l-41 -196q-25 -113 -74 -170.5t-137 -110.5q-57 -33 -82 -51.5t-58.5 -52t-47 -76.5t-13.5 -105q0 -86 45 -136t137 -50q78 0 166 33l78 170h84l-47 -219q-127 -74 -289 -74 q-141 0 -225 72.5t-84 203.5zM514 899q0 47 32 78t77 31t76.5 -32t31.5 -77t-31.5 -76.5t-76.5 -31.5t-77 30.5t-32 77.5z" />
<glyph unicode="&#xc0;" horiz-adv-x="1163" d="M-123 0l14 78l146 18l682 1311h129l131 -1311l129 -18l-14 -78h-416l16 78l148 18l-35 365h-463l-184 -363l137 -20l-14 -78h-406zM389 553h410l-41 428q-16 170 -10 305h-5q-41 -119 -133 -305zM586 1688l86 110l303 -244l-43 -61z" />
<glyph unicode="&#xc1;" horiz-adv-x="1163" d="M-123 0l14 78l146 18l682 1311h129l131 -1311l129 -18l-14 -78h-416l16 78l148 18l-35 365h-463l-184 -363l137 -20l-14 -78h-406zM389 553h410l-41 428q-16 170 -10 305h-5q-41 -119 -133 -305zM604 1567l361 248l61 -123l-387 -189z" />
<glyph unicode="&#xc2;" horiz-adv-x="1163" d="M-123 0l14 78l146 18l682 1311h129l131 -1311l129 -18l-14 -78h-416l16 78l148 18l-35 365h-463l-184 -363l137 -20l-14 -78h-406zM389 553h410l-41 428q-16 170 -10 305h-5q-41 -119 -133 -305zM557 1550l268 252h82l183 -252l-56 -49l-182 172l-254 -172z" />
<glyph unicode="&#xc3;" horiz-adv-x="1163" d="M-123 0l14 78l146 18l682 1311h129l131 -1311l129 -18l-14 -78h-416l16 78l148 18l-35 365h-463l-184 -363l137 -20l-14 -78h-406zM389 553h410l-41 428q-16 170 -10 305h-5q-41 -119 -133 -305zM532 1559q82 152 189 151q49 0 117.5 -39t101.5 -39q51 0 119 82l55 -43 q-84 -154 -188 -153q-49 0 -118 38.5t-101 38.5q-55 0 -119 -82z" />
<glyph unicode="&#xc4;" horiz-adv-x="1163" d="M-123 0l14 78l146 18l682 1311h129l131 -1311l129 -18l-14 -78h-416l16 78l148 18l-35 365h-463l-184 -363l137 -20l-14 -78h-406zM389 553h410l-41 428q-16 170 -10 305h-5q-41 -119 -133 -305zM532 1614q0 41 28 69.5t69 28.5t68.5 -28.5t27.5 -69.5t-27.5 -69.5 t-66.5 -28.5q-41 0 -70 28.5t-29 69.5zM893 1614q0 41 27.5 69.5t68.5 28.5t68.5 -28.5t27.5 -69.5t-27.5 -69.5t-66.5 -28.5q-41 0 -69.5 28.5t-28.5 69.5z" />
<glyph unicode="&#xc5;" horiz-adv-x="1163" d="M-123 0l14 78l146 18l682 1311h129l131 -1311l129 -18l-14 -78h-416l16 78l148 18l-35 365h-463l-184 -363l137 -20l-14 -78h-406zM389 553h410l-41 428q-16 170 -10 305h-5q-41 -119 -133 -305zM643 1642q0 35 8 66q14 66 65.5 110t125.5 44q80 0 125 -46.5t45 -115.5 q0 -33 -8 -64q-12 -66 -63.5 -110.5t-127.5 -44.5q-80 0 -125 45.5t-45 115.5zM733 1642q0 -88 78 -88q84 0 107 103q4 33 4 45q0 86 -78 86q-86 0 -105 -100q-6 -26 -6 -46z" />
<glyph unicode="&#xc6;" horiz-adv-x="1685" d="M-123 0l14 78l146 18l903 1217l-141 14l16 80h952l-51 -281h-84l4 189h-438l-111 -531h322l55 138h74l-80 -367h-74l5 137h-322l-129 -600h471l70 193h84l-58 -285h-866l16 80l148 12l80 377h-447l-276 -371l139 -20l-16 -78h-406zM504 561h397l105 488q45 203 69 276h-2 z" />
<glyph unicode="&#xc7;" horiz-adv-x="1069" d="M123 416q0 213 78 462.5t213 385.5q166 164 391 163q211 0 315 -90l-45 -250h-84l-2 211q-74 37 -194 37q-213 0 -342 -209q-80 -127 -135.5 -343t-55.5 -392q0 -317 291 -317q131 0 229 49l84 201h84l-55 -256q-152 -88 -354 -88l-56 -93q133 -16 133 -141 q0 -74 -46 -121t-140 -47q-80 0 -147 55l37 64q55 -41 110 -41q86 0 86 92q0 72 -80 72q-25 0 -69 -8l98 172q-170 20 -257 131t-87 301z" />
<glyph unicode="&#xc8;" horiz-adv-x="1026" d="M-20 0l16 80l149 12l258 1221l-141 14l17 80h829l-51 -281h-84l4 189h-438l-111 -531h322l57 138h72l-80 -367h-72l4 137h-323l-129 -600h473l67 193h86l-59 -285h-866zM543 1688l86 110l303 -244l-43 -61z" />
<glyph unicode="&#xc9;" horiz-adv-x="1026" d="M-20 0l16 80l149 12l258 1221l-141 14l17 80h829l-51 -281h-84l4 189h-438l-111 -531h322l57 138h72l-80 -367h-72l4 137h-323l-129 -600h473l67 193h86l-59 -285h-866zM569 1567l361 248l61 -123l-387 -189z" />
<glyph unicode="&#xca;" horiz-adv-x="1026" d="M-20 0l16 80l149 12l258 1221l-141 14l17 80h829l-51 -281h-84l4 189h-438l-111 -531h322l57 138h72l-80 -367h-72l4 137h-323l-129 -600h473l67 193h86l-59 -285h-866zM473 1550l268 252h82l183 -252l-56 -49l-182 172l-254 -172z" />
<glyph unicode="&#xcb;" horiz-adv-x="1026" d="M-20 0l16 80l149 12l258 1221l-141 14l17 80h829l-51 -281h-84l4 189h-438l-111 -531h322l57 138h72l-80 -367h-72l4 137h-323l-129 -600h473l67 193h86l-59 -285h-866zM475 1614q0 41 27.5 69.5t68.5 28.5t69 -28.5t28 -69.5t-28 -69.5t-67 -28.5q-41 0 -69.5 28.5 t-28.5 69.5zM836 1614q0 41 27.5 69.5t68.5 28.5t68.5 -28.5t27.5 -69.5t-27.5 -69.5t-66.5 -28.5q-41 0 -69.5 28.5t-28.5 69.5z" />
<glyph unicode="&#xcc;" horiz-adv-x="583" d="M-20 0l16 80l149 12l258 1221l-141 14l17 80h426l-17 -80l-149 -14l-258 -1221l141 -12l-14 -80h-428zM328 1688l86 110l303 -244l-43 -61z" />
<glyph unicode="&#xcd;" horiz-adv-x="583" d="M-20 0l16 80l149 12l258 1221l-141 14l17 80h426l-17 -80l-149 -14l-258 -1221l141 -12l-14 -80h-428zM334 1567l360 248l62 -123l-387 -189z" />
<glyph unicode="&#xce;" horiz-adv-x="583" d="M-20 0l16 80l149 12l258 1221l-141 14l17 80h426l-17 -80l-149 -14l-258 -1221l141 -12l-14 -80h-428zM258 1550l268 252h82l183 -252l-56 -49l-182 172l-254 -172z" />
<glyph unicode="&#xcf;" horiz-adv-x="583" d="M-20 0l16 80l149 12l258 1221l-141 14l17 80h426l-17 -80l-149 -14l-258 -1221l141 -12l-14 -80h-428zM254 1614q0 41 27.5 69.5t68.5 28.5t68.5 -28.5t27.5 -69.5t-27.5 -69.5t-66.5 -28.5q-41 0 -69.5 28.5t-28.5 69.5zM614 1614q0 41 28 69.5t69 28.5t68.5 -28.5 t27.5 -69.5t-27.5 -69.5t-66.5 -28.5q-41 0 -70 28.5t-29 69.5z" />
<glyph unicode="&#xd0;" horiz-adv-x="1226" d="M-20 0l16 80l149 12l123 588h-139l18 92h142l114 541l-141 14l17 80h446q467 0 467 -444q0 -182 -55.5 -392.5t-143.5 -324.5q-80 -137 -207 -191.5t-309 -54.5h-497zM281 92h206q279 0 387 201q72 104 124.5 310t52.5 362q0 350 -328 350h-184l-115 -543h291l-19 -92 h-293z" />
<glyph unicode="&#xd1;" horiz-adv-x="1277" d="M-20 0l16 80l149 12l258 1221l-141 14l17 80h272l295 -934q59 -197 74 -319h2q33 258 57 368l166 791l-141 14l16 80h397l-18 -80l-148 -14l-278 -1313h-111l-295 922q-59 188 -78 342h-2q-20 -160 -69 -392l-164 -780l141 -12l-14 -80h-401zM602 1559q82 152 189 151 q49 0 117.5 -39t101.5 -39q51 0 118 82l56 -43q-84 -154 -189 -153q-49 0 -117.5 38.5t-101.5 38.5q-55 0 -119 -82z" />
<glyph unicode="&#xd2;" d="M123 399q0 209 70.5 451t193.5 383q166 195 416 194q197 0 297 -108.5t100 -312.5q0 -207 -70.5 -448t-191.5 -384q-164 -195 -414 -194q-197 0 -299 107t-102 312zM262 383q0 -305 275 -305q207 0 335 209q78 129 133.5 350t55.5 385q0 307 -273 307q-209 0 -335 -207 q-80 -131 -135.5 -354t-55.5 -385zM662 1688l86 110l303 -244l-43 -61z" />
<glyph unicode="&#xd3;" d="M123 399q0 209 70.5 451t193.5 383q166 195 416 194q197 0 297 -108.5t100 -312.5q0 -207 -70.5 -448t-191.5 -384q-164 -195 -414 -194q-197 0 -299 107t-102 312zM262 383q0 -305 275 -305q207 0 335 209q78 129 133.5 350t55.5 385q0 307 -273 307q-209 0 -335 -207 q-80 -131 -135.5 -354t-55.5 -385zM657 1567l361 248l61 -123l-387 -189z" />
<glyph unicode="&#xd4;" d="M123 399q0 209 70.5 451t193.5 383q166 195 416 194q197 0 297 -108.5t100 -312.5q0 -207 -70.5 -448t-191.5 -384q-164 -195 -414 -194q-197 0 -299 107t-102 312zM262 383q0 -305 275 -305q207 0 335 209q78 129 133.5 350t55.5 385q0 307 -273 307q-209 0 -335 -207 q-80 -131 -135.5 -354t-55.5 -385zM590 1550l268 252h82l182 -252l-55 -49l-182 172l-254 -172z" />
<glyph unicode="&#xd5;" d="M123 399q0 209 70.5 451t193.5 383q166 195 416 194q197 0 297 -108.5t100 -312.5q0 -207 -70.5 -448t-191.5 -384q-164 -195 -414 -194q-197 0 -299 107t-102 312zM262 383q0 -305 275 -305q207 0 335 209q78 129 133.5 350t55.5 385q0 307 -273 307q-209 0 -335 -207 q-80 -131 -135.5 -354t-55.5 -385zM567 1559q82 152 189 151q49 0 117.5 -39t101.5 -39q51 0 119 82l55 -43q-84 -154 -188 -153q-49 0 -118 38.5t-102 38.5q-55 0 -118 -82z" />
<glyph unicode="&#xd6;" d="M123 399q0 209 70.5 451t193.5 383q166 195 416 194q197 0 297 -108.5t100 -312.5q0 -207 -70.5 -448t-191.5 -384q-164 -195 -414 -194q-197 0 -299 107t-102 312zM262 383q0 -305 275 -305q207 0 335 209q78 129 133.5 350t55.5 385q0 307 -273 307q-209 0 -335 -207 q-80 -131 -135.5 -354t-55.5 -385zM578 1614q0 41 27.5 69.5t68.5 28.5t68.5 -28.5t27.5 -69.5t-27.5 -69.5t-66.5 -28.5q-41 0 -69.5 28.5t-28.5 69.5zM938 1614q0 41 27.5 69.5t68.5 28.5t68.5 -28.5t27.5 -69.5t-27.5 -69.5t-66.5 -28.5q-41 0 -69.5 28.5t-28.5 69.5z " />
<glyph unicode="&#xd7;" horiz-adv-x="989" d="M106 303l320 285l-215 282l86 70l211 -276l307 280l70 -80l-314 -280l215 -283l-84 -72l-215 279l-311 -283z" />
<glyph unicode="&#xd8;" d="M12 -76l168 221q-57 96 -57 254q0 209 70.5 451t193.5 383q166 195 416 194q184 0 284 -96l146 191l76 -60l-162 -211q53 -100 53 -245q0 -207 -70.5 -448t-191.5 -384q-164 -195 -414 -194q-180 0 -280 88l-156 -203zM262 383q0 -63 12 -117l736 963q-68 100 -222 100 q-209 0 -335 -207q-80 -131 -135.5 -354t-55.5 -385zM319 168q66 -90 218 -90q207 0 335 209q78 129 133.5 350t55.5 385q0 51 -10 102z" />
<glyph unicode="&#xd9;" horiz-adv-x="1224" d="M154 264q0 72 16 144l190 905l-143 14l19 80h280l-211 -989q-16 -82 -16 -139q0 -100 49 -145.5t149 -45.5q180 0 357 148l229 1077l-141 14l16 80h281l-279 -1315l142 -12l-17 -80h-244l3 137q-190 -158 -385 -157q-137 0 -216 69.5t-79 214.5zM600 1688l86 110 l303 -244l-43 -61z" />
<glyph unicode="&#xda;" horiz-adv-x="1224" d="M154 264q0 72 16 144l190 905l-143 14l19 80h280l-211 -989q-16 -82 -16 -139q0 -100 49 -145.5t149 -45.5q180 0 357 148l229 1077l-141 14l16 80h281l-279 -1315l142 -12l-17 -80h-244l3 137q-190 -158 -385 -157q-137 0 -216 69.5t-79 214.5zM608 1567l361 248 l61 -123l-387 -189z" />
<glyph unicode="&#xdb;" horiz-adv-x="1224" d="M154 264q0 72 16 144l190 905l-143 14l19 80h280l-211 -989q-16 -82 -16 -139q0 -100 49 -145.5t149 -45.5q180 0 357 148l229 1077l-141 14l16 80h281l-279 -1315l142 -12l-17 -80h-244l3 137q-190 -158 -385 -157q-137 0 -216 69.5t-79 214.5zM551 1550l268 252h82 l182 -252l-55 -49l-182 172l-254 -172z" />
<glyph unicode="&#xdc;" horiz-adv-x="1224" d="M154 264q0 72 16 144l190 905l-143 14l19 80h280l-211 -989q-16 -82 -16 -139q0 -100 49 -145.5t149 -45.5q180 0 357 148l229 1077l-141 14l16 80h281l-279 -1315l142 -12l-17 -80h-244l3 137q-190 -158 -385 -157q-137 0 -216 69.5t-79 214.5zM516 1614q0 41 27.5 69.5 t68.5 28.5t69 -28.5t28 -69.5t-28 -69.5t-67 -28.5q-41 0 -69.5 28.5t-28.5 69.5zM877 1614q0 41 27.5 69.5t68.5 28.5t68.5 -28.5t27.5 -69.5t-27.5 -69.5t-66.5 -28.5q-41 0 -69.5 28.5t-28.5 69.5z" />
<glyph unicode="&#xdd;" horiz-adv-x="1107" d="M195 1327l16 80h403l-16 -80l-147 -14l116 -471q27 -106 31 -207h4q27 76 109 196l317 482l-139 14l16 80h391l-16 -80l-127 -14l-514 -758l-98 -463l143 -12l-16 -80h-426l16 80l148 12l100 465l-195 756zM604 1567l361 248l61 -123l-387 -189z" />
<glyph unicode="&#xde;" horiz-adv-x="1044" d="M-20 0l16 80l149 12l258 1221l-141 14l17 80h426l-17 -80l-149 -14l-41 -187h204q360 0 361 -311q0 -143 -55.5 -258t-153.5 -180q-115 -74 -295 -74h-233l-45 -211l194 -14l-16 -78h-479zM344 395h209q147 0 238 76q125 109 124 352q0 211 -237 211h-199z" />
<glyph unicode="&#xdf;" horiz-adv-x="1011" d="M-117 -371q70 49 114 124t75 229l172 901l-111 26l17 78h118l27 141q31 168 123 259.5t241 91.5q131 0 204 -77t73 -196q0 -68 -27.5 -122t-67.5 -87.5t-80 -62.5t-67.5 -58.5t-27.5 -62.5q0 -45 67 -119q53 -63 82 -100t61.5 -111.5t32.5 -146.5q0 -172 -99 -264 t-247 -92q-74 0 -136 24.5t-89 52.5l31 68q96 -53 182 -53q104 0 166.5 69.5t62.5 192.5q0 125 -147 295q-86 100 -86 176q0 59 42 106t91 76t91 87.5t42 137.5q0 82 -41 130.5t-121 48.5q-98 0 -152.5 -67t-82.5 -212l-226 -1157q-29 -147 -90 -233.5t-180 -151.5z" />
<glyph unicode="&#xe0;" horiz-adv-x="1030" d="M88 289q0 162 51 332t146 266q102 121 256 121q145 0 254 -129l57 108h98l-172 -799q-14 -61 -14 -79q0 -25 29 -25h118v-53q-106 -51 -176 -51q-51 0 -74.5 24.5t-22.5 60t5 74.5q-164 -160 -311 -159q-109 0 -176.5 77.5t-67.5 231.5zM221 287q0 -211 150 -211 q104 0 286 151l119 568q-104 123 -227 123q-135 0 -213 -154q-47 -92 -81 -230t-34 -247zM473 1321l88 113l303 -246l-45 -62z" />
<glyph unicode="&#xe1;" horiz-adv-x="1030" d="M88 289q0 162 51 332t146 266q102 121 256 121q145 0 254 -129l57 108h98l-172 -799q-14 -61 -14 -79q0 -25 29 -25h118v-53q-106 -51 -176 -51q-51 0 -74.5 24.5t-22.5 60t5 74.5q-164 -160 -311 -159q-109 0 -176.5 77.5t-67.5 231.5zM221 287q0 -211 150 -211 q104 0 286 151l119 568q-104 123 -227 123q-135 0 -213 -154q-47 -92 -81 -230t-34 -247zM467 1190l360 248l62 -123l-387 -189z" />
<glyph unicode="&#xe2;" horiz-adv-x="1030" d="M88 289q0 162 51 332t146 266q102 121 256 121q145 0 254 -129l57 108h98l-172 -799q-14 -61 -14 -79q0 -25 29 -25h118v-53q-106 -51 -176 -51q-51 0 -74.5 24.5t-22.5 60t5 74.5q-164 -160 -311 -159q-109 0 -176.5 77.5t-67.5 231.5zM221 287q0 -211 150 -211 q104 0 286 151l119 568q-104 123 -227 123q-135 0 -213 -154q-47 -92 -81 -230t-34 -247zM391 1184l268 252h84l183 -252l-56 -49l-182 172l-256 -172z" />
<glyph unicode="&#xe3;" horiz-adv-x="1030" d="M88 289q0 162 51 332t146 266q102 121 256 121q145 0 254 -129l57 108h98l-172 -799q-14 -61 -14 -79q0 -25 29 -25h118v-53q-106 -51 -176 -51q-51 0 -74.5 24.5t-22.5 60t5 74.5q-164 -160 -311 -159q-109 0 -176.5 77.5t-67.5 231.5zM221 287q0 -211 150 -211 q104 0 286 151l119 568q-104 123 -227 123q-135 0 -213 -154q-47 -92 -81 -230t-34 -247zM369 1198q82 150 188 150q49 0 117.5 -39t103.5 -39q55 0 117 84l57 -45q-86 -154 -188 -154q-49 0 -119 40t-102 40q-49 0 -119 -84z" />
<glyph unicode="&#xe4;" horiz-adv-x="1030" d="M88 289q0 162 51 332t146 266q102 121 256 121q145 0 254 -129l57 108h98l-172 -799q-14 -61 -14 -79q0 -25 29 -25h118v-53q-106 -51 -176 -51q-51 0 -74.5 24.5t-22.5 60t5 74.5q-164 -160 -311 -159q-109 0 -176.5 77.5t-67.5 231.5zM221 287q0 -211 150 -211 q104 0 286 151l119 568q-104 123 -227 123q-135 0 -213 -154q-47 -92 -81 -230t-34 -247zM383 1235q0 41 27.5 68.5t68.5 27.5t68.5 -27.5t27.5 -68.5q0 -43 -27.5 -70.5t-68.5 -27.5t-68.5 27.5t-27.5 70.5zM743 1235q0 41 28 68.5t69 27.5t68.5 -27.5t27.5 -68.5 q0 -43 -27.5 -70.5t-68.5 -27.5t-69 27.5t-28 70.5z" />
<glyph unicode="&#xe5;" horiz-adv-x="1030" d="M88 289q0 162 51 332t146 266q102 121 256 121q145 0 254 -129l57 108h98l-172 -799q-14 -61 -14 -79q0 -25 29 -25h118v-53q-106 -51 -176 -51q-51 0 -74.5 24.5t-22.5 60t5 74.5q-164 -160 -311 -159q-109 0 -176.5 77.5t-67.5 231.5zM221 287q0 -211 150 -211 q104 0 286 151l119 568q-104 123 -227 123q-135 0 -213 -154q-47 -92 -81 -230t-34 -247zM469 1286q0 33 8 64q12 66 63.5 110.5t127.5 44.5q80 0 125 -47t45 -117q0 -33 -9 -63q-14 -66 -65 -111t-125 -45q-80 0 -125 47t-45 117zM559 1284q0 -88 78 -88q86 0 104 102 q6 25 7 45q0 88 -80 89q-82 0 -105 -103q-4 -33 -4 -45z" />
<glyph unicode="&#xe6;" horiz-adv-x="1388" d="M39 233q0 166 118.5 236t360.5 70h115l31 153q8 35 8 74q0 66 -41 105.5t-119 39.5q-133 0 -279 -90l-34 68q154 119 333 119q96 0 161 -42t81 -118q119 160 313 160q131 0 199 -67t68 -171q0 -100 -53.5 -165.5t-153.5 -94.5t-189.5 -39t-216.5 -10q-12 -86 -12 -142 q0 -121 58.5 -184t166.5 -63q125 0 256 92l33 -64q-123 -121 -330 -120q-106 0 -182 49t-106 141q-141 -190 -334 -190q-115 0 -183.5 69t-68.5 184zM170 233q0 -72 38 -113.5t107 -41.5q137 0 267 151q0 14 7 63.5t15 104t10 64.5h-96q-193 0 -270.5 -53.5t-77.5 -174.5z M758 539q246 4 355.5 52t109.5 183q0 72 -37 112t-105 40q-154 0 -252 -187q-42 -79 -71 -200z" />
<glyph unicode="&#xe7;" horiz-adv-x="841" d="M88 338q0 115 33 239.5t84 210.5q127 219 381 220q160 0 256 -74l-35 -193h-88v154q-57 29 -133 29q-184 0 -281 -207q-35 -78 -58.5 -191.5t-23.5 -203.5q0 -250 219 -250q129 0 254 88l35 -62q-106 -106 -301 -118l-55 -93q133 -16 133 -141q0 -74 -46 -121t-140 -47 q-80 0 -148 55l37 64q55 -41 111 -41q86 0 86 92q0 72 -80 72q-25 0 -70 -8l96 170q-266 30 -266 356z" />
<glyph unicode="&#xe8;" horiz-adv-x="878" d="M88 334q0 115 35 241.5t90 215.5q133 217 360 217q135 0 203 -67t68 -171q0 -100 -54.5 -167.5t-152.5 -97.5t-191.5 -41t-214.5 -11q-12 -68 -12 -134q0 -121 58.5 -184t166.5 -63q125 0 256 92l35 -64q-127 -121 -332 -120q-147 0 -231 91t-84 263zM246 528 q244 4 355.5 57.5t111.5 188.5q0 72 -37 112t-105 40q-150 0 -252 -187q-44 -88 -73 -211zM428 1321l88 113l303 -246l-45 -62z" />
<glyph unicode="&#xe9;" horiz-adv-x="878" d="M88 334q0 115 35 241.5t90 215.5q133 217 360 217q135 0 203 -67t68 -171q0 -100 -54.5 -167.5t-152.5 -97.5t-191.5 -41t-214.5 -11q-12 -68 -12 -134q0 -121 58.5 -184t166.5 -63q125 0 256 92l35 -64q-127 -121 -332 -120q-147 0 -231 91t-84 263zM246 528 q244 4 355.5 57.5t111.5 188.5q0 72 -37 112t-105 40q-150 0 -252 -187q-44 -88 -73 -211zM422 1190l360 248l62 -123l-387 -189z" />
<glyph unicode="&#xea;" horiz-adv-x="878" d="M88 334q0 115 35 241.5t90 215.5q133 217 360 217q135 0 203 -67t68 -171q0 -100 -54.5 -167.5t-152.5 -97.5t-191.5 -41t-214.5 -11q-12 -68 -12 -134q0 -121 58.5 -184t166.5 -63q125 0 256 92l35 -64q-127 -121 -332 -120q-147 0 -231 91t-84 263zM246 528 q244 4 355.5 57.5t111.5 188.5q0 72 -37 112t-105 40q-150 0 -252 -187q-44 -88 -73 -211zM346 1184l268 252h84l183 -252l-56 -49l-182 172l-256 -172z" />
<glyph unicode="&#xeb;" horiz-adv-x="878" d="M88 334q0 115 35 241.5t90 215.5q133 217 360 217q135 0 203 -67t68 -171q0 -100 -54.5 -167.5t-152.5 -97.5t-191.5 -41t-214.5 -11q-12 -68 -12 -134q0 -121 58.5 -184t166.5 -63q125 0 256 92l35 -64q-127 -121 -332 -120q-147 0 -231 91t-84 263zM246 528 q244 4 355.5 57.5t111.5 188.5q0 72 -37 112t-105 40q-150 0 -252 -187q-44 -88 -73 -211zM338 1235q0 41 27.5 68.5t68.5 27.5t68.5 -27.5t27.5 -68.5q0 -43 -27.5 -70.5t-68.5 -27.5t-68.5 27.5t-27.5 70.5zM698 1235q0 41 28 68.5t69 27.5t68.5 -27.5t27.5 -68.5 q0 -43 -27.5 -70.5t-68.5 -27.5t-69 27.5t-28 70.5z" />
<glyph unicode="&#xec;" horiz-adv-x="514" d="M104 72q0 16 9 57l161 754l-131 26l19 78h262l-170 -799q-14 -61 -14 -79q0 -25 26 -25h121v-53q-109 -51 -178 -51q-101 0 -105 92zM160 1321l88 113l303 -246l-45 -62z" />
<glyph unicode="&#xed;" horiz-adv-x="514" d="M104 72q0 16 9 57l161 754l-131 26l19 78h262l-170 -799q-14 -61 -14 -79q0 -25 26 -25h121v-53q-109 -51 -178 -51q-101 0 -105 92zM217 1190l361 248l61 -123l-387 -189z" />
<glyph unicode="&#xee;" horiz-adv-x="514" d="M104 72q0 16 9 57l161 754l-131 26l19 78h262l-170 -799q-14 -61 -14 -79q0 -25 26 -25h121v-53q-109 -51 -178 -51q-101 0 -105 92zM111 1184l268 252h84l182 -252l-55 -49l-182 172l-256 -172z" />
<glyph unicode="&#xef;" horiz-adv-x="514" d="M100 1235q0 41 28 68.5t69 27.5t68.5 -27.5t27.5 -68.5q0 -43 -27.5 -70.5t-68.5 -27.5t-69 27.5t-28 70.5zM104 72q0 16 9 57l161 754l-131 26l19 78h262l-170 -799q-14 -61 -14 -79q0 -25 26 -25h121v-53q-109 -51 -178 -51q-101 0 -105 92zM461 1235q0 41 27.5 68.5 t68.5 27.5t68.5 -27.5t27.5 -68.5q0 -43 -27.5 -70.5t-68.5 -27.5t-68.5 27.5t-27.5 70.5z" />
<glyph unicode="&#xf0;" horiz-adv-x="974" d="M86 346q0 252 115 445q121 209 342 208q152 0 219 -108q-6 172 -111 321l-245 -118l-33 71l229 111q-74 82 -180 154l39 61q145 -76 233 -170l230 109l28 -72l-204 -101q143 -195 143 -487q0 -379 -117 -582q-119 -209 -354 -208q-156 0 -245 94t-89 272zM217 326 q0 -260 209 -260q86 0 144.5 44t105.5 148q84 186 84 404q0 254 -207 253q-86 0 -144.5 -40.5t-105.5 -145.5q-37 -80 -61.5 -194.5t-24.5 -208.5z" />
<glyph unicode="&#xf1;" horiz-adv-x="1044" d="M92 0l189 883l-129 26l16 78h223l-8 -160q72 80 165 130.5t179 50.5q92 0 143.5 -52.5t51.5 -150.5q0 -33 -11 -88l-112 -527q-14 -59 -15 -79q0 -27 33 -27h115v-53q-98 -49 -172 -49q-109 0 -109 92q0 8 13 73l116 560q10 51 11 77q0 111 -113 111q-119 0 -299 -145 l-160 -750h-127zM348 1198q82 150 189 150q49 0 117.5 -39t103.5 -39q55 0 116 84l58 -45q-86 -154 -189 -154q-49 0 -118.5 40t-102.5 40q-49 0 -119 -84z" />
<glyph unicode="&#xf2;" horiz-adv-x="978" d="M88 346q0 117 32 242t83 211q125 209 354 209q156 0 245 -92.5t89 -268.5q0 -119 -32 -242.5t-81 -209.5q-121 -215 -354 -215q-158 0 -247 93t-89 273zM217 326q0 -260 209 -260q86 0 145.5 44t104.5 148q35 76 59.5 194.5t24.5 215.5q0 254 -207 254q-88 0 -145.5 -42 t-104.5 -145q-37 -78 -61.5 -196.5t-24.5 -212.5zM424 1321l88 113l303 -246l-45 -62z" />
<glyph unicode="&#xf3;" horiz-adv-x="978" d="M88 346q0 117 32 242t83 211q125 209 354 209q156 0 245 -92.5t89 -268.5q0 -119 -32 -242.5t-81 -209.5q-121 -215 -354 -215q-158 0 -247 93t-89 273zM217 326q0 -260 209 -260q86 0 145.5 44t104.5 148q35 76 59.5 194.5t24.5 215.5q0 254 -207 254q-88 0 -145.5 -42 t-104.5 -145q-37 -78 -61.5 -196.5t-24.5 -212.5zM440 1190l361 248l61 -123l-387 -189z" />
<glyph unicode="&#xf4;" horiz-adv-x="978" d="M88 346q0 117 32 242t83 211q125 209 354 209q156 0 245 -92.5t89 -268.5q0 -119 -32 -242.5t-81 -209.5q-121 -215 -354 -215q-158 0 -247 93t-89 273zM217 326q0 -260 209 -260q86 0 145.5 44t104.5 148q35 76 59.5 194.5t24.5 215.5q0 254 -207 254q-88 0 -145.5 -42 t-104.5 -145q-37 -78 -61.5 -196.5t-24.5 -212.5zM352 1184l269 252h84l182 -252l-56 -49l-182 172l-256 -172z" />
<glyph unicode="&#xf5;" horiz-adv-x="978" d="M88 346q0 117 32 242t83 211q125 209 354 209q156 0 245 -92.5t89 -268.5q0 -119 -32 -242.5t-81 -209.5q-121 -215 -354 -215q-158 0 -247 93t-89 273zM217 326q0 -260 209 -260q86 0 145.5 44t104.5 148q35 76 59.5 194.5t24.5 215.5q0 254 -207 254q-88 0 -145.5 -42 t-104.5 -145q-37 -78 -61.5 -196.5t-24.5 -212.5zM322 1198q82 150 188 150q49 0 117.5 -39t103.5 -39q55 0 117 84l57 -45q-86 -154 -188 -154q-49 0 -119 40t-102 40q-49 0 -119 -84z" />
<glyph unicode="&#xf6;" horiz-adv-x="978" d="M88 346q0 117 32 242t83 211q125 209 354 209q156 0 245 -92.5t89 -268.5q0 -119 -32 -242.5t-81 -209.5q-121 -215 -354 -215q-158 0 -247 93t-89 273zM217 326q0 -260 209 -260q86 0 145.5 44t104.5 148q35 76 59.5 194.5t24.5 215.5q0 254 -207 254q-88 0 -145.5 -42 t-104.5 -145q-37 -78 -61.5 -196.5t-24.5 -212.5zM334 1235q0 41 27.5 68.5t68.5 27.5t68.5 -27.5t27.5 -68.5q0 -43 -27.5 -70.5t-68.5 -27.5t-68.5 27.5t-27.5 70.5zM694 1235q0 41 28 68.5t68.5 27.5t68.5 -27.5t28 -68.5q0 -43 -28 -70.5t-68.5 -27.5t-68.5 27.5 t-28 70.5z" />
<glyph unicode="&#xf7;" horiz-adv-x="1054" d="M141 541l23 104h758l-23 -104h-758zM356 248q0 45 30 74.5t73 29.5t72.5 -29.5t29.5 -74.5t-29.5 -74t-72.5 -29t-73 29t-30 74zM502 936q0 45 29.5 74.5t74.5 29.5q43 0 73 -29.5t30 -74.5t-30 -73.5t-73 -28.5q-45 0 -74.5 28.5t-29.5 73.5z" />
<glyph unicode="&#xf8;" horiz-adv-x="978" d="M-16 -76l155 197q-51 90 -51 225q0 117 32 242t83 211q125 209 354 209q139 0 225 -76l138 174l65 -53l-147 -187q53 -84 53 -219q0 -119 -32 -242.5t-81 -209.5q-121 -215 -354 -215q-143 0 -231 77l-146 -184zM217 326q0 -57 8 -97l492 619q-49 74 -164 74 q-88 0 -145.5 -42t-104.5 -145q-37 -78 -61.5 -196.5t-24.5 -212.5zM260 141q49 -76 166 -75q86 0 145.5 44t104.5 148q35 76 59.5 194.5t24.5 215.5q0 37 -8 90z" />
<glyph unicode="&#xf9;" horiz-adv-x="1038" d="M109 166q0 47 10 100l131 619l-125 22l16 80h262l-149 -706q-12 -61 -12 -88q0 -113 108 -113q113 0 303 141l162 766h131l-168 -799q-14 -61 -14 -79q0 -25 27 -25h120v-53q-109 -51 -178 -51q-51 0 -74.5 21.5t-23.5 57t6 80.5q-184 -160 -332 -159q-94 0 -147 48 t-53 138zM420 1321l88 113l303 -246l-45 -62z" />
<glyph unicode="&#xfa;" horiz-adv-x="1038" d="M109 166q0 47 10 100l131 619l-125 22l16 80h262l-149 -706q-12 -61 -12 -88q0 -113 108 -113q113 0 303 141l162 766h131l-168 -799q-14 -61 -14 -79q0 -25 27 -25h120v-53q-109 -51 -178 -51q-51 0 -74.5 21.5t-23.5 57t6 80.5q-184 -160 -332 -159q-94 0 -147 48 t-53 138zM444 1190l361 248l61 -123l-387 -189z" />
<glyph unicode="&#xfb;" horiz-adv-x="1038" d="M109 166q0 47 10 100l131 619l-125 22l16 80h262l-149 -706q-12 -61 -12 -88q0 -113 108 -113q113 0 303 141l162 766h131l-168 -799q-14 -61 -14 -79q0 -25 27 -25h120v-53q-109 -51 -178 -51q-51 0 -74.5 21.5t-23.5 57t6 80.5q-184 -160 -332 -159q-94 0 -147 48 t-53 138zM358 1184l269 252h84l182 -252l-55 -49l-183 172l-256 -172z" />
<glyph unicode="&#xfc;" horiz-adv-x="1038" d="M109 166q0 47 10 100l131 619l-125 22l16 80h262l-149 -706q-12 -61 -12 -88q0 -113 108 -113q113 0 303 141l162 766h131l-168 -799q-14 -61 -14 -79q0 -25 27 -25h120v-53q-109 -51 -178 -51q-51 0 -74.5 21.5t-23.5 57t6 80.5q-184 -160 -332 -159q-94 0 -147 48 t-53 138zM352 1235q0 41 28 68.5t68.5 27.5t68.5 -27.5t28 -68.5q0 -43 -28 -70.5t-68.5 -27.5t-68.5 27.5t-28 70.5zM713 1235q0 41 27.5 68.5t68.5 27.5t68.5 -27.5t27.5 -68.5q0 -43 -27.5 -70.5t-68.5 -27.5t-68.5 27.5t-27.5 70.5z" />
<glyph unicode="&#xfd;" horiz-adv-x="876" d="M-94 -319q147 35 232 103.5t169 215.5h-49l-76 883l-125 26l19 78h223l45 -600q14 -213 10 -295h2q33 84 119 258l322 637h123l-535 -1032q-92 -180 -188.5 -259t-259.5 -120zM401 1190l361 248l61 -123l-387 -189z" />
<glyph unicode="&#xfe;" horiz-adv-x="1048" d="M-131 -414l14 74l133 18l359 1686l-129 27l16 77h266l-133 -618q61 68 150.5 113t175.5 45q242 0 242 -297q0 -158 -51.5 -329t-143.5 -280q-104 -123 -268 -122.5t-262 129.5l-93 -431l129 -18l-16 -74h-389zM256 190q100 -121 231 -120q125 0 201 108q59 88 99 256 t40 289q0 184 -149 184q-133 0 -303 -149z" />
<glyph unicode="&#xff;" horiz-adv-x="876" d="M-94 -319q147 35 232 103.5t169 215.5h-49l-76 883l-125 26l19 78h223l45 -600q14 -213 10 -295h2q33 84 119 258l322 637h123l-535 -1032q-92 -180 -188.5 -259t-259.5 -120zM307 1235q0 41 27.5 68.5t68.5 27.5t69 -27.5t28 -68.5q0 -43 -28 -70.5t-69 -27.5 t-68.5 27.5t-27.5 70.5zM668 1235q0 41 27.5 68.5t68.5 27.5t68.5 -27.5t27.5 -68.5q0 -43 -27.5 -70.5t-68.5 -27.5t-68.5 27.5t-27.5 70.5z" />
<glyph unicode="&#x152;" horiz-adv-x="1656" d="M123 444q0 182 55 393.5t141 323.5q82 137 209 191.5t308 54.5h903l-51 -281h-84l4 189h-439l-112 -531h321l58 138h73l-79 -367h-74l4 137h-322l-129 -600h471l68 193h86l-59 -285h-887q-465 0 -465 444zM262 442q0 -176 80 -263t250 -87h182l260 1223h-207 q-281 0 -387 -201q-72 -104 -125 -310t-53 -362z" />
<glyph unicode="&#x153;" horiz-adv-x="1513" d="M88 346q0 117 32 242t83 211q125 209 354 209q236 0 301 -205q137 205 350 205q135 0 203 -67t68 -171q0 -100 -54.5 -167.5t-152.5 -97.5t-191.5 -41t-216.5 -11q-10 -76 -10 -134q0 -119 57.5 -183t165.5 -64q127 0 256 92l35 -64q-127 -121 -330 -120q-219 0 -284 190 q-119 -190 -330 -190q-158 0 -247 93t-89 273zM217 326q0 -260 209 -260q86 0 145.5 44t104.5 148q35 76 59.5 194.5t24.5 215.5q0 254 -207 254q-88 0 -145.5 -42t-104.5 -145q-37 -78 -61.5 -196.5t-24.5 -212.5zM881 528q244 4 355.5 57.5t111.5 188.5q0 72 -38 112 t-106 40q-152 0 -250 -187q-42 -78 -73 -211z" />
<glyph unicode="&#x178;" horiz-adv-x="1107" d="M195 1327l16 80h403l-16 -80l-147 -14l116 -471q27 -106 31 -207h4q27 76 109 196l317 482l-139 14l16 80h391l-16 -80l-127 -14l-514 -758l-98 -463l143 -12l-16 -80h-426l16 80l148 12l100 465l-195 756zM508 1614q0 41 27.5 69.5t68.5 28.5t68.5 -28.5t27.5 -69.5 t-27.5 -69.5t-66.5 -28.5q-41 0 -69.5 28.5t-28.5 69.5zM868 1614q0 41 28 69.5t69 28.5t68.5 -28.5t27.5 -69.5t-27.5 -69.5t-66.5 -28.5q-41 0 -70 28.5t-29 69.5z" />
<glyph unicode="&#x2c6;" horiz-adv-x="1116" d="M322 1184l268 252h84l182 -252l-55 -49l-183 172l-256 -172z" />
<glyph unicode="&#x2dc;" horiz-adv-x="1116" d="M315 1198q82 150 189 150q49 0 117.5 -39t103.5 -39q55 0 117 84l57 -45q-86 -154 -188 -154q-49 0 -119 40t-103 40q-49 0 -118 -84z" />
<glyph unicode="&#x2000;" horiz-adv-x="929" />
<glyph unicode="&#x2001;" horiz-adv-x="1861" />
<glyph unicode="&#x2002;" horiz-adv-x="929" />
<glyph unicode="&#x2003;" horiz-adv-x="1861" />
<glyph unicode="&#x2004;" horiz-adv-x="620" />
<glyph unicode="&#x2005;" horiz-adv-x="464" />
<glyph unicode="&#x2006;" horiz-adv-x="309" />
<glyph unicode="&#x2007;" horiz-adv-x="309" />
<glyph unicode="&#x2008;" horiz-adv-x="231" />
<glyph unicode="&#x2009;" horiz-adv-x="370" />
<glyph unicode="&#x200a;" horiz-adv-x="102" />
<glyph unicode="&#x2010;" horiz-adv-x="591" d="M96 492l25 118h368l-24 -118h-369z" />
<glyph unicode="&#x2011;" horiz-adv-x="591" d="M96 492l25 118h368l-24 -118h-369z" />
<glyph unicode="&#x2012;" horiz-adv-x="591" d="M96 492l25 118h368l-24 -118h-369z" />
<glyph unicode="&#x2013;" horiz-adv-x="1040" d="M96 522l23 101h819l-23 -101h-819z" />
<glyph unicode="&#x2014;" horiz-adv-x="1452" d="M96 522l23 101h1231l-23 -101h-1231z" />
<glyph unicode="&#x2018;" horiz-adv-x="466" d="M258 1120q0 100 68.5 187.5t201.5 115.5v-65q-129 -55 -145 -158q37 -4 63.5 -31.5t26.5 -70.5q0 -45 -30.5 -76t-73.5 -31q-49 0 -80 34t-31 95z" />
<glyph unicode="&#x2019;" horiz-adv-x="466" d="M244 993v66q129 53 145 155q-37 4 -63.5 32t-26.5 71q0 45 30.5 75.5t73.5 30.5q49 0 80 -32.5t31 -94.5q0 -100 -68.5 -187t-201.5 -116z" />
<glyph unicode="&#x201a;" horiz-adv-x="466" d="M4 -156q129 55 146 158q-37 4 -64 31.5t-27 70.5q0 45 31 76t74 31q47 0 77.5 -34t30.5 -95q0 -100 -67.5 -187.5t-200.5 -115.5v65z" />
<glyph unicode="&#x201c;" horiz-adv-x="804" d="M258 1120q0 100 68.5 187.5t201.5 115.5v-65q-129 -53 -145 -156q37 -4 63.5 -31.5t26.5 -70.5q0 -45 -30.5 -76t-73.5 -31q-49 0 -80 33t-31 94zM596 1120q0 100 68.5 187.5t201.5 115.5v-65q-129 -51 -147 -156q37 -4 63.5 -31.5t26.5 -70.5q0 -45 -30.5 -76t-73.5 -31 q-47 0 -78 33t-31 94z" />
<glyph unicode="&#x201d;" horiz-adv-x="804" d="M244 993v66q129 53 145 155q-37 4 -63.5 32t-26.5 71q0 45 30.5 75.5t73.5 30.5q49 0 80 -32.5t31 -94.5q0 -100 -68.5 -187t-201.5 -116zM582 993v66q125 51 145 155q-37 4 -63.5 32t-26.5 71q0 45 30.5 75.5t73.5 30.5q47 0 78 -32.5t31 -94.5q0 -100 -67.5 -187 t-200.5 -116z" />
<glyph unicode="&#x201e;" horiz-adv-x="804" d="M4 -156q129 55 146 158q-37 4 -64 31.5t-27 70.5q0 45 31 76t74 31q47 0 77.5 -34t30.5 -95q0 -100 -67.5 -187.5t-200.5 -115.5v65zM340 -156q129 55 145 158q-35 4 -62.5 31.5t-27.5 70.5q0 45 32 76t75 31q47 0 77.5 -34t30.5 -95q0 -100 -68.5 -187.5t-201.5 -115.5 v65z" />
<glyph unicode="&#x2022;" horiz-adv-x="632" d="M203 657.5q0 59.5 41 101.5t100 42t101 -42t42 -101.5t-42 -100.5t-101 -41t-100 41t-41 100.5z" />
<glyph unicode="&#x2026;" horiz-adv-x="1343" d="M53 98q0 45 32 78t77 33q47 0 78.5 -33t31.5 -78t-31.5 -77.5t-78.5 -32.5q-45 0 -77 32.5t-32 77.5zM483 98q0 45 32 78t77 33q47 0 78.5 -33t31.5 -78t-31.5 -77.5t-78.5 -32.5q-45 0 -77 32.5t-32 77.5zM913 98q0 45 32 78t77 33q47 0 79 -33t32 -78t-32 -77.5 t-79 -32.5q-45 0 -77 32.5t-32 77.5z" />
<glyph unicode="&#x202f;" horiz-adv-x="370" />
<glyph unicode="&#x2039;" horiz-adv-x="616" d="M135 514l363 420l63 -57l-278 -373l125 -383l-78 -43z" />
<glyph unicode="&#x203a;" horiz-adv-x="616" d="M70 135l278 373l-125 383l80 43l195 -436l-363 -420z" />
<glyph unicode="&#x205f;" horiz-adv-x="464" />
<glyph unicode="&#x20ac;" horiz-adv-x="1136" d="M68 461l20 94h170q12 88 35 190h-166l18 93h174q59 172 136 274q156 211 409 211q190 0 301 -94l-53 -248h-86l6 209q-78 39 -176 39q-184 0 -297 -172q-61 -92 -102 -219h465l-19 -93h-471q-25 -94 -37 -190h467l-18 -94h-457v-58q0 -328 272 -327q164 0 314 100l37 -78 q-168 -119 -359 -118q-401 0 -401 423v58h-182z" />
<glyph unicode="&#x2122;" horiz-adv-x="1693" d="M240 1212l41 195h581l-41 -195h-65l8 125h-154l-131 -618l88 -8l-12 -60h-289l13 60l92 8l131 618h-152l-45 -125h-65zM782 651l13 60l86 8l133 620l-84 9l12 59h234l47 -369q8 -66 8 -137h4q51 119 61 137l209 369h232l-15 -59l-86 -9l-131 -620l82 -8l-12 -60h-279 l13 60l88 8l86 405q25 117 47 197h-8q-31 -76 -90 -182l-195 -346h-82l-49 337q-2 20 -14 191h-7q-8 -55 -36 -197l-86 -405l84 -8l-15 -60h-250z" />
<glyph unicode="&#xe000;" horiz-adv-x="985" d="M0 985h985v-985h-985v985z" />
<glyph unicode="&#xfb01;" horiz-adv-x="999" d="M-117 -371q70 49 114 124t75 229l174 915h-117l21 90h118l39 201q29 154 121 224.5t225 70.5q141 0 230 -70l-31 -80q-111 55 -193 56q-188 0 -227 -205l-39 -197h514l-170 -799q-14 -61 -14 -79q0 -25 27 -25h120v-53q-109 -51 -178 -51q-102 0 -102 92q0 16 8 57 l164 768h-389l-183 -942q-29 -147 -90 -233.5t-180 -151.5z" />
<glyph unicode="&#xfb02;" horiz-adv-x="1001" d="M-117 -371q70 49 114 124t75 229l174 915h-117l21 90h118l39 201q29 152 122 223.5t222 71.5t236 -70l57 55h68l-277 -1280q-14 -61 -14 -79q0 -25 27 -25h120v-53q-109 -51 -178 -51q-102 0 -102 92q0 16 8 57l260 1210q-104 49 -197 50q-188 0 -227 -205l-39 -197h193 l-21 -90h-192l-183 -942q-29 -147 -90 -233.5t-180 -151.5z" />
<glyph unicode="&#xfb03;" horiz-adv-x="1511" d="M-117 -371q70 49 114 124t75 229l174 915h-117l21 90h118l41 211q27 137 107 200.5t186 63.5q92 0 160 -43l-27 -80q-57 29 -125 29q-141 0 -176 -176l-41 -205h387l39 201q29 154 121 224.5t225 70.5q141 0 230 -70l-31 -80q-111 55 -193 56q-188 0 -227 -205l-39 -197 h514l-170 -799q-14 -61 -14 -79q0 -25 27 -25h120v-53q-109 -51 -178 -51q-102 0 -102 92q0 16 8 57l164 768h-389l-183 -934q-29 -147 -89 -233t-179 -152l-39 60q72 49 116 123.5t75 230.5l172 905h-385l-183 -942q-29 -147 -90 -233.5t-180 -151.5z" />
<glyph unicode="&#xfb04;" horiz-adv-x="1513" d="M-117 -371q70 49 114 124t75 229l174 915h-117l21 90h118l41 211q27 137 107 200.5t186 63.5q92 0 160 -43l-27 -78q-53 29 -125 29q-141 0 -176 -178l-41 -205h387l39 201q29 152 122 223.5t222 71.5t236 -70l57 55h68l-277 -1280q-14 -61 -14 -79q0 -25 27 -25h120v-53 q-109 -51 -178 -51q-102 0 -102 92q0 16 8 57l260 1210q-104 49 -197 50q-188 0 -227 -205l-39 -197h193l-21 -90h-192l-183 -934q-29 -147 -89 -233t-179 -152l-39 60q72 49 116 123.5t75 230.5l172 905h-385l-183 -942q-29 -147 -90 -233.5t-180 -151.5z" />
</font>
</defs>
</svg>
