<?xml version="1.0" standalone="no"?>
<!DOCTYPE svg PUBLIC "-//W3C//DTD SVG 1.1//EN" "http://www.w3.org/Graphics/SVG/1.1/DTD/svg11.dtd" >
<svg xmlns="http://www.w3.org/2000/svg">
<metadata>
This is a custom SVG webfont generated by Font Squirrel.
Copyright   : 2009 Erik Spiekermann Christian Schwartz Kris Sowersby published by FSI FontShop International GmbH
Designer    : Erik Spiekermann Christian Schwartz Kris Sowersby
Foundry     : FSI
Foundry URL : httpwwwfontfontcom
</metadata>
<defs>
<font id="UnitSlabOTThin" horiz-adv-x="1116" >
<font-face units-per-em="2048" ascent="1624" descent="-424" />
<missing-glyph horiz-adv-x="368" />
<glyph unicode=" "  horiz-adv-x="368" />
<glyph unicode="&#x09;" horiz-adv-x="368" />
<glyph unicode="&#xa0;" horiz-adv-x="368" />
<glyph unicode="!" horiz-adv-x="475" d="M158 67.5q0 32.5 23.5 57.5t56 25t56 -25t23.5 -57.5t-23.5 -56t-56 -23.5t-56 23.5t-23.5 56zM195 1403h86l-15 -1061h-57z" />
<glyph unicode="&#x22;" horiz-adv-x="632" d="M174 1454h76l-6 -469h-64zM383 1454h76l-6 -469h-64z" />
<glyph unicode="#" horiz-adv-x="1091" d="M76 393v68h211l61 395h-211v68h221l58 376h73l-57 -376h311l58 376h73l-57 -376h199v-68h-209l-62 -395h209v-68h-219l-59 -393h-74l60 393h-312l-59 -393h-74l59 393h-200zM360 461h312l61 395h-311z" />
<glyph unicode="$" horiz-adv-x="958" d="M80 115v213h53l23 -197q94 -88 278 -88v614q-160 66 -235.5 138.5t-75.5 214.5q0 133 86 214t225 89v207h64v-205q162 -6 280 -82v-205h-51l-22 180q-100 45 -207 49v-548q180 -76 256.5 -154t76.5 -229q0 -139 -87 -231.5t-246 -106.5v-207h-64v205q-231 2 -354 129z M197 1012q0 -111 54 -165t183 -112v520q-109 -8 -173 -71t-64 -172zM498 45q256 27 256 281q0 123 -58.5 184t-197.5 121v-586z" />
<glyph unicode="%" horiz-adv-x="1648" d="M133 964.5q0 165.5 73 260t212 94.5t211.5 -94.5t72.5 -260t-72.5 -260t-211.5 -94.5t-212 94.5t-73 260zM217 965q0 -299 200.5 -299t200.5 299t-200.5 299t-200.5 -299zM393 0l787 1303h80l-787 -1303h-80zM946 338q0 166 73 260t212 94t212 -94t73 -260t-73 -260 t-212 -94t-212 94t-73 260zM1030 338q0 -299 201 -299t201 299t-201 299t-201 -299z" />
<glyph unicode="&#x26;" horiz-adv-x="1269" d="M82 346q0 147 84 254t231 195q-98 121 -139 198.5t-41 159.5q0 115 78 189.5t207 74.5q127 0 204.5 -70.5t77.5 -201.5q0 -188 -286 -361l389 -477q88 160 104 377l-147 10v54h356v-54l-147 -10q-23 -252 -125 -426l162 -199l149 -10v-49h-195l-159 195 q-156 -209 -418 -209q-106 0 -184 31.5t-120 85t-61.5 113.5t-19.5 130zM166 346q0 -129 70.5 -214t230.5 -85q240 0 379 195l-412 506q-137 -84 -202.5 -172.5t-65.5 -229.5zM297 1155q0 -72 30.5 -130t102.5 -155l31 -41q127 76 185.5 151t58.5 165q0 102 -52.5 156.5 t-150.5 54.5q-94 0 -149.5 -55.5t-55.5 -145.5z" />
<glyph unicode="'" horiz-adv-x="423" d="M174 1454h76l-6 -469h-64z" />
<glyph unicode="(" horiz-adv-x="669" d="M199 639q0 381 96 601t285 333l28 -41q-172 -121 -246.5 -324.5t-74.5 -568.5t74.5 -568.5t246.5 -324.5l-28 -41q-188 113 -284.5 333t-96.5 601z" />
<glyph unicode=")" horiz-adv-x="669" d="M61 -254q172 121 247 324.5t75 568.5t-75 568.5t-247 324.5l29 41q188 -113 284.5 -333t96.5 -601t-96 -601t-285 -333z" />
<glyph unicode="*" horiz-adv-x="843" d="M96 1145l21 55l266 -82l10 281h58l10 -281l266 82l21 -55l-263 -94l156 -234l-47 -33l-172 220l-172 -220l-47 33l155 234z" />
<glyph unicode="+" horiz-adv-x="1032" d="M150 547v67h327v365h78v-365h328v-67h-328v-363h-78v363h-327z" />
<glyph unicode="," horiz-adv-x="399" d="M117 -143q100 49 100 139q-98 0 -98 72q0 33 22.5 53t55.5 20q37 0 61.5 -26.5t24.5 -77.5q0 -174 -150 -217z" />
<glyph unicode="-" horiz-adv-x="581" d="M119 510v72h344v-72h-344z" />
<glyph unicode="." horiz-adv-x="393" d="M117 67.5q0 32.5 23.5 56t56 23.5t56 -23.5t23.5 -56t-23.5 -56t-56 -23.5t-56 23.5t-23.5 56z" />
<glyph unicode="/" horiz-adv-x="686" d="M20 -295l527 1845h76l-527 -1845h-76z" />
<glyph unicode="0" horiz-adv-x="1179" d="M127 649q0 666 463 666t463 -666q0 -664 -463 -664t-463 664zM211 649q0 -602 379 -602t379 602q0 604 -379 604t-379 -604z" />
<glyph unicode="1" horiz-adv-x="802" d="M96 1098l301 211h68v-1241l262 -15v-53h-623v53l279 15v1134l-262 -147z" />
<glyph unicode="2" horiz-adv-x="944" d="M45 0v68q199 174 325 307t188.5 235.5t83 175t20.5 158.5q0 303 -275 303q-145 0 -299 -88l-25 45q168 111 322 111q160 0 260 -94.5t100 -278.5t-131 -379.5t-485 -494.5h657v-68h-741z" />
<glyph unicode="3" horiz-adv-x="962" d="M35 -45l20 47q143 -70 346 -70q170 0 260.5 86t90.5 250q0 184 -93.5 264t-246.5 80h-117v64h98q145 0 223 79t78 214q0 131 -70.5 204.5t-203.5 73.5q-152 0 -311 -94l-27 47q90 59 166 87t174 28q168 0 261 -97.5t93 -240.5q0 -135 -68.5 -219t-183.5 -111 q137 -18 224.5 -110.5t87.5 -266.5q0 -186 -118 -294.5t-315 -108.5q-206 0 -368 88z" />
<glyph unicode="4" horiz-adv-x="1083" d="M76 221v72l456 1007h78l-460 -1015h579v620l82 19v-639h166v-64h-166v-340h-82v340h-653z" />
<glyph unicode="5" horiz-adv-x="978" d="M55 -51l23 49q150 -70 321 -70q182 0 270.5 107.5t88.5 294t-99.5 286t-267.5 99.5q-127 0 -250 -41l64 626h614v-67h-551l-49 -483q82 25 172 24q209 0 330 -118.5t121 -323.5q0 -209 -116 -337t-325 -128q-188 0 -346 82z" />
<glyph unicode="6" horiz-adv-x="1062" d="M127 559q0 395 171 592t503 260l16 -51q-276 -59 -424.5 -216t-177.5 -452q145 158 354 158q164 0 281 -110.5t117 -311.5q0 -215 -107.5 -328.5t-290.5 -113.5q-195 0 -318.5 147t-123.5 426zM211 557q0 -252 96 -381t262 -129q152 0 233 98.5t81 278.5q0 174 -88 266 t-236 92q-172 0 -346 -149q-2 -25 -2 -76z" />
<glyph unicode="7" horiz-adv-x="886" d="M76 1049v251h776v-75q-438 -524 -500 -1348l-84 6q72 809 523 1350h-644l-18 -184h-53z" />
<glyph unicode="8" horiz-adv-x="1079" d="M117 352q0 147 85 236.5t242 152.5q-270 119 -270 355q0 143 96.5 232t264.5 89q166 0 265 -90t99 -229q0 -227 -276 -361q190 -82 265 -169t75 -216q0 -170 -117 -268t-301 -98q-188 0 -308 96t-120 270zM199 352q0 -150 93 -228.5t253 -78.5q152 0 244 81t92 214 q0 115 -57.5 188.5t-200.5 137.5l-123 53q-154 -70 -227.5 -154t-73.5 -213zM256 1102q0 -106 51 -176t180 -127l80 -35q250 121 250 330q0 121 -76.5 192.5t-205.5 71.5q-127 0 -203 -70.5t-76 -185.5z" />
<glyph unicode="9" horiz-adv-x="1062" d="M96 870q0 209 114 327t290 118q197 0 316.5 -146.5t119.5 -435.5q0 -201 -50 -350.5t-147.5 -247.5t-220.5 -156.5t-285 -89.5l-14 54q289 68 442.5 215t184.5 426q-150 -145 -336 -146q-168 0 -291 113.5t-123 318.5zM180 874.5q0 -178.5 94.5 -273.5t247.5 -95 q168 0 328 145q2 27 2 84q0 256 -94 387t-258 131q-147 0 -233.5 -100t-86.5 -278.5z" />
<glyph unicode=":" horiz-adv-x="393" d="M117 67.5q0 32.5 23.5 56t56 23.5t56 -23.5t23.5 -56t-23.5 -56t-56 -23.5t-56 23.5t-23.5 56zM117 620.5q0 32.5 23.5 56t56 23.5t56 -23.5t23.5 -56t-23.5 -56t-56 -23.5t-56 23.5t-23.5 56z" />
<glyph unicode=";" horiz-adv-x="399" d="M117 -143q100 49 100 139q-98 0 -98 72q0 33 22.5 53t55.5 20q37 0 61.5 -26.5t24.5 -77.5q0 -174 -150 -217zM117 620.5q0 32.5 23.5 56t56 23.5t56 -23.5t23.5 -56t-23.5 -56t-56 -23.5t-56 23.5t-23.5 56z" />
<glyph unicode="&#x3c;" horiz-adv-x="634" d="M104 575v19l390 397l47 -49l-348 -358l348 -357l-47 -49z" />
<glyph unicode="=" horiz-adv-x="1062" d="M152 397v68h757v-68h-757zM152 705v67h757v-67h-757z" />
<glyph unicode="&#x3e;" horiz-adv-x="634" d="M94 227l348 359l-348 356l47 49l389 -397v-19l-389 -397z" />
<glyph unicode="?" horiz-adv-x="798" d="M76 1126v199q127 92 301 92q139 0 222 -76.5t83 -226.5q0 -88 -29.5 -157.5t-59.5 -100.5t-81 -72q-84 -68 -112.5 -115.5t-28.5 -142.5v-184h-66v188q0 86 24.5 147.5t48 86t77.5 67.5q47 37 70.5 63t49 84t25.5 132q0 244 -223 244q-143 0 -225 -56l-23 -172h-53z M262 67.5q0 32.5 23.5 57.5t56.5 25t56.5 -25t23.5 -57.5t-23.5 -56t-56.5 -23.5t-56.5 23.5t-23.5 56z" />
<glyph unicode="@" horiz-adv-x="1581" d="M106 330q0 190 48.5 356t139.5 291t231.5 197.5t312.5 72.5q633 0 632 -696q0 -248 -94 -402.5t-256 -154.5q-178 0 -190 180q-152 -156 -297 -156q-102 0 -167 73t-65 210q0 254 131 459q106 170 289 170q57 0 106.5 -23.5t72 -45t57.5 -60.5l53 114h45l-135 -604 q-14 -72 -14 -110q0 -72 25.5 -110t92.5 -38q125 0 199 138.5t74 359.5q0 309 -127 474t-430 165q-213 0 -365.5 -122t-223.5 -313.5t-71 -426.5q0 -272 132 -416.5t401 -144.5q182 0 315 40l19 -49q-170 -51 -334 -51q-303 0 -455 159t-152 464zM477 301q0 -106 45 -166.5 t119 -60.5q25 0 49.5 4t50 16t42 20.5t43 29t35.5 27.5t36 30.5t31 25.5l116 521q-37 41 -62.5 63.5t-68.5 42.5t-90 20q-139 0 -229 -149q-53 -86 -85 -204t-32 -220z" />
<glyph unicode="A" horiz-adv-x="1200" d="M14 0v49l133 19l424 1335h80l414 -1335l121 -19v-49h-348v49l143 19l-133 424h-488l-133 -422l131 -21v-49h-344zM379 551h450l-161 520q-39 127 -60 256h-2q-16 -106 -63 -256z" />
<glyph unicode="B" horiz-adv-x="1138" d="M117 0v49l147 10v1280l-147 11v53h491q195 0 282 -101.5t87 -265.5q0 -231 -193 -295q115 -27 186.5 -119t71.5 -243q0 -193 -112.5 -286t-311.5 -93h-501zM346 59h275q336 0 335 326q0 164 -77.5 243t-255.5 79h-277v-648zM346 762h272q150 0 212.5 68.5t62.5 209.5 q0 305 -279 306h-268v-584z" />
<glyph unicode="C" horiz-adv-x="1032" d="M127 694q0 723 494 723q211 0 321 -86v-219h-53l-23 195q-104 51 -245 51q-219 0 -312.5 -165t-93.5 -495q0 -338 92 -495.5t326 -157.5q141 0 258 51l22 201h54v-221q-115 -90 -334 -90q-268 0 -387 176t-119 532z" />
<glyph unicode="D" horiz-adv-x="1226" d="M117 0v49l147 10v1280l-147 11v53h432q305 0 428 -167t123 -556q0 -367 -126 -523.5t-421 -156.5h-436zM346 59h215q258 0 356.5 144.5t98.5 476.5q0 358 -97.5 512t-359.5 154h-213v-1287z" />
<glyph unicode="E" horiz-adv-x="1054" d="M117 0v49l147 10v1280l-147 11v53h819v-252h-53l-21 195h-516v-572h389l19 152h49v-361h-49l-19 152h-389v-658h539l20 193h53v-252h-841z" />
<glyph unicode="F" horiz-adv-x="1007" d="M117 0v49l147 10v1280l-147 11v53h819v-252h-53l-21 195h-516v-594h389l19 151h49v-360h-49l-19 151h-389v-635l189 -10v-49h-418z" />
<glyph unicode="G" horiz-adv-x="1114" d="M127 694q0 723 498 723q213 0 323 -90v-227h-53l-23 207q-117 51 -245 51q-225 0 -320.5 -174t-95.5 -490q0 -324 96 -487.5t307 -163.5q168 0 301 125v418l-249 14v53h331v-653h-49l-22 106q-131 -121 -310 -120q-256 0 -372.5 175t-116.5 533z" />
<glyph unicode="H" horiz-adv-x="1361" d="M117 0v49l147 10v1280l-147 11v53h377v-53l-148 -11v-559h670v559l-148 11v53h377v-53l-147 -11v-1280l147 -10v-49h-377v49l148 10v664h-670v-664l148 -10v-49h-377z" />
<glyph unicode="I" horiz-adv-x="610" d="M117 0v49l147 10v1280l-147 11v53h377v-53l-148 -11v-1280l148 -10v-49h-377z" />
<glyph unicode="J" horiz-adv-x="495" d="M10 -209q119 68 160 134.5t41 213.5v1200l-148 11v53h377v-53l-147 -11v-1163q0 -197 -47 -279.5t-211 -154.5z" />
<glyph unicode="K" horiz-adv-x="1120" d="M117 0v49l147 10v1280l-147 11v53h377v-53l-148 -11v-1280l148 -10v-49h-377zM387 752l473 581l-131 21v49h344v-49l-125 -19l-469 -575l486 -701l141 -10v-49h-197z" />
<glyph unicode="L" horiz-adv-x="983" d="M117 0v49l147 10v1280l-147 11v53h377v-53l-148 -11v-1280h539l20 222h53v-281h-841z" />
<glyph unicode="M" horiz-adv-x="1517" d="M117 0v49l147 10v1280l-147 11v53h264l309 -848q47 -127 62 -211h2q10 74 63 211l322 848h262v-53l-148 -11v-1280l148 -10v-49h-377v49l147 10v988q0 217 5 301h-2q-29 -121 -89 -277l-303 -790h-71l-291 790q-35 96 -90 277h-2q0 -68 3 -158t3 -143v-988l147 -10v-49 h-364z" />
<glyph unicode="N" horiz-adv-x="1304" d="M117 0v49l147 10v1280l-147 11v53h248l520 -1065q76 -150 114 -266h2q-10 117 -10 290v977l-147 11v53h364v-53l-147 -11v-1339h-92l-516 1047q-74 147 -127 303h-2q10 -113 10 -349v-942l147 -10v-49h-364z" />
<glyph unicode="O" horiz-adv-x="1212" d="M127 694q0 350 122 536.5t357.5 186.5t357 -185t121.5 -532q0 -358 -113.5 -536t-361.5 -178q-483 -1 -483 708zM215 698q0 -330 93 -490.5t298 -160.5q207 0 299 159t92 484q0 666 -391 665.5t-391 -657.5z" />
<glyph unicode="P" horiz-adv-x="1013" d="M117 0v49l147 10v1280l-147 11v53h450q412 0 412 -391q0 -203 -102.5 -306.5t-286.5 -103.5h-244v-543l189 -10v-49h-418zM346 657h236q309 0 309 353q0 172 -79 255t-253 83h-213v-691z" />
<glyph unicode="Q" horiz-adv-x="1212" d="M127 694q0 350 122 536.5t357.5 186.5t357 -185t121.5 -532q0 -674 -432 -708l443 -133l-27 -74l-596 213q-346 123 -346 696zM215 698q0 -330 93 -490.5t298 -160.5q207 0 299 159t92 484q0 666 -391 665.5t-391 -657.5z" />
<glyph unicode="R" horiz-adv-x="1181" d="M117 0v49l147 10v1280l-147 11v53h477q174 0 283.5 -91t109.5 -278q0 -158 -72.5 -257t-205.5 -120v-4q119 -45 170 -196l131 -398l147 -10v-49h-211l-143 430q-39 113 -95.5 160t-172.5 47h-189v-578l148 -10v-49h-377zM346 694h250q305 0 305 336q0 315 -319 316h-236 v-652z" />
<glyph unicode="S" horiz-adv-x="958" d="M96 123v229h54l24 -213q98 -94 291 -94q160 0 238.5 81t78.5 226q0 141 -67.5 208t-241.5 142q-172 74 -253 153t-81 235q0 152 98.5 239.5t254.5 87.5q190 0 317 -86v-221h-53l-23 195q-111 53 -241 53q-125 0 -202 -69.5t-77 -196.5t63.5 -186.5t223.5 -129.5 q197 -86 279.5 -171t82.5 -253q0 -162 -103.5 -264t-293.5 -102q-238 0 -369 137z" />
<glyph unicode="T" horiz-adv-x="1036" d="M41 1069v334h954v-334h-53l-20 277h-363v-1287l168 -10v-49h-418v49l168 10v1287h-362l-21 -277h-53z" />
<glyph unicode="U" horiz-adv-x="1286" d="M76 1350v53h229v-1000q0 -356 277 -356q209 0 368 160v1132l-147 11v53h229v-1344l148 -10v-49h-211l-17 143q-166 -158 -374 -157q-354 0 -355 405v948z" />
<glyph unicode="V" horiz-adv-x="1177" d="M14 1354v49h348v-49l-143 -19l303 -1003q45 -150 58 -256h4q20 119 63 256l305 1001l-131 21v49h342v-49l-133 -19l-414 -1335h-77l-404 1335z" />
<glyph unicode="W" horiz-adv-x="1708" d="M14 1354v49h348v-49l-143 -19l230 -1020q31 -135 40 -252h3q23 127 53 252l274 1088h82l270 -1088q25 -100 46 -252h2q20 145 43 252l223 1018l-131 21v49h340v-49l-133 -19l-297 -1335h-97l-264 1065q-39 164 -45 254h-2q-4 -84 -49 -254l-272 -1065h-99l-301 1335z" />
<glyph unicode="X" horiz-adv-x="1216" d="M14 0v49l144 10l407 709l-317 567l-121 19v49h352v-49l-143 -19l278 -504l281 502l-131 21v49h346v-49l-133 -19l-322 -561l400 -715l147 -10v-49h-381v49l148 10l-365 648l-366 -648l147 -10v-49h-371z" />
<glyph unicode="Y" d="M14 1354v49h353v-49l-144 -19l262 -555q66 -139 76 -184q12 49 74 184l254 553l-131 21v49h344v-49l-133 -19l-373 -794v-482l147 -10v-49h-376v49l147 10v484l-379 792z" />
<glyph unicode="Z" horiz-adv-x="933" d="M76 0v57l698 1289h-594l-20 -195h-54v252h752v-60l-696 -1284h618l21 193h53v-252h-778z" />
<glyph unicode="[" horiz-adv-x="577" d="M195 -315v1818h311v-47l-230 -20v-1684l230 -20v-47h-311z" />
<glyph unicode="\" horiz-adv-x="686" d="M61 1550h76l527 -1845h-76z" />
<glyph unicode="]" horiz-adv-x="577" d="M72 -268l229 20v1684l-229 20v47h311v-1818h-311v47z" />
<glyph unicode="^" horiz-adv-x="892" d="M123 940l291 510h63l293 -510h-82l-244 432l-241 -432h-80z" />
<glyph unicode="_" horiz-adv-x="559" d="M0 -178h559v-68h-559v68z" />
<glyph unicode="`" d="M389 1264l45 63l295 -221l-29 -37z" />
<glyph unicode="a" horiz-adv-x="886" d="M76 258q0 152 100 221.5t301 69.5h131v141q0 199 -176 199q-135 0 -291 -74l-20 47q154 92 323 92q125 0 183.5 -63.5t58.5 -202.5v-569q0 -51 27 -64q23 -11 80 -10h20l8 -39q-49 -20 -98 -20q-115 0 -115 131q-119 -131 -262 -131q-127 0 -198.5 68.5t-71.5 203.5z M152 266q0 -106 55 -162.5t139 -56.5q90 0 145.5 31t116.5 100v316h-104q-182 0 -267 -51.5t-85 -176.5z" />
<glyph unicode="b" horiz-adv-x="978" d="M45 1401v49h207v-653q133 158 293 157q150 0 233.5 -122.5t83.5 -366.5q0 -240 -85 -359.5t-242.5 -119.5t-286.5 145l-29 -131h-45v1386zM252 193q139 -143 278 -144q252 0 252 406q0 236 -61.5 333t-183.5 97q-55 0 -113.5 -27t-89.5 -50.5t-82 -68.5v-546z" />
<glyph unicode="c" horiz-adv-x="827" d="M117 467q0 252 99 369.5t261 117.5q156 0 260 -92v-147h-51l-24 127q-78 55 -185 55q-281 0 -280 -424q0 -227 78.5 -326.5t224.5 -99.5q125 0 229 74l33 -41q-127 -94 -285 -94q-162 0 -261 112.5t-99 368.5z" />
<glyph unicode="d" horiz-adv-x="1009" d="M117 475q0 240 85 359.5t242 119.5q154 0 283 -141v573l-129 15v49h207v-1387l129 -22v-41h-195l-8 141q-143 -156 -297 -155q-150 0 -233.5 122.5t-83.5 366.5zM197 485q0 -236 62.5 -335t182.5 -99q55 0 113.5 26.5t89.5 50.5t82 69v551q-135 139 -278 139 q-252 -1 -252 -402z" />
<glyph unicode="e" horiz-adv-x="899" d="M117 467q0 252 96 369.5t256 117.5q324 0 324 -450v-33h-596q0 -223 77.5 -323.5t243.5 -100.5q125 0 230 74l32 -41q-127 -94 -284 -94q-379 0 -379 481zM199 526h514q0 371 -244 371q-254 0 -270 -371z" />
<glyph unicode="f" horiz-adv-x="503" d="M55 0v39l127 20v826h-125v55h125v238q0 289 244 288q106 0 176 -55l-29 -43q-68 39 -141 39q-172 0 -172 -199v-268h213v-55h-213v-822l164 -22v-41h-369z" />
<glyph unicode="g" horiz-adv-x="864" d="M76 -166q0 78 42 134.5t115 107.5q-98 29 -98 127q0 96 121 200q-131 82 -131 250q0 141 87 221t226 80q63 0 107 -14h274v-49l-160 -14q84 -80 84 -218q0 -141 -86 -222t-221 -81q-80 0 -139 27q-92 -92 -92 -166q0 -78 100 -78h215q143 0 221 -67.5t78 -192.5 q0 -145 -104.5 -229t-288.5 -84q-166 0 -258 75.5t-92 192.5zM156 -174q0 -92 67.5 -148.5t204.5 -56.5q315 0 315 252q0 92 -52 143.5t-156 51.5h-248q-66 -53 -98.5 -107.5t-32.5 -134.5zM205 649q0 -125 64.5 -181t162.5 -56q106 0 169 61.5t63 190.5q0 238 -228 237 q-104 0 -167.5 -61.5t-63.5 -190.5z" />
<glyph unicode="h" horiz-adv-x="1034" d="M86 1401v49h207v-651q145 156 307 155q250 0 250 -270v-625l119 -20v-39h-197v676q0 102 -48 155.5t-134 53.5q-145 0 -297 -144v-684l127 -16v-41h-332v41l127 16v1329z" />
<glyph unicode="i" horiz-adv-x="495" d="M86 891v49h207v-883l127 -16v-41h-332v41l127 16v820zM166 1263.5q0 30.5 18.5 50t49 19.5t50 -19.5t19.5 -50t-18.5 -50t-49 -19.5t-50 19.5t-19.5 50z" />
<glyph unicode="j" horiz-adv-x="436" d="M45 -385q82 45 113.5 97t31.5 167v998l-129 14v49h207v-1061q0 -141 -46 -200.5t-154 -106.5zM141 1263.5q0 30.5 18.5 50t49.5 19.5t50.5 -19.5t19.5 -50t-18.5 -50t-49.5 -19.5t-50.5 19.5t-19.5 50z" />
<glyph unicode="k" horiz-adv-x="927" d="M86 1401v49h207v-1393l127 -16v-41h-332v41l127 16v1329zM326 522l342 357l-125 14v47h319v-47l-114 -16l-334 -347l374 -471l125 -20v-39h-170z" />
<glyph unicode="l" horiz-adv-x="495" d="M86 1401v49h207v-1393l127 -16v-41h-332v41l127 16v1329z" />
<glyph unicode="m" horiz-adv-x="1529" d="M86 893v47h197l10 -141q145 156 282 155q190 0 234 -161q150 162 293 161q244 0 244 -270v-625l118 -20v-39h-196v676q0 211 -176 211q-119 0 -273 -146v-682l119 -20v-39h-197v676q0 211 -176 211q-119 0 -272 -146v-682l127 -20v-39h-332v39l127 20v818z" />
<glyph unicode="n" horiz-adv-x="1034" d="M86 893v47h197l10 -141q145 156 307 155q250 0 250 -270v-625l119 -20v-39h-197v676q0 102 -48 155.5t-134 53.5q-145 0 -297 -144v-682l127 -20v-39h-332v39l127 20v818z" />
<glyph unicode="o" horiz-adv-x="964" d="M117 467q0 250 97 368.5t263 118.5t268.5 -118.5t102.5 -364.5q0 -248 -98.5 -366.5t-266.5 -118.5t-267 116.5t-99 364.5zM199 471q0 -430 282 -430q141 0 212 100.5t71 321.5q0 434 -283 434q-141 0 -211.5 -100.5t-70.5 -325.5z" />
<glyph unicode="p" horiz-adv-x="1009" d="M76 893v47h196l11 -143q133 158 292 157q150 0 234 -122.5t84 -366.5q0 -240 -85 -359.5t-242.5 -119.5t-282.5 141v-485l127 -21v-39h-332v39l127 21v1235zM283 193q139 -143 278 -144q252 0 252 406q0 236 -61.5 333t-184.5 97q-55 0 -113.5 -27t-89 -50.5t-81.5 -68.5 v-546z" />
<glyph unicode="q" horiz-adv-x="966" d="M117 475q0 240 85 359.5t242.5 119.5t286.5 -141l23 127h51v-1298l127 -21v-39h-332v39l127 21v497q-141 -154 -293 -153q-150 0 -233.5 122.5t-83.5 366.5zM197 485q0 -236 62.5 -335t182.5 -99q55 0 113.5 26.5t89.5 50.5t82 69v551q-135 139 -278 139 q-252 -1 -252 -402z" />
<glyph unicode="r" horiz-adv-x="630" d="M66 893v47h194l14 -178q51 63 81 95t85.5 64.5t112.5 32.5q31 0 43 -6l-16 -86q-14 4 -45 4q-45 0 -93.5 -26.5t-78 -53t-91.5 -86.5v-637l164 -22v-41h-368v39l127 20v818z" />
<glyph unicode="s" horiz-adv-x="739" d="M76 53v152h49l29 -129q78 -37 186 -37q111 0 174.5 54t63.5 147q0 88 -47.5 135t-178.5 90q-125 41 -186.5 99.5t-61.5 166.5q0 98 71 160.5t196 62.5q150 0 247 -59v-150h-51l-24 121q-72 33 -168 33q-86 0 -141.5 -45t-55.5 -121q0 -82 41 -120t150 -78 q152 -55 218 -112.5t66 -180.5q0 -125 -83 -190.5t-226 -65.5q-174 -1 -268 67z" />
<glyph unicode="t" horiz-adv-x="528" d="M55 885v55h121v254l78 20v-274h197v-55h-197v-729q0 -111 113 -111q57 0 110 27l17 -45q-66 -41 -158 -41q-160 0 -160 166v733h-121z" />
<glyph unicode="u" horiz-adv-x="1026" d="M66 889v51h206v-680q0 -207 179 -207q154 0 290 131v693l-129 12v51h209v-877l129 -22v-41h-194l-8 131q-63 -63 -145.5 -104t-160.5 -41q-121 0 -184 66.5t-63 195.5v629z" />
<glyph unicode="v" horiz-adv-x="913" d="M14 893v47h316v-47l-125 -16l168 -521q74 -227 84 -303h2q10 74 82 299l170 527l-125 14v47h313v-47l-115 -16l-290 -877h-80l-291 879z" />
<glyph unicode="w" horiz-adv-x="1359" d="M14 893v47h316v-47l-125 -16l160 -619q25 -94 41 -207h2q12 109 43 207l198 682h76l188 -682q29 -104 41 -207h2q10 94 39 207l162 621l-125 14v47h314v-47l-115 -16l-238 -877h-84l-198 723q-18 66 -27 145h-2q-8 -74 -29 -145l-207 -723h-86l-237 879z" />
<glyph unicode="x" horiz-adv-x="913" d="M14 0v41l127 16l277 451l-223 371l-109 14v47h315v-47l-122 -16l184 -316h2l188 318l-125 14v47h310v-47l-113 -16l-225 -369l272 -451l127 -16v-41h-336v41l127 16l-233 396h-2l-240 -396l129 -16v-41h-330z" />
<glyph unicode="y" horiz-adv-x="913" d="M14 893v47h316v-47l-125 -16l184 -580q57 -180 72 -256h2q20 96 72 256l180 582l-125 14v47h309v-47l-115 -16l-286 -924q-57 -182 -126 -257t-212 -124l-23 57q135 49 197.5 125t109.5 246h-34l-287 879z" />
<glyph unicode="z" horiz-adv-x="778" d="M76 0v61l528 824h-411l-25 -121h-51v176h569v-61l-528 -824h469l24 142h51v-197h-626z" />
<glyph unicode="{" horiz-adv-x="720" d="M90 567v54q104 0 152.5 47t48.5 145v490q0 98 58.5 149t160.5 51h139v-55h-127q-150 0 -149 -154v-475q0 -106 -42 -154.5t-112 -68.5v-4q70 -20 112 -68.5t42 -154.5v-475q0 -154 149 -154h127v-55h-139q-102 0 -160.5 51t-58.5 149v490q0 98 -48.5 145t-152.5 47z" />
<glyph unicode="|" horiz-adv-x="444" d="M184 -295v1845h76v-1845h-76z" />
<glyph unicode="}" horiz-adv-x="720" d="M72 -260h127q150 0 149 154v475q0 106 42 154t112 69v4q-70 20 -112 68.5t-42 154.5v475q0 154 -149 154h-127v55h139q102 0 160.5 -51t58.5 -149v-490q0 -98 48 -145t153 -47v-54q-104 0 -152.5 -47t-48.5 -145v-490q0 -98 -58.5 -149t-160.5 -51h-139v55z" />
<glyph unicode="~" horiz-adv-x="942" d="M139 604q43 86 86 124t105 38q63 0 155.5 -58.5t130.5 -58.5q31 0 55.5 18.5t39 39t39.5 63.5l53 -27q-43 -86 -86 -123.5t-105 -37.5q-63 0 -155 58t-131 58q-31 0 -55.5 -18t-39 -38.5t-38.5 -63.5z" />
<glyph unicode="&#xa1;" horiz-adv-x="475" d="M158 874.5q0 32.5 23.5 56t56 23.5t56 -23.5t23.5 -56t-23.5 -57t-56 -24.5t-56 24.5t-23.5 57zM195 -461l14 1061h57l15 -1061h-86z" />
<glyph unicode="&#xa2;" horiz-adv-x="827" d="M98 467q0 236 87 354.5t235 130.5v207h63v-205q133 -6 236 -92v-147h-51l-25 127q-74 49 -160 55v-850q123 0 228 74l32 -41q-119 -86 -260 -94v-205h-63v207q-322 26 -322 479zM178 473q0 -385 242 -422v844q-242 -31 -242 -422z" />
<glyph unicode="&#xa3;" horiz-adv-x="1017" d="M96 635v63h160q-51 145 -51 256q0 176 100.5 268.5t253.5 92.5q168 0 303 -86v-205h-51l-23 180q-115 53 -229 53q-123 0 -196.5 -79.5t-73.5 -223.5q0 -94 51 -256h393v-63h-371q53 -172 54 -264q0 -88 -44 -169t-128 -134h594l20 221h53v-289h-755v72q180 106 180 299 q0 88 -57 264h-183z" />
<glyph unicode="&#xa4;" horiz-adv-x="995" d="M74 201l153 186q-66 109 -65.5 270.5t65.5 270.5l-153 186l53 47l145 -176q86 86 225.5 86t225.5 -86l145 176l54 -47l-154 -186q66 -109 66 -270.5t-66 -270.5l154 -186l-54 -47l-145 176q-86 -86 -225.5 -86t-225.5 86l-145 -176zM242 657.5q0 -354.5 256 -354.5 t256 354.5t-256 354.5t-256 -354.5z" />
<glyph unicode="&#xa5;" horiz-adv-x="1107" d="M31 1253v50h352v-50l-143 -18l241 -516q68 -147 76 -184q14 53 74 184l233 514l-131 20v50h344v-50l-133 -18l-239 -512h262v-64h-291l-84 -180v-28h375v-64h-375v-328l147 -10v-49h-377v49l148 10v328h-369v64h369v30l-86 178h-283v64h254l-243 512z" />
<glyph unicode="&#xa6;" horiz-adv-x="444" d="M184 -295v834h76v-834h-76zM184 713v837h76v-837h-76z" />
<glyph unicode="&#xa7;" horiz-adv-x="1073" d="M133 551q0 219 234 287q-113 76 -113 221q0 109 86 182.5t223 73.5q168 0 281 -68v-149h-51l-25 121q-90 41 -201 41q-113 0 -174 -55.5t-61 -145.5q0 -98 52 -146.5t216 -101.5q176 -57 258 -129t82 -213q0 -219 -242 -281q137 -86 138 -235q0 -121 -88.5 -190.5 t-231.5 -69.5q-162 0 -289 78v151h49l29 -129q98 -47 207 -47q113 0 177.5 54.5t64.5 152.5q0 96 -58.5 149.5t-222.5 110.5q-176 61 -258 134t-82 204zM211 551q0 -106 59.5 -157.5t216.5 -112.5l146 -56q229 47 229 244q0 119 -59.5 170t-216.5 106l-160 58 q-215 -47 -215 -252z" />
<glyph unicode="&#xa8;" d="M340 1174q0 68 66 67q31 0 49 -18.5t18 -48.5q0 -68 -65 -68q-31 0 -49.5 18.5t-18.5 49.5zM643 1174q0 68 66 67q31 0 49 -18.5t18 -48.5q0 -68 -65 -68q-31 0 -49.5 18.5t-18.5 49.5z" />
<glyph unicode="&#xa9;" horiz-adv-x="1404" d="M123 700.5q0 327.5 157.5 522t422 194.5t422 -194.5t157.5 -522t-157.5 -522t-422 -194.5t-422 194.5t-157.5 522zM188 700.5q0 -305.5 136.5 -483.5t378 -178t378 178t136.5 483.5t-136.5 483.5t-378 178t-378 -178t-136.5 -483.5zM389 698q0 211 80 333t242 122 q135 0 229 -66v-172h-47l-16 146q-74 37 -166 37q-133 0 -189.5 -100.5t-56.5 -299.5q0 -197 56.5 -294t197.5 -97q96 0 170 39l16 154h47v-183q-96 -63 -233 -63q-168 0 -249 117.5t-81 326.5z" />
<glyph unicode="&#xaa;" horiz-adv-x="860" d="M111 666q0 141 89 207.5t283 66.5h138v123q0 90 -37 136t-123 46q-154 0 -277 -78l-26 45q154 98 305 99q236 0 235 -240v-526q0 -51 23.5 -63.5t97.5 -10.5l8 -39q-49 -20 -92 -20q-113 0 -112 137q-102 -135 -258 -135q-119 0 -186.5 66.5t-67.5 185.5zM193 664 q0 -188 178 -189q150 0 250 135v275h-138q-162 0 -226 -51t-64 -170z" />
<glyph unicode="&#xab;" horiz-adv-x="868" d="M119 500l264 397l45 -33l-217 -364l217 -365l-45 -33zM424 500l264 397l45 -33l-217 -364l217 -365l-45 -33z" />
<glyph unicode="&#xac;" horiz-adv-x="897" d="M152 625v67h579v-354h-78v287h-501z" />
<glyph unicode="&#xad;" horiz-adv-x="581" d="M119 510v72h344v-72h-344z" />
<glyph unicode="&#xae;" horiz-adv-x="1064" d="M123 946.5q0 235.5 111.5 361.5t298 126t298 -126t111.5 -361.5t-111.5 -361.5t-298 -126t-298 126t-111.5 361.5zM186 946q0 -211 91.5 -324.5t255 -113.5t255 113.5t91.5 324.5t-91.5 324.5t-255 113.5t-255 -113.5t-91.5 -324.5zM326 682v35l57 4v459l-57 4v35h206 q154 0 154 -148q0 -121 -117 -139v-2q53 -12 82 -84l49 -125l66 -4v-35h-121l-55 147q-31 88 -101 89h-43v-197l52 -4v-35h-172zM446 954h58q66 0 91.5 27t25.5 90q0 57 -27 84t-90 27h-58v-228z" />
<glyph unicode="&#xaf;" d="M346 1169v64h424v-64h-424z" />
<glyph unicode="&#xb0;" horiz-adv-x="729" d="M90 1096q0 147 80 234t194.5 87t194.5 -86t80 -229.5t-80 -230.5t-194 -87q-117 0 -196 83.5t-79 228.5zM168 1100q0 -129 54 -191.5t143 -62.5q193 0 192 254q0 131 -52 192.5t-140 61.5q-90 0 -143.5 -61.5t-53.5 -192.5z" />
<glyph unicode="&#xb1;" horiz-adv-x="1032" d="M150 61v68h733v-68h-733zM150 567v68h327v344h78v-344h328v-68h-328v-301h-78v301h-327z" />
<glyph unicode="&#xb2;" horiz-adv-x="714" d="M78 516v72q242 209 325.5 338t83.5 241q0 92 -48 139.5t-134 47.5q-109 0 -201 -54l-22 43q109 74 231 74q117 0 187.5 -64.5t70.5 -185.5q0 -119 -96 -257t-325 -328h436v-66h-508z" />
<glyph unicode="&#xb3;" horiz-adv-x="722" d="M61 559l23 47q100 -45 213 -45q221 0 221 205q0 195 -217 195h-72v63h66q94 0 142 45t48 123t-44 122t-128 44q-92 0 -198 -55l-23 43q113 72 230 71q115 0 179 -60.5t64 -154.5q0 -80 -43 -134t-112 -73q84 -16 137 -73.5t53 -155.5q0 -123 -78 -193.5t-221 -70.5 q-134 0 -240 57z" />
<glyph unicode="&#xb4;" d="M389 1106l295 221l45 -63l-311 -195z" />
<glyph unicode="&#xb5;" horiz-adv-x="1026" d="M66 889v51h206v-694q0 -94 47.5 -143.5t131.5 -49.5q154 0 290 131v693l-129 12v51h209v-877l129 -22v-41h-194l-8 131q-61 -63 -142.5 -104t-154.5 -41q-131 0 -179 73v-477h-77v1295z" />
<glyph unicode="&#xb6;" horiz-adv-x="1091" d="M119 1093.5q0 145.5 73.5 227.5t215.5 82h516v-53l-148 -11v-1517h-82v1517h-162v-1517h-81v962h-43q-141 0 -215 82t-74 227.5z" />
<glyph unicode="&#xb7;" horiz-adv-x="393" d="M117 585.5q0 32.5 23.5 56.5t56 24t56 -24t23.5 -56.5t-23.5 -56t-56 -23.5t-56 23.5t-23.5 56z" />
<glyph unicode="&#xb8;" d="M408 -348l30 43q51 -41 113 -41q86 0 86 90q0 88 -86 88q-39 0 -74 -8l84 196h57l-61 -135q63 0 106.5 -39t43.5 -100q0 -70 -41 -109.5t-117 -39.5q-80 0 -141 55z" />
<glyph unicode="&#xb9;" horiz-adv-x="657" d="M80 1235l254 168h47v-823l201 -17v-47h-484v47l201 17v718l-197 -104z" />
<glyph unicode="&#xba;" horiz-adv-x="847" d="M82 860.5q0 231.5 93 339t249 107.5t249 -107.5t93 -339t-93 -339t-249 -107.5t-249 107.5t-93 339zM164 860q0 -391 260 -391t260 391t-260 391t-260 -391z" />
<glyph unicode="&#xbb;" horiz-adv-x="868" d="M135 135l217 365l-217 364l45 33l264 -397l-264 -398zM440 135l217 365l-217 364l45 33l265 -397l-265 -398z" />
<glyph unicode="&#xbc;" horiz-adv-x="1753" d="M80 1235l254 168h47v-823l201 -17v-47h-484v47l201 17v718l-197 -104zM408 -68l868 1479h82l-869 -1479h-81zM975 106v68l291 606h77l-296 -612h368v393l80 17v-410h107v-62h-107v-212h-80v212h-440z" />
<glyph unicode="&#xbd;" horiz-adv-x="1763" d="M80 1235l254 168h47v-823l201 -17v-47h-484v47l201 17v718l-197 -104zM408 -68l868 1479h82l-869 -1479h-81zM1126 -37q242 209 326 338t84 242q0 92 -48 139t-134 47q-109 0 -201 -53l-23 43q109 74 232 74q117 0 187.5 -64.5t70.5 -185.5q0 -119 -96.5 -257.5 t-325.5 -328.5h436v-66h-508v72z" />
<glyph unicode="&#xbe;" horiz-adv-x="1755" d="M72 559l22 47q102 -45 213 -45q221 0 221 205q0 195 -217 195h-71v63h65q94 0 142.5 45t48.5 123t-44 122t-128 44q-92 0 -199 -55l-23 43q113 72 230 71q115 0 179 -60.5t64 -154.5q0 -80 -43 -134t-112 -73q84 -16 137 -73.5t53 -155.5q0 -123 -77.5 -193.5 t-221.5 -70.5q-130 0 -239 57zM410 -68l868 1479h82l-868 -1479h-82zM977 104v68l291 606h78l-297 -612h368v393l80 16v-409h107v-62h-107v-213h-80v213h-440z" />
<glyph unicode="&#xbf;" horiz-adv-x="798" d="M119 -172q0 88 29.5 157.5t59.5 100.5t81 72q84 68 112.5 116t28.5 142v184h66v-188q0 -86 -25 -147.5t-48.5 -86t-76.5 -67.5q-47 -37 -70.5 -62.5t-49 -84t-25.5 -132.5q0 -244 223 -244q141 0 225 56l23 172h53v-199q-127 -92 -301 -92q-139 0 -222 76.5t-83 226.5z M379 874.5q0 32.5 23.5 56t56.5 23.5t56.5 -23.5t23.5 -56t-23.5 -57t-56.5 -24.5t-56.5 24.5t-23.5 57z" />
<glyph unicode="&#xc0;" horiz-adv-x="1200" d="M14 0v49l133 19l424 1335h80l414 -1335l121 -19v-49h-348v49l143 19l-133 424h-488l-133 -422l131 -21v-49h-344zM379 551h450l-161 520q-39 127 -60 256h-2q-16 -106 -63 -256zM389 1686l45 63l295 -221l-29 -37z" />
<glyph unicode="&#xc1;" horiz-adv-x="1200" d="M14 0v49l133 19l424 1335h80l414 -1335l121 -19v-49h-348v49l143 19l-133 424h-488l-133 -422l131 -21v-49h-344zM379 551h450l-161 520q-39 127 -60 256h-2q-16 -106 -63 -256zM471 1528l295 221l45 -63l-311 -195z" />
<glyph unicode="&#xc2;" horiz-adv-x="1200" d="M14 0v49l133 19l424 1335h80l414 -1335l121 -19v-49h-348v49l143 19l-133 424h-488l-133 -422l131 -21v-49h-344zM365 1524l210 233h46l215 -233l-33 -29l-205 184l-201 -184zM379 551h450l-161 520q-39 127 -60 256h-2q-16 -106 -63 -256z" />
<glyph unicode="&#xc3;" horiz-adv-x="1200" d="M14 0v49l133 19l424 1335h80l414 -1335l121 -19v-49h-348v49l143 19l-133 424h-488l-133 -422l131 -21v-49h-344zM367 1528q53 127 149 127q41 0 111.5 -37t101.5 -37q61 0 102 80l46 -23q-53 -127 -150 -127q-41 0 -111.5 37t-101.5 37q-63 0 -102 -80zM379 551h450 l-161 520q-39 127 -60 256h-2q-16 -106 -63 -256z" />
<glyph unicode="&#xc4;" horiz-adv-x="1200" d="M14 0v49l133 19l424 1335h80l414 -1335l121 -19v-49h-348v49l143 19l-133 424h-488l-133 -422l131 -21v-49h-344zM379 551h450l-161 520q-39 127 -60 256h-2q-16 -106 -63 -256zM383 1575q0 68 66 67q31 0 49 -18t18 -49q0 -68 -65 -68q-31 0 -49.5 18.5t-18.5 49.5z M686 1575q0 68 66 67q31 0 49 -18t18 -49q0 -68 -65 -68q-31 0 -49.5 18.5t-18.5 49.5z" />
<glyph unicode="&#xc5;" horiz-adv-x="1200" d="M14 0v49l133 19l424 1335h80l414 -1335l121 -19v-49h-348v49l143 19l-133 424h-488l-133 -422l131 -21v-49h-344zM379 551h450l-161 520q-39 127 -60 256h-2q-16 -106 -63 -256zM440 1648.5q0 67.5 42 119t118 51.5t118 -51.5t42 -119t-42 -118.5t-118 -51t-118 51 t-42 118.5zM506 1648.5q0 -118.5 94 -118.5t94 118.5t-94 118.5t-94 -118.5z" />
<glyph unicode="&#xc6;" horiz-adv-x="1693" d="M14 0v49l133 19l672 1271l-147 11v53h903v-252h-53l-21 195h-516v-572h389l19 152h49v-361h-49l-19 152h-389v-658h539l20 193h53v-252h-841v49l147 10v433h-450l-222 -422l131 -21v-49h-348zM483 549h420v522q0 199 2 272h-2z" />
<glyph unicode="&#xc7;" horiz-adv-x="1032" d="M127 694q0 723 494 723q211 0 321 -86v-219h-53l-23 195q-104 51 -245 51q-219 0 -312.5 -165t-93.5 -495q0 -338 92 -495.5t326 -157.5q141 0 258 51l22 201h54v-221q-115 -90 -334 -90h-2l-45 -101q63 0 106 -39t43 -100q0 -70 -41 -109.5t-116 -39.5q-80 0 -142 55 l31 43q51 -41 113 -41q86 0 86 90q0 88 -86 88q-39 0 -74 -8l69 164q-238 18 -343 194t-105 512z" />
<glyph unicode="&#xc8;" horiz-adv-x="1054" d="M117 0v49l147 10v1280l-147 11v53h819v-252h-53l-21 195h-516v-572h389l19 152h49v-361h-49l-19 152h-389v-658h539l20 193h53v-252h-841zM403 1686l46 63l294 -221l-28 -37z" />
<glyph unicode="&#xc9;" horiz-adv-x="1054" d="M117 0v49l147 10v1280l-147 11v53h819v-252h-53l-21 195h-516v-572h389l19 152h49v-361h-49l-19 152h-389v-658h539l20 193h53v-252h-841zM403 1528l295 221l45 -63l-311 -195z" />
<glyph unicode="&#xca;" horiz-adv-x="1054" d="M117 0v49l147 10v1280l-147 11v53h819v-252h-53l-21 195h-516v-572h389l19 152h49v-361h-49l-19 152h-389v-658h539l20 193h53v-252h-841zM317 1524l211 233h45l215 -233l-32 -29l-205 184l-201 -184z" />
<glyph unicode="&#xcb;" horiz-adv-x="1054" d="M117 0v49l147 10v1280l-147 11v53h819v-252h-53l-21 195h-516v-572h389l19 152h49v-361h-49l-19 152h-389v-658h539l20 193h53v-252h-841zM336 1575q0 68 65 67q31 0 49.5 -18t18.5 -49q0 -68 -66 -68q-31 0 -49 18.5t-18 49.5zM639 1575q0 68 66 67q31 0 49 -18t18 -49 q0 -68 -65 -68q-31 0 -49.5 18.5t-18.5 49.5z" />
<glyph unicode="&#xcc;" horiz-adv-x="610" d="M117 0v49l147 10v1280l-147 11v53h377v-53l-148 -11v-1280l148 -10v-49h-377zM135 1686l45 63l295 -221l-29 -37z" />
<glyph unicode="&#xcd;" horiz-adv-x="610" d="M117 0v49l147 10v1280l-147 11v53h377v-53l-148 -11v-1280l148 -10v-49h-377zM135 1528l295 221l45 -63l-311 -195z" />
<glyph unicode="&#xce;" horiz-adv-x="610" d="M70 1524l211 233h45l215 -233l-33 -29l-205 184l-201 -184zM117 0v49l147 10v1280l-147 11v53h377v-53l-148 -11v-1280l148 -10v-49h-377z" />
<glyph unicode="&#xcf;" horiz-adv-x="610" d="M88 1575q0 68 66 67q31 0 49 -18t18 -49q0 -68 -65 -68q-31 0 -49.5 18.5t-18.5 49.5zM117 0v49l147 10v1280l-147 11v53h377v-53l-148 -11v-1280l148 -10v-49h-377zM391 1575q0 68 66 67q31 0 49 -18t18 -49q0 -68 -65 -68q-31 0 -49.5 18.5t-18.5 49.5z" />
<glyph unicode="&#xd0;" horiz-adv-x="1226" d="M117 0v49l147 10v617h-147v57h147v606l-147 11v53h432q305 0 428 -167t123 -556q0 -367 -126 -523.5t-421 -156.5h-436zM346 59h215q258 0 356.5 144.5t98.5 476.5q0 358 -97.5 512t-359.5 154h-213v-613h324v-57h-324v-617z" />
<glyph unicode="&#xd1;" horiz-adv-x="1304" d="M117 0v49l147 10v1280l-147 11v53h248l520 -1065q76 -150 114 -266h2q-10 117 -10 290v977l-147 11v53h364v-53l-147 -11v-1339h-92l-516 1047q-74 147 -127 303h-2q10 -113 10 -349v-942l147 -10v-49h-364zM408 1528q53 127 149 127q41 0 111.5 -37t101.5 -37 q61 0 102 80l46 -23q-53 -127 -150 -127q-41 0 -111.5 37t-101.5 37q-63 0 -102 -80z" />
<glyph unicode="&#xd2;" horiz-adv-x="1212" d="M127 694q0 350 122 536.5t357.5 186.5t357 -185t121.5 -532q0 -358 -113.5 -536t-361.5 -178q-483 -1 -483 708zM215 698q0 -330 93 -490.5t298 -160.5q207 0 299 159t92 484q0 666 -391 665.5t-391 -657.5zM436 1686l45 63l295 -221l-28 -37z" />
<glyph unicode="&#xd3;" horiz-adv-x="1212" d="M127 694q0 350 122 536.5t357.5 186.5t357 -185t121.5 -532q0 -358 -113.5 -536t-361.5 -178q-483 -1 -483 708zM215 698q0 -330 93 -490.5t298 -160.5q207 0 299 159t92 484q0 666 -391 665.5t-391 -657.5zM436 1528l295 221l45 -63l-311 -195z" />
<glyph unicode="&#xd4;" horiz-adv-x="1212" d="M127 694q0 350 122 536.5t357.5 186.5t357 -185t121.5 -532q0 -358 -113.5 -536t-361.5 -178q-483 -1 -483 708zM215 698q0 -330 93 -490.5t298 -160.5q207 0 299 159t92 484q0 666 -391 665.5t-391 -657.5zM371 1524l211 233h45l215 -233l-33 -29l-205 184l-201 -184z " />
<glyph unicode="&#xd5;" horiz-adv-x="1212" d="M127 694q0 350 122 536.5t357.5 186.5t357 -185t121.5 -532q0 -358 -113.5 -536t-361.5 -178q-483 -1 -483 708zM215 698q0 -330 93 -490.5t298 -160.5q207 0 299 159t92 484q0 666 -391 665.5t-391 -657.5zM352 1528q53 127 150 127q41 0 111.5 -37t101.5 -37 q63 0 102 80l45 -23q-53 -127 -149 -127q-41 0 -112 37t-101 37q-61 0 -103 -80z" />
<glyph unicode="&#xd6;" horiz-adv-x="1212" d="M127 694q0 350 122 536.5t357.5 186.5t357 -185t121.5 -532q0 -358 -113.5 -536t-361.5 -178q-483 -1 -483 708zM215 698q0 -330 93 -490.5t298 -160.5q207 0 299 159t92 484q0 666 -391 665.5t-391 -657.5zM389 1575q0 68 66 67q31 0 49 -18t18 -49q0 -68 -65 -68 q-31 0 -49.5 18.5t-18.5 49.5zM692 1575q0 68 66 67q31 0 49 -18t18 -49q0 -68 -65 -68q-31 0 -49.5 18.5t-18.5 49.5z" />
<glyph unicode="&#xd7;" horiz-adv-x="917" d="M164 287l250 284l-250 285l53 45l242 -276l243 276l52 -45l-250 -285l250 -284l-54 -45l-243 276l-242 -276z" />
<glyph unicode="&#xd8;" horiz-adv-x="1212" d="M127 694q0 350 122 536.5t357 186.5q188 0 303 -119l117 199l59 -35l-129 -223q129 -182 129 -539q0 -358 -113.5 -536t-361.5 -178q-195 0 -311 112l-111 -192l-59 39l121 211q-123 173 -123 538zM215 698q0 -309 80 -467l577 1000q-96 125 -266 125q-391 -1 -391 -658z M338 164q92 -117 268 -117q207 0 299 159t92 484q0 305 -84 473z" />
<glyph unicode="&#xd9;" horiz-adv-x="1286" d="M76 1350v53h229v-1000q0 -356 277 -356q209 0 368 160v1132l-147 11v53h229v-1344l148 -10v-49h-211l-17 143q-166 -158 -374 -157q-354 0 -355 405v948zM416 1686l45 63l295 -221l-29 -37z" />
<glyph unicode="&#xda;" horiz-adv-x="1286" d="M76 1350v53h229v-1000q0 -356 277 -356q209 0 368 160v1132l-147 11v53h229v-1344l148 -10v-49h-211l-17 143q-166 -158 -374 -157q-354 0 -355 405v948zM457 1528l295 221l45 -63l-312 -195z" />
<glyph unicode="&#xdb;" horiz-adv-x="1286" d="M76 1350v53h229v-1000q0 -356 277 -356q209 0 368 160v1132l-147 11v53h229v-1344l148 -10v-49h-211l-17 143q-166 -158 -374 -157q-354 0 -355 405v948zM350 1524l211 233h45l215 -233l-33 -29l-204 184l-201 -184z" />
<glyph unicode="&#xdc;" horiz-adv-x="1286" d="M76 1350v53h229v-1000q0 -356 277 -356q209 0 368 160v1132l-147 11v53h229v-1344l148 -10v-49h-211l-17 143q-166 -158 -374 -157q-354 0 -355 405v948zM369 1575q0 68 65 67q31 0 49.5 -18t18.5 -49q0 -68 -66 -68q-31 0 -49 18.5t-18 49.5zM672 1575q0 68 65 67 q31 0 49.5 -18t18.5 -49q0 -68 -66 -68q-31 0 -49 18.5t-18 49.5z" />
<glyph unicode="&#xdd;" d="M14 1354v49h353v-49l-144 -19l262 -555q66 -139 76 -184q12 49 74 184l254 553l-131 21v49h344v-49l-133 -19l-373 -794v-482l147 -10v-49h-376v49l147 10v484l-379 792zM387 1528l295 221l45 -63l-311 -195z" />
<glyph unicode="&#xde;" horiz-adv-x="1013" d="M117 0v49l147 10v1280l-147 11v53h377v-53l-148 -11l-2 -223h223q412 0 412 -391q0 -203 -102.5 -306.5t-286.5 -103.5h-244v-256l189 -10v-49h-418zM346 371h236q309 0 309 352q0 172 -79 255t-253 83h-213v-690z" />
<glyph unicode="&#xdf;" horiz-adv-x="1001" d="M55 0v39l127 20v818l-125 16v47h125v111q0 193 90 301t240 108q131 0 201.5 -72.5t70.5 -185.5q0 -90 -56 -168t-111.5 -135t-55.5 -94q0 -41 26.5 -68.5t117.5 -89.5q57 -39 85.5 -61.5t69.5 -66.5t59.5 -96t18.5 -118q0 -154 -90 -236.5t-236 -82.5q-92 0 -196 39 l16 55q82 -35 182 -35q113 0 177.5 67.5t64.5 192.5q0 98 -49 159.5t-137 119.5q-66 43 -94.5 64.5t-60.5 64.5t-32 90q0 43 35 89t76 83t76 98.5t35 128.5q0 90 -49.5 145.5t-143.5 55.5q-127 0 -189.5 -94.5t-62.5 -261.5v-1047h-205z" />
<glyph unicode="&#xe0;" horiz-adv-x="886" d="M76 258q0 152 100 221.5t301 69.5h131v141q0 199 -176 199q-135 0 -291 -74l-20 47q154 92 323 92q125 0 183.5 -63.5t58.5 -202.5v-569q0 -51 26.5 -63.5t100.5 -10.5l8 -39q-49 -20 -98 -20q-115 0 -115 131q-119 -131 -262 -131q-127 0 -198.5 68.5t-71.5 203.5z M152 266q0 -106 55 -162.5t139 -56.5q90 0 145.5 31t116.5 100v316h-104q-182 0 -267 -51.5t-85 -176.5zM252 1264l45 63l295 -221l-29 -37z" />
<glyph unicode="&#xe1;" horiz-adv-x="886" d="M76 258q0 152 100 221.5t301 69.5h131v141q0 199 -176 199q-135 0 -291 -74l-20 47q154 92 323 92q125 0 183.5 -63.5t58.5 -202.5v-569q0 -51 26.5 -63.5t100.5 -10.5l8 -39q-49 -20 -98 -20q-115 0 -115 131q-119 -131 -262 -131q-127 0 -198.5 68.5t-71.5 203.5z M152 266q0 -106 55 -162.5t139 -56.5q90 0 145.5 31t116.5 100v316h-104q-182 0 -267 -51.5t-85 -176.5zM252 1106l295 221l45 -63l-311 -195z" />
<glyph unicode="&#xe2;" horiz-adv-x="886" d="M76 258q0 152 100 221.5t301 69.5h131v141q0 199 -176 199q-135 0 -291 -74l-20 47q154 92 323 92q125 0 183.5 -63.5t58.5 -202.5v-569q0 -51 26.5 -63.5t100.5 -10.5l8 -39q-49 -20 -98 -20q-115 0 -115 131q-119 -131 -262 -131q-127 0 -198.5 68.5t-71.5 203.5z M152 266q0 -106 55 -162.5t139 -56.5q90 0 145.5 31t116.5 100v316h-104q-182 0 -267 -51.5t-85 -176.5zM186 1102l211 233h45l215 -233l-32 -29l-205 184l-201 -184z" />
<glyph unicode="&#xe3;" horiz-adv-x="886" d="M76 258q0 152 100 221.5t301 69.5h131v141q0 199 -176 199q-135 0 -291 -74l-20 47q154 92 323 92q125 0 183.5 -63.5t58.5 -202.5v-569q0 -51 26.5 -63.5t100.5 -10.5l8 -39q-49 -20 -98 -20q-115 0 -115 131q-119 -131 -262 -131q-127 0 -198.5 68.5t-71.5 203.5z M152 266q0 -106 55 -162.5t139 -56.5q90 0 145.5 31t116.5 100v316h-104q-182 0 -267 -51.5t-85 -176.5zM168 1126q53 127 149 127q41 0 112 -36.5t101 -36.5q63 0 103 80l45 -23q-53 -127 -150 -127q-41 0 -111.5 37t-101.5 37q-61 0 -102 -80z" />
<glyph unicode="&#xe4;" horiz-adv-x="886" d="M76 258q0 152 100 221.5t301 69.5h131v141q0 199 -176 199q-135 0 -291 -74l-20 47q154 92 323 92q125 0 183.5 -63.5t58.5 -202.5v-569q0 -51 26.5 -63.5t100.5 -10.5l8 -39q-49 -20 -98 -20q-115 0 -115 131q-119 -131 -262 -131q-127 0 -198.5 68.5t-71.5 203.5z M152 266q0 -106 55 -162.5t139 -56.5q90 0 145.5 31t116.5 100v316h-104q-182 0 -267 -51.5t-85 -176.5zM205 1174q0 68 65 67q31 0 49.5 -18.5t18.5 -48.5q0 -68 -66 -68q-31 0 -49 18.5t-18 49.5zM508 1174q0 68 65 67q31 0 49.5 -18.5t18.5 -48.5q0 -68 -66 -68 q-31 0 -49 18.5t-18 49.5z" />
<glyph unicode="&#xe5;" horiz-adv-x="886" d="M76 258q0 152 100 221.5t301 69.5h131v141q0 199 -176 199q-135 0 -291 -74l-20 47q154 92 323 92q125 0 183.5 -63.5t58.5 -202.5v-569q0 -51 26.5 -63.5t100.5 -10.5l8 -39q-49 -20 -98 -20q-115 0 -115 131q-119 -131 -262 -131q-127 0 -198.5 68.5t-71.5 203.5z M152 266q0 -106 55 -162.5t139 -56.5q90 0 145.5 31t116.5 100v316h-104q-182 0 -267 -51.5t-85 -176.5zM262 1247.5q0 67.5 42 118.5t118 51t118 -51t42 -118.5t-42 -119t-118 -51.5t-118 51.5t-42 119zM328 1247q0 -119 94 -119t94 119t-94 119t-94 -119z" />
<glyph unicode="&#xe6;" horiz-adv-x="1390" d="M76 258q0 150 98 211t303 61h131v154q0 88 -43 146.5t-133 58.5q-135 0 -291 -74l-20 47q154 92 323 92q195 0 226 -190q35 90 116.5 140t174.5 50q324 0 323 -446v-33h-596q0 -223 79 -325.5t243 -102.5q125 0 229 74l33 -41q-127 -94 -285 -94q-223 0 -315 174 q-49 -70 -133 -122t-193 -52q-127 0 -198.5 68.5t-71.5 203.5zM152 256q0 -100 55 -154.5t139 -54.5q166 0 301 166q-39 111 -39 262h-104q-186 0 -269 -46t-83 -173zM690 530h514q0 367 -243 367q-255 0 -271 -367z" />
<glyph unicode="&#xe7;" horiz-adv-x="827" d="M117 467q0 252 99 369.5t261 117.5q156 0 260 -92v-147h-51l-24 127q-78 55 -185 55q-281 0 -280 -424q0 -227 78.5 -326.5t224.5 -99.5q125 0 229 74l33 -41q-113 -86 -262 -94l-45 -101q63 0 106 -39t43 -100q0 -70 -41 -109.5t-117 -39.5q-80 0 -141 55l31 43 q51 -41 113 -41q86 0 86 90q0 88 -86 88q-39 0 -74 -8l69 164q-147 10 -237 122.5t-90 356.5z" />
<glyph unicode="&#xe8;" horiz-adv-x="899" d="M117 467q0 252 96 369.5t256 117.5q324 0 324 -450v-33h-596q0 -223 77.5 -323.5t243.5 -100.5q125 0 230 74l32 -41q-127 -94 -284 -94q-379 0 -379 481zM199 526h514q0 371 -244 371q-254 0 -270 -371zM299 1264l45 63l295 -221l-29 -37z" />
<glyph unicode="&#xe9;" horiz-adv-x="899" d="M117 467q0 252 96 369.5t256 117.5q324 0 324 -450v-33h-596q0 -223 77.5 -323.5t243.5 -100.5q125 0 230 74l32 -41q-127 -94 -284 -94q-379 0 -379 481zM199 526h514q0 371 -244 371q-254 0 -270 -371zM299 1106l295 221l45 -63l-311 -195z" />
<glyph unicode="&#xea;" horiz-adv-x="899" d="M117 467q0 252 96 369.5t256 117.5q324 0 324 -450v-33h-596q0 -223 77.5 -323.5t243.5 -100.5q125 0 230 74l32 -41q-127 -94 -284 -94q-379 0 -379 481zM199 526h514q0 371 -244 371q-254 0 -270 -371zM233 1102l211 233h45l216 -233l-33 -29l-205 184l-201 -184z" />
<glyph unicode="&#xeb;" horiz-adv-x="899" d="M117 467q0 252 96 369.5t256 117.5q324 0 324 -450v-33h-596q0 -223 77.5 -323.5t243.5 -100.5q125 0 230 74l32 -41q-127 -94 -284 -94q-379 0 -379 481zM199 526h514q0 371 -244 371q-254 0 -270 -371zM252 1174q0 68 65 67q31 0 49.5 -18.5t18.5 -48.5q0 -68 -66 -68 q-31 0 -49 18.5t-18 49.5zM555 1174q0 68 66 67q31 0 49 -18.5t18 -48.5q0 -68 -65 -68q-31 0 -49.5 18.5t-18.5 49.5z" />
<glyph unicode="&#xec;" horiz-adv-x="495" d="M41 1264l45 63l295 -221l-29 -37zM86 891v49h207v-883l127 -16v-41h-332v41l127 16v820z" />
<glyph unicode="&#xed;" horiz-adv-x="495" d="M86 891v49h207v-883l127 -16v-41h-332v41l127 16v820zM102 1106l295 221l45 -63l-311 -195z" />
<glyph unicode="&#xee;" horiz-adv-x="495" d="M-4 1102l211 233h45l215 -233l-33 -29l-205 184l-200 -184zM86 891v49h207v-883l127 -16v-41h-332v41l127 16v820z" />
<glyph unicode="&#xef;" horiz-adv-x="495" d="M14 1174q0 68 66 67q31 0 49 -18.5t18 -48.5q0 -68 -65 -68q-31 0 -49.5 18.5t-18.5 49.5zM86 891v49h207v-883l127 -16v-41h-332v41l127 16v820zM317 1174q0 68 66 67q31 0 49.5 -18.5t18.5 -48.5q0 -68 -66 -68q-31 0 -49.5 18.5t-18.5 49.5z" />
<glyph unicode="&#xf0;" horiz-adv-x="964" d="M117 467q0 250 97 368.5t261 118.5q180 0 270 -145q-51 256 -215 424l-227 -141l-31 45l217 135q-88 78 -223 149l29 56q145 -76 252 -170l190 118l29 -45l-178 -110q260 -260 260 -750q0 -287 -95.5 -410.5t-269.5 -123.5q-168 0 -267 116.5t-99 364.5zM199 473 q0 -432 284 -432q139 0 210 101.5t71 320.5q0 434 -283 434q-141 0 -211.5 -101.5t-70.5 -322.5z" />
<glyph unicode="&#xf1;" horiz-adv-x="1034" d="M86 893v47h197l10 -141q145 156 307 155q250 0 250 -270v-625l119 -20v-39h-197v676q0 102 -48 155.5t-134 53.5q-145 0 -297 -144v-682l127 -20v-39h-332v39l127 20v818zM252 1126q53 127 149 127q41 0 112 -36.5t101 -36.5q61 0 103 80l45 -23q-53 -127 -150 -127 q-41 0 -111.5 37t-101.5 37q-63 0 -102 -80z" />
<glyph unicode="&#xf2;" horiz-adv-x="964" d="M117 467q0 250 97 368.5t263 118.5t268.5 -118.5t102.5 -364.5q0 -248 -98.5 -366.5t-266.5 -118.5t-267 116.5t-99 364.5zM199 471q0 -430 282 -430q141 0 212 100.5t71 321.5q0 434 -283 434q-141 0 -211.5 -100.5t-70.5 -325.5zM311 1264l45 63l295 -221l-28 -37z" />
<glyph unicode="&#xf3;" horiz-adv-x="964" d="M117 467q0 250 97 368.5t263 118.5t268.5 -118.5t102.5 -364.5q0 -248 -98.5 -366.5t-266.5 -118.5t-267 116.5t-99 364.5zM199 471q0 -430 282 -430q141 0 212 100.5t71 321.5q0 434 -283 434q-141 0 -211.5 -100.5t-70.5 -325.5zM311 1106l295 221l45 -63l-311 -195z " />
<glyph unicode="&#xf4;" horiz-adv-x="964" d="M117 467q0 250 97 368.5t263 118.5t268.5 -118.5t102.5 -364.5q0 -248 -98.5 -366.5t-266.5 -118.5t-267 116.5t-99 364.5zM199 471q0 -430 282 -430q141 0 212 100.5t71 321.5q0 434 -283 434q-141 0 -211.5 -100.5t-70.5 -325.5zM246 1102l211 233h45l215 -233l-33 -29 l-205 184l-200 -184z" />
<glyph unicode="&#xf5;" horiz-adv-x="964" d="M117 467q0 250 97 368.5t263 118.5t268.5 -118.5t102.5 -364.5q0 -248 -98.5 -366.5t-266.5 -118.5t-267 116.5t-99 364.5zM199 471q0 -430 282 -430q141 0 212 100.5t71 321.5q0 434 -283 434q-141 0 -211.5 -100.5t-70.5 -325.5zM227 1126q53 127 150 127 q41 0 111.5 -36.5t101.5 -36.5q61 0 102 80l45 -23q-53 -127 -149 -127q-41 0 -111.5 37t-101.5 37q-63 0 -103 -80z" />
<glyph unicode="&#xf6;" horiz-adv-x="964" d="M117 467q0 250 97 368.5t263 118.5t268.5 -118.5t102.5 -364.5q0 -248 -98.5 -366.5t-266.5 -118.5t-267 116.5t-99 364.5zM199 471q0 -430 282 -430q141 0 212 100.5t71 321.5q0 434 -283 434q-141 0 -211.5 -100.5t-70.5 -325.5zM264 1174q0 68 66 67q31 0 49 -18.5 t18 -48.5q0 -68 -65 -68q-31 0 -49.5 18.5t-18.5 49.5zM567 1174q0 68 66 67q31 0 49 -18.5t18 -48.5q0 -68 -65 -68q-31 0 -49.5 18.5t-18.5 49.5z" />
<glyph unicode="&#xf7;" horiz-adv-x="1032" d="M150 547v67h733v-67h-733zM436 278.5q0 32.5 23.5 56t56.5 23.5t56.5 -23.5t23.5 -56t-23.5 -56t-56.5 -23.5t-56.5 23.5t-23.5 56zM436 882.5q0 32.5 23.5 56.5t56.5 24t56.5 -24t23.5 -56.5t-23.5 -56t-56.5 -23.5t-56.5 23.5t-23.5 56z" />
<glyph unicode="&#xf8;" horiz-adv-x="964" d="M117 467q0 250 97 368.5t263 118.5q137 0 230 -80l88 142l53 -29l-98 -158q98 -125 98 -358q0 -248 -98.5 -366.5t-266.5 -118.5q-131 0 -217 67l-94 -149l-53 28l102 164q-104 125 -104 371zM199 471q0 -207 61 -311l410 657q-72 80 -189 80q-141 0 -211.5 -100.5 t-70.5 -325.5zM299 109q68 -68 182 -68q141 0 212 100.5t71 321.5q0 197 -55 301z" />
<glyph unicode="&#xf9;" horiz-adv-x="1026" d="M66 889v51h206v-680q0 -207 179 -207q154 0 290 131v693l-129 12v51h209v-877l129 -22v-41h-194l-8 131q-63 -63 -145.5 -104t-160.5 -41q-121 0 -184 66.5t-63 195.5v629zM305 1264l45 63l295 -221l-29 -37z" />
<glyph unicode="&#xfa;" horiz-adv-x="1026" d="M66 889v51h206v-680q0 -207 179 -207q154 0 290 131v693l-129 12v51h209v-877l129 -22v-41h-194l-8 131q-63 -63 -145.5 -104t-160.5 -41q-121 0 -184 66.5t-63 195.5v629zM326 1106l295 221l45 -63l-312 -195z" />
<glyph unicode="&#xfb;" horiz-adv-x="1026" d="M66 889v51h206v-680q0 -207 179 -207q154 0 290 131v693l-129 12v51h209v-877l129 -22v-41h-194l-8 131q-63 -63 -145.5 -104t-160.5 -41q-121 0 -184 66.5t-63 195.5v629zM260 1102l211 233h45l215 -233l-33 -29l-204 184l-201 -184z" />
<glyph unicode="&#xfc;" horiz-adv-x="1026" d="M66 889v51h206v-680q0 -207 179 -207q154 0 290 131v693l-129 12v51h209v-877l129 -22v-41h-194l-8 131q-63 -63 -145.5 -104t-160.5 -41q-121 0 -184 66.5t-63 195.5v629zM279 1174q0 68 65 67q31 0 49.5 -18.5t18.5 -48.5q0 -68 -66 -68q-31 0 -49 18.5t-18 49.5z M582 1174q0 68 65 67q31 0 49.5 -18.5t18.5 -48.5q0 -68 -66 -68q-31 0 -49 18.5t-18 49.5z" />
<glyph unicode="&#xfd;" horiz-adv-x="913" d="M14 893v47h316v-47l-125 -16l184 -580q57 -180 72 -256h2q20 96 72 256l180 582l-125 14v47h309v-47l-115 -16l-286 -924q-57 -182 -126 -257t-212 -124l-23 57q135 49 197.5 125t109.5 246h-34l-287 879zM307 1106l295 221l45 -63l-311 -195z" />
<glyph unicode="&#xfe;" horiz-adv-x="978" d="M45 1401v49h207v-653q133 158 293 157q150 0 233.5 -122.5t83.5 -366.5q0 -240 -85 -359.5t-242.5 -119.5t-282.5 141v-485l127 -21v-39h-332v39l127 21v1744zM252 193q139 -143 278 -144q252 0 252 406q0 236 -61.5 333t-183.5 97q-55 0 -113.5 -27t-89.5 -50.5 t-82 -68.5v-546z" />
<glyph unicode="&#xff;" horiz-adv-x="913" d="M14 893v47h316v-47l-125 -16l184 -580q57 -180 72 -256h2q20 96 72 256l180 582l-125 14v47h309v-47l-115 -16l-286 -924q-57 -182 -126 -257t-212 -124l-23 57q135 49 197.5 125t109.5 246h-34l-287 879zM240 1174q0 68 65 67q31 0 49.5 -18.5t18.5 -48.5q0 -68 -66 -68 q-31 0 -49 18.5t-18 49.5zM543 1174q0 68 65 67q31 0 49.5 -18.5t18.5 -48.5q0 -68 -66 -68q-31 0 -49 18.5t-18 49.5z" />
<glyph unicode="&#x152;" horiz-adv-x="1671" d="M127 680q0 389 123 556t428 167h874v-252h-53l-20 195h-516v-572h389l18 152h49v-361h-49l-18 152h-389v-658h538l21 193h53v-252h-901q-295 0 -421 156.5t-126 523.5zM211 680q0 -332 98.5 -476.5t356.5 -144.5h215v1287h-213q-262 0 -359.5 -154t-97.5 -512z" />
<glyph unicode="&#x153;" horiz-adv-x="1554" d="M117 467q0 250 97 368.5t263 118.5q250 0 332 -245q78 246 315 245q324 0 324 -450v-33h-596q0 -223 78 -323.5t244 -100.5q125 0 229 74l33 -41q-127 -94 -285 -94q-266 0 -342 247q-78 -248 -326 -247q-168 0 -267 116.5t-99 364.5zM199 471q0 -430 282 -430 q141 0 212 100.5t71 321.5q0 434 -283 434q-141 0 -211.5 -100.5t-70.5 -325.5zM854 526h514q0 371 -244 371q-254 0 -270 -371z" />
<glyph unicode="&#x178;" d="M14 1354v49h353v-49l-144 -19l262 -555q66 -139 76 -184q12 49 74 184l254 553l-131 21v49h344v-49l-133 -19l-373 -794v-482l147 -10v-49h-376v49l147 10v484l-379 792zM340 1575q0 68 66 67q31 0 49 -18t18 -49q0 -68 -65 -68q-31 0 -49.5 18.5t-18.5 49.5zM643 1575 q0 68 66 67q31 0 49 -18t18 -49q0 -68 -65 -68q-31 0 -49.5 18.5t-18.5 49.5z" />
<glyph unicode="&#x2c6;" d="M322 1102l210 233h46l215 -233l-33 -29l-205 184l-201 -184z" />
<glyph unicode="&#x2dc;" d="M303 1126q53 127 150 127q41 0 111.5 -36.5t101.5 -36.5q63 0 102 80l45 -23q-53 -127 -149 -127q-41 0 -112 37t-101 37q-61 0 -103 -80z" />
<glyph unicode="&#x2000;" horiz-adv-x="909" />
<glyph unicode="&#x2001;" horiz-adv-x="1818" />
<glyph unicode="&#x2002;" horiz-adv-x="909" />
<glyph unicode="&#x2003;" horiz-adv-x="1818" />
<glyph unicode="&#x2004;" horiz-adv-x="606" />
<glyph unicode="&#x2005;" horiz-adv-x="454" />
<glyph unicode="&#x2006;" horiz-adv-x="303" />
<glyph unicode="&#x2007;" horiz-adv-x="303" />
<glyph unicode="&#x2008;" horiz-adv-x="227" />
<glyph unicode="&#x2009;" horiz-adv-x="362" />
<glyph unicode="&#x200a;" horiz-adv-x="100" />
<glyph unicode="&#x2010;" horiz-adv-x="581" d="M119 510v72h344v-72h-344z" />
<glyph unicode="&#x2011;" horiz-adv-x="581" d="M119 510v72h344v-72h-344z" />
<glyph unicode="&#x2012;" horiz-adv-x="581" d="M119 510v72h344v-72h-344z" />
<glyph unicode="&#x2013;" horiz-adv-x="931" d="M119 541v67h694v-67h-694z" />
<glyph unicode="&#x2014;" horiz-adv-x="1320" d="M119 541v67h1083v-67h-1083z" />
<glyph unicode="&#x2018;" horiz-adv-x="399" d="M117 1200q0 174 149 217l17 -37q-100 -49 -101 -139q98 0 99 -72q0 -33 -22.5 -53t-55.5 -20q-37 0 -61.5 26.5t-24.5 77.5z" />
<glyph unicode="&#x2019;" horiz-adv-x="399" d="M117 1133q100 49 100 139q-98 0 -98 71q0 33 22.5 53.5t55.5 20.5q37 0 61.5 -26.5t24.5 -77.5q0 -174 -150 -217z" />
<glyph unicode="&#x201a;" horiz-adv-x="399" d="M117 -133q100 49 100 139q-98 0 -98 72q0 33 22.5 53.5t55.5 20.5q37 0 61.5 -27t24.5 -78q0 -174 -150 -217z" />
<glyph unicode="&#x201c;" horiz-adv-x="673" d="M117 1200q0 174 149 217l17 -37q-100 -49 -101 -139q98 0 99 -72q0 -33 -22.5 -53t-55.5 -20q-37 0 -61.5 26.5t-24.5 77.5zM391 1200q0 174 150 217l16 -37q-100 -49 -100 -139q98 0 98 -72q0 -33 -22.5 -53t-55.5 -20q-37 0 -61.5 26.5t-24.5 77.5z" />
<glyph unicode="&#x201d;" horiz-adv-x="673" d="M117 1133q100 49 100 139q-98 0 -98 71q0 33 22.5 53.5t55.5 20.5q37 0 61.5 -26.5t24.5 -77.5q0 -174 -150 -217zM391 1133q100 49 101 139q-98 0 -99 71q0 33 22.5 53.5t55.5 20.5q37 0 61.5 -26.5t24.5 -77.5q0 -174 -149 -217z" />
<glyph unicode="&#x201e;" horiz-adv-x="673" d="M117 -133q100 49 100 139q-98 0 -98 72q0 33 22.5 53.5t55.5 20.5q37 0 61.5 -27t24.5 -78q0 -174 -150 -217zM391 -133q100 49 101 139q-98 0 -99 72q0 33 22.5 53.5t55.5 20.5q37 0 61.5 -27t24.5 -78q0 -174 -149 -217z" />
<glyph unicode="&#x2022;" horiz-adv-x="532" d="M117 632.5q0 61.5 44 105.5t105.5 44t105.5 -44t44 -105.5t-44 -105.5t-105.5 -44t-105.5 44t-44 105.5z" />
<glyph unicode="&#x2026;" horiz-adv-x="1179" d="M117 67.5q0 32.5 23.5 56t56 23.5t56 -23.5t23.5 -56t-23.5 -56t-56 -23.5t-56 23.5t-23.5 56zM510 67.5q0 32.5 23.5 56t56.5 23.5t56.5 -23.5t23.5 -56t-23.5 -56t-56.5 -23.5t-56.5 23.5t-23.5 56zM903 67.5q0 32.5 23.5 56t56.5 23.5t56.5 -23.5t23.5 -56t-23.5 -56 t-56.5 -23.5t-56.5 23.5t-23.5 56z" />
<glyph unicode="&#x202f;" horiz-adv-x="362" />
<glyph unicode="&#x2039;" horiz-adv-x="563" d="M119 500l264 397l45 -33l-217 -364l217 -365l-45 -33z" />
<glyph unicode="&#x203a;" horiz-adv-x="563" d="M135 135l217 365l-217 364l45 33l264 -397l-264 -398z" />
<glyph unicode="&#x205f;" horiz-adv-x="454" />
<glyph unicode="&#x20ac;" horiz-adv-x="1132" d="M70 489v64h176q-2 31 -2 92q0 80 4 117h-178v63h184q57 489 453 490q201 0 321 -94v-220h-53l-23 195q-109 59 -245 59q-168 0 -258.5 -104t-112.5 -326h477v-63h-483q-2 -37 -2 -117q0 -61 2 -92h483v-64h-479q45 -438 395 -438q184 0 297 92l35 -45 q-129 -113 -332 -112q-420 0 -477 503h-182z" />
<glyph unicode="&#x2122;" horiz-adv-x="1511" d="M43 1217v186h530v-186h-43l-18 137h-168v-633l98 -8v-41h-268v41l98 8v633h-166l-20 -137h-43zM637 672v41l94 8v635l-94 6v41h201l141 -385q25 -70 33 -123h4q4 35 37 123l139 385h192v-41l-90 -6v-635l90 -8v-41h-254v41l93 8v469q0 102 4 168h-4q-12 -59 -47 -156 l-146 -391h-49l-143 391q-18 51 -47 156h-5q2 -66 2 -168v-469l93 -8v-41h-244z" />
<glyph unicode="&#xe000;" horiz-adv-x="940" d="M0 940h940v-940h-940v940z" />
<glyph unicode="&#xfb01;" horiz-adv-x="1001" d="M55 0v39l127 20v826h-125v55h125v201q0 326 297 325q121 0 215 -75l-28 -48q-92 63 -189 64q-217 0 -217 -268v-199h539v-883l127 -16v-41h-332v41l127 16v828h-461v-822l164 -22v-41h-369z" />
<glyph unicode="&#xfb02;" horiz-adv-x="1001" d="M55 0v39l127 20v826h-125v55h125v201q0 326 299 325q145 0 248 -82l27 66h43v-1393l127 -16v-41h-332v41l127 16v1268q-109 82 -242 82q-219 0 -219 -268v-199h213v-55h-213v-822l164 -22v-41h-369z" />
<glyph unicode="&#xfb03;" horiz-adv-x="1540" d="M55 0v39l127 20v826h-125v55h125v217q0 289 244 289q106 0 176 -55l-29 -43q-68 39 -141 38q-172 0 -172 -198v-248h461v201q0 326 297 325q121 0 215 -75l-29 -48q-92 63 -188 64q-217 0 -217 -268v-199h538v-883l127 -16v-41h-331v41l127 16v828h-461v-822l164 -22v-41 h-369v39l127 20v826h-461v-822l164 -22v-41h-369z" />
<glyph unicode="&#xfb04;" horiz-adv-x="1540" d="M55 0v39l127 20v826h-125v55h125v217q0 289 244 289q106 0 176 -55l-29 -43q-68 39 -141 38q-172 0 -172 -198v-248h461v201q0 326 299 325q145 0 248 -82l26 66h43v-1393l127 -16v-41h-331v41l127 16v1268q-109 82 -242 82q-219 0 -219 -268v-199h213v-55h-213v-822 l164 -22v-41h-369v39l127 20v826h-461v-822l164 -22v-41h-369z" />
</font>
</defs>
</svg>
